G04 Layer_Color=65535*
%FSLAX43Y43*%
%MOMM*%
G71*
G01*
G75*
%ADD20C,0.254*%
%ADD34C,0.250*%
%ADD35C,0.600*%
%ADD36C,0.200*%
%ADD37C,0.152*%
%ADD38R,3.683X0.508*%
%ADD39R,0.508X3.683*%
D20*
X64732Y19700D02*
G03*
X64732Y15050I0J-2325D01*
G01*
X71432D02*
G03*
X71432Y19700I0J2325D01*
G01*
X64754Y52659D02*
G03*
X64754Y52659I-508J0D01*
G01*
X64627D02*
G03*
X64627Y52659I-381J0D01*
G01*
X64246Y52405D02*
G03*
X64132Y52432I0J254D01*
G01*
X64373Y52659D02*
G03*
X64246Y52532I-127J0D01*
G01*
X63307Y60111D02*
G03*
X63318Y62640I-115J1265D01*
G01*
X62811Y58328D02*
G03*
X62811Y58328I-127J0D01*
G01*
X57444Y67449D02*
G03*
X57444Y67449I-127J0D01*
G01*
X57571D02*
G03*
X57571Y67449I-254J0D01*
G01*
X57719D02*
G03*
X57719Y67449I-402J0D01*
G01*
X57885D02*
G03*
X57885Y67449I-568J0D01*
G01*
X57615Y23218D02*
Y25668D01*
X56365Y23218D02*
X57615D01*
X56365D02*
Y25668D01*
X57615D01*
X83638Y32602D02*
Y37428D01*
X81352Y32602D02*
X83638D01*
X81352D02*
Y37428D01*
X83638D01*
X75486Y15514D02*
Y17964D01*
X76736D01*
Y15514D02*
Y17964D01*
X75486Y15514D02*
X76736D01*
X77448Y39694D02*
X79898D01*
X77448D02*
Y40944D01*
X79898D01*
Y39694D02*
Y40944D01*
X78849Y33218D02*
Y35668D01*
X80099D01*
Y33218D02*
Y35668D01*
X78849Y33218D02*
X80099D01*
X61354Y40390D02*
X63804D01*
Y39140D02*
Y40390D01*
X61354Y39140D02*
X63804D01*
X61354D02*
Y40390D01*
X81643Y21469D02*
Y21786D01*
X81706Y21532D02*
X81897Y21342D01*
X81960D01*
Y21532D01*
X81706Y21786D02*
X81960Y21532D01*
X81706Y21786D02*
X81960Y21532D01*
Y21342D02*
Y21532D01*
Y21151D02*
Y21532D01*
X81706Y21786D02*
X81960Y21532D01*
X81706Y21786D02*
X81960D01*
X81325D02*
X81960D01*
X81325D02*
X81960Y21151D01*
X78150Y16706D02*
X79039D01*
X78150D02*
Y21786D01*
X81960D01*
Y16706D02*
Y21786D01*
X78531Y16706D02*
X81960D01*
X78182Y24382D02*
X80632D01*
Y23132D02*
Y24382D01*
X78182Y23132D02*
X80632D01*
X78182D02*
Y24382D01*
Y29223D02*
X80632D01*
Y27973D02*
Y29223D01*
X78182Y27973D02*
X80632D01*
X78182D02*
Y29223D01*
Y26802D02*
X80632D01*
Y25552D02*
Y26802D01*
X78182Y25552D02*
X80632D01*
X78182D02*
Y26802D01*
X64732Y19700D02*
X71432D01*
X64732Y15050D02*
X71432D01*
X69098Y48939D02*
X70348D01*
X69098Y46489D02*
Y48939D01*
Y46489D02*
X70348D01*
Y48939D01*
X69098Y45813D02*
X70348D01*
X69098Y43363D02*
Y45813D01*
Y43363D02*
X70348D01*
Y45813D01*
X61452Y53548D02*
X68056D01*
Y40848D02*
Y53548D01*
X61452Y40848D02*
X68056D01*
X61452D02*
Y53548D01*
X73873Y76297D02*
X83906D01*
X73873Y42769D02*
Y76297D01*
Y42769D02*
X83906D01*
Y76297D01*
Y49246D02*
Y49373D01*
X82636Y48103D02*
X83906Y49373D01*
X82636Y48103D02*
X83906Y46833D01*
X21463Y68326D02*
Y75946D01*
Y68326D02*
X43561D01*
Y75946D01*
X21463D02*
X43561D01*
X21463Y59775D02*
Y67395D01*
Y59775D02*
X43561D01*
Y67395D01*
X21463D02*
X43561D01*
X21463Y51223D02*
Y58843D01*
Y51223D02*
X43561D01*
Y58843D01*
X21463D02*
X43561D01*
X21463Y42672D02*
Y50292D01*
Y42672D02*
X43561D01*
Y50292D01*
X21463D02*
X43561D01*
X21463Y34121D02*
Y41741D01*
Y34121D02*
X43561D01*
Y41741D01*
X21463D02*
X43561D01*
X21463Y25569D02*
Y33189D01*
Y25569D02*
X43561D01*
Y33189D01*
X21463D02*
X43561D01*
X21463Y17018D02*
Y24638D01*
Y17018D02*
X43561D01*
Y24638D01*
X21463D02*
X43561D01*
X59476Y69381D02*
Y82681D01*
Y69381D02*
X72876D01*
Y82681D01*
X59476D02*
X72876D01*
X48630Y69600D02*
X52440D01*
X48630Y63885D02*
Y69600D01*
Y63885D02*
X52440D01*
Y69600D01*
X63318Y62640D02*
Y64296D01*
X63319Y58455D02*
Y60099D01*
X71955Y58455D02*
Y64170D01*
X63319Y64297D02*
X71955D01*
X63319Y58455D02*
X71955D01*
X53507Y68465D02*
X62143D01*
X53507Y57162D02*
Y68465D01*
Y57162D02*
X62143D01*
Y68465D01*
X60553Y50002D02*
Y53812D01*
X54838D02*
X60553D01*
X54838Y50002D02*
Y53812D01*
Y50002D02*
X60553D01*
X44323Y62889D02*
Y64413D01*
X45085D01*
X45339Y64159D01*
Y63651D01*
X45085Y63397D01*
X44323D01*
X44831D02*
X45339Y62889D01*
X45847D02*
X46354D01*
X46100D01*
Y63905D01*
X45847D01*
X47624Y62382D02*
X47878D01*
X48132Y62636D01*
Y63905D01*
X47370D01*
X47116Y63651D01*
Y63143D01*
X47370Y62889D01*
X48132D01*
X48640Y64413D02*
Y62889D01*
Y63651D01*
X48894Y63905D01*
X49401D01*
X49655Y63651D01*
Y62889D01*
X50417Y64159D02*
Y63905D01*
X50163D01*
X50671D01*
X50417D01*
Y63143D01*
X50671Y62889D01*
X45339Y61213D02*
X45085Y61467D01*
X44577D01*
X44323Y61213D01*
Y60960D01*
X44577Y60706D01*
X45085D01*
X45339Y60452D01*
Y60198D01*
X45085Y59944D01*
X44577D01*
X44323Y60198D01*
X45847Y59944D02*
X46354D01*
X46100D01*
Y60960D01*
X45847D01*
X47624Y59436D02*
X47878D01*
X48132Y59690D01*
Y60960D01*
X47370D01*
X47116Y60706D01*
Y60198D01*
X47370Y59944D01*
X48132D01*
X48640D02*
Y60960D01*
X49401D01*
X49655Y60706D01*
Y59944D01*
X50417Y60960D02*
X50925D01*
X51179Y60706D01*
Y59944D01*
X50417D01*
X50163Y60198D01*
X50417Y60452D01*
X51179D01*
X51687Y59944D02*
X52194D01*
X51941D01*
Y61467D01*
X51687D01*
X44323Y56158D02*
Y54635D01*
X45339D01*
X46608D02*
X46100D01*
X45847Y54889D01*
Y55396D01*
X46100Y55650D01*
X46608D01*
X46862Y55396D01*
Y55142D01*
X45847D01*
X47624Y54635D02*
Y55904D01*
Y55396D01*
X47370D01*
X47878D01*
X47624D01*
Y55904D01*
X47878Y56158D01*
X48894Y55904D02*
Y55650D01*
X48640D01*
X49147D01*
X48894D01*
Y54889D01*
X49147Y54635D01*
X45339Y53466D02*
X45085Y53720D01*
X44577D01*
X44323Y53466D01*
Y53213D01*
X44577Y52959D01*
X45085D01*
X45339Y52705D01*
Y52451D01*
X45085Y52197D01*
X44577D01*
X44323Y52451D01*
X45847Y52197D02*
X46354D01*
X46100D01*
Y53213D01*
X45847D01*
X47624Y51689D02*
X47878D01*
X48132Y51943D01*
Y53213D01*
X47370D01*
X47116Y52959D01*
Y52451D01*
X47370Y52197D01*
X48132D01*
X48640D02*
Y53213D01*
X49401D01*
X49655Y52959D01*
Y52197D01*
X50417Y53213D02*
X50925D01*
X51179Y52959D01*
Y52197D01*
X50417D01*
X50163Y52451D01*
X50417Y52705D01*
X51179D01*
X51687Y52197D02*
X52194D01*
X51941D01*
Y53720D01*
X51687D01*
X44323Y39013D02*
Y37489D01*
Y38251D01*
X45339D01*
Y39013D01*
Y37489D01*
X46608D02*
X46100D01*
X45847Y37743D01*
Y38251D01*
X46100Y38505D01*
X46608D01*
X46862Y38251D01*
Y37997D01*
X45847D01*
X47624Y38505D02*
X48132D01*
X48386Y38251D01*
Y37489D01*
X47624D01*
X47370Y37743D01*
X47624Y37997D01*
X48386D01*
X49909Y39013D02*
Y37489D01*
X49147D01*
X48894Y37743D01*
Y38251D01*
X49147Y38505D01*
X49909D01*
X50417Y37489D02*
X50925D01*
X50671D01*
Y39013D01*
X50417D01*
X51687Y37489D02*
X52194D01*
X51941D01*
Y38505D01*
X51687D01*
X53464Y36982D02*
X53718D01*
X53972Y37236D01*
Y38505D01*
X53210D01*
X52956Y38251D01*
Y37743D01*
X53210Y37489D01*
X53972D01*
X54480Y39013D02*
Y37489D01*
Y38251D01*
X54734Y38505D01*
X55241D01*
X55495Y38251D01*
Y37489D01*
X56257Y38759D02*
Y38505D01*
X56003D01*
X56511D01*
X56257D01*
Y37743D01*
X56511Y37489D01*
X57273D02*
X58035D01*
X58288Y37743D01*
X58035Y37997D01*
X57527D01*
X57273Y38251D01*
X57527Y38505D01*
X58288D01*
X44323Y36067D02*
Y34544D01*
Y35306D01*
X45339D01*
Y36067D01*
Y34544D01*
X45847D02*
X46354D01*
X46100D01*
Y35560D01*
X45847D01*
X47624Y34036D02*
X47878D01*
X48132Y34290D01*
Y35560D01*
X47370D01*
X47116Y35306D01*
Y34798D01*
X47370Y34544D01*
X48132D01*
X48640Y36067D02*
Y34544D01*
Y35306D01*
X48894Y35560D01*
X49401D01*
X49655Y35306D01*
Y34544D01*
X44323Y30631D02*
Y29108D01*
Y29869D01*
X45339D01*
Y30631D01*
Y29108D01*
X46608D02*
X46100D01*
X45847Y29362D01*
Y29869D01*
X46100Y30123D01*
X46608D01*
X46862Y29869D01*
Y29615D01*
X45847D01*
X47624Y30123D02*
X48132D01*
X48386Y29869D01*
Y29108D01*
X47624D01*
X47370Y29362D01*
X47624Y29615D01*
X48386D01*
X49909Y30631D02*
Y29108D01*
X49147D01*
X48894Y29362D01*
Y29869D01*
X49147Y30123D01*
X49909D01*
X50417Y29108D02*
X50925D01*
X50671D01*
Y30631D01*
X50417D01*
X51687Y29108D02*
X52194D01*
X51941D01*
Y30123D01*
X51687D01*
X53464Y28600D02*
X53718D01*
X53972Y28854D01*
Y30123D01*
X53210D01*
X52956Y29869D01*
Y29362D01*
X53210Y29108D01*
X53972D01*
X54480Y30631D02*
Y29108D01*
Y29869D01*
X54734Y30123D01*
X55241D01*
X55495Y29869D01*
Y29108D01*
X56257Y30377D02*
Y30123D01*
X56003D01*
X56511D01*
X56257D01*
Y29362D01*
X56511Y29108D01*
X57273D02*
X58035D01*
X58288Y29362D01*
X58035Y29615D01*
X57527D01*
X57273Y29869D01*
X57527Y30123D01*
X58288D01*
X44323Y27686D02*
Y26162D01*
X45339D01*
X46100D02*
X46608D01*
X46862Y26416D01*
Y26924D01*
X46608Y27178D01*
X46100D01*
X45847Y26924D01*
Y26416D01*
X46100Y26162D01*
X47370Y27178D02*
Y26416D01*
X47624Y26162D01*
X47878Y26416D01*
X48132Y26162D01*
X48386Y26416D01*
Y27178D01*
X45339Y22376D02*
X44323D01*
Y20853D01*
X45339D01*
X44323Y21614D02*
X44831D01*
X45847Y20853D02*
Y21868D01*
X46100D01*
X46354Y21614D01*
Y20853D01*
Y21614D01*
X46608Y21868D01*
X46862Y21614D01*
Y20853D01*
X48132D02*
X47624D01*
X47370Y21107D01*
Y21614D01*
X47624Y21868D01*
X48132D01*
X48386Y21614D01*
Y21360D01*
X47370D01*
X48894Y21868D02*
Y20853D01*
Y21360D01*
X49147Y21614D01*
X49401Y21868D01*
X49655D01*
X50925Y20345D02*
X51179D01*
X51433Y20599D01*
Y21868D01*
X50671D01*
X50417Y21614D01*
Y21107D01*
X50671Y20853D01*
X51433D01*
X52702D02*
X52194D01*
X51941Y21107D01*
Y21614D01*
X52194Y21868D01*
X52702D01*
X52956Y21614D01*
Y21360D01*
X51941D01*
X53464Y20853D02*
Y21868D01*
X54226D01*
X54480Y21614D01*
Y20853D01*
X56003Y21868D02*
X55241D01*
X54988Y21614D01*
Y21107D01*
X55241Y20853D01*
X56003D01*
X56511Y21868D02*
Y21107D01*
X56765Y20853D01*
X57527D01*
Y20599D01*
X57273Y20345D01*
X57019D01*
X57527Y20853D02*
Y21868D01*
X45339Y19177D02*
X45085Y19431D01*
X44577D01*
X44323Y19177D01*
Y18923D01*
X44577Y18669D01*
X45085D01*
X45339Y18415D01*
Y18161D01*
X45085Y17907D01*
X44577D01*
X44323Y18161D01*
X46100Y19177D02*
Y18923D01*
X45847D01*
X46354D01*
X46100D01*
Y18161D01*
X46354Y17907D01*
X47116Y18923D02*
Y17907D01*
Y18415D01*
X47370Y18669D01*
X47624Y18923D01*
X47878D01*
X48894Y17907D02*
X49401D01*
X49655Y18161D01*
Y18669D01*
X49401Y18923D01*
X48894D01*
X48640Y18669D01*
Y18161D01*
X48894Y17907D01*
X50163Y19431D02*
Y17907D01*
X50925D01*
X51179Y18161D01*
Y18415D01*
Y18669D01*
X50925Y18923D01*
X50163D01*
X52448Y17907D02*
X51941D01*
X51687Y18161D01*
Y18669D01*
X51941Y18923D01*
X52448D01*
X52702Y18669D01*
Y18415D01*
X51687D01*
X28567Y15398D02*
Y13875D01*
X29582D01*
X30090D02*
X30598D01*
X30344D01*
Y14890D01*
X30090D01*
X31868Y13367D02*
X32122D01*
X32375Y13621D01*
Y14890D01*
X31614D01*
X31360Y14636D01*
Y14129D01*
X31614Y13875D01*
X32375D01*
X32883Y15398D02*
Y13875D01*
Y14636D01*
X33137Y14890D01*
X33645D01*
X33899Y14636D01*
Y13875D01*
X34661Y15144D02*
Y14890D01*
X34407D01*
X34915D01*
X34661D01*
Y14129D01*
X34915Y13875D01*
X35676D02*
X36438D01*
X36692Y14129D01*
X36438Y14382D01*
X35930D01*
X35676Y14636D01*
X35930Y14890D01*
X36692D01*
X39739Y15144D02*
X39485Y15398D01*
X38977D01*
X38723Y15144D01*
Y14129D01*
X38977Y13875D01*
X39485D01*
X39739Y14129D01*
X40501Y13875D02*
X41009D01*
X41263Y14129D01*
Y14636D01*
X41009Y14890D01*
X40501D01*
X40247Y14636D01*
Y14129D01*
X40501Y13875D01*
X41770D02*
Y14890D01*
X42532D01*
X42786Y14636D01*
Y13875D01*
X43548Y15144D02*
Y14890D01*
X43294D01*
X43802D01*
X43548D01*
Y14129D01*
X43802Y13875D01*
X44563Y14890D02*
Y13875D01*
Y14382D01*
X44817Y14636D01*
X45071Y14890D01*
X45325D01*
X46341Y13875D02*
X46849D01*
X47103Y14129D01*
Y14636D01*
X46849Y14890D01*
X46341D01*
X46087Y14636D01*
Y14129D01*
X46341Y13875D01*
X47611D02*
X48118D01*
X47864D01*
Y15398D01*
X47611D01*
X48880Y13875D02*
X49388D01*
X49134D01*
Y15398D01*
X48880D01*
X50911Y13875D02*
X50404D01*
X50150Y14129D01*
Y14636D01*
X50404Y14890D01*
X50911D01*
X51165Y14636D01*
Y14382D01*
X50150D01*
X51673Y14890D02*
Y13875D01*
Y14382D01*
X51927Y14636D01*
X52181Y14890D01*
X52435D01*
X54720D02*
X55228Y13875D01*
X55736Y14890D01*
X57259Y13875D02*
X56244D01*
X57259Y14890D01*
Y15144D01*
X57005Y15398D01*
X56498D01*
X56244Y15144D01*
X28567Y12452D02*
Y10929D01*
X29582D01*
X30344D02*
X30852D01*
X31106Y11183D01*
Y11691D01*
X30852Y11945D01*
X30344D01*
X30090Y11691D01*
Y11183D01*
X30344Y10929D01*
X32122Y10421D02*
X32375D01*
X32629Y10675D01*
Y11945D01*
X31868D01*
X31614Y11691D01*
Y11183D01*
X31868Y10929D01*
X32629D01*
X33391Y11945D02*
X33899D01*
X34153Y11691D01*
Y10929D01*
X33391D01*
X33137Y11183D01*
X33391Y11437D01*
X34153D01*
X34661Y10929D02*
Y11945D01*
X35422D01*
X35676Y11691D01*
Y10929D01*
X37708Y12452D02*
Y10929D01*
Y11691D01*
X38723D01*
Y12452D01*
Y10929D01*
X39231Y11945D02*
Y11183D01*
X39485Y10929D01*
X40247D01*
Y11945D01*
X40755Y10929D02*
Y11945D01*
X41516D01*
X41770Y11691D01*
Y10929D01*
X42532Y12199D02*
Y11945D01*
X42278D01*
X42786D01*
X42532D01*
Y11183D01*
X42786Y10929D01*
X44310D02*
X43802D01*
X43548Y11183D01*
Y11691D01*
X43802Y11945D01*
X44310D01*
X44564Y11691D01*
Y11437D01*
X43548D01*
X45071Y11945D02*
Y10929D01*
Y11437D01*
X45325Y11691D01*
X45579Y11945D01*
X45833D01*
X61699Y14585D02*
X62714Y13061D01*
Y14585D02*
X61699Y13061D01*
X63222D02*
X63730D01*
X63476D01*
Y14585D01*
X63222Y14331D01*
X56272Y33002D02*
Y31732D01*
X56526Y31478D01*
X57034D01*
X57287Y31732D01*
Y33002D01*
X57795Y31478D02*
X58303D01*
X58049D01*
Y33002D01*
X57795Y32748D01*
X79226Y31791D02*
X78972Y32045D01*
X78464D01*
X78211Y31791D01*
Y31537D01*
X78464Y31283D01*
X78972D01*
X79226Y31029D01*
Y30775D01*
X78972Y30522D01*
X78464D01*
X78211Y30775D01*
X79734Y32045D02*
Y30522D01*
X80242Y31029D01*
X80750Y30522D01*
Y32045D01*
X81258Y30522D02*
X81765D01*
X81511D01*
Y32045D01*
X81258Y31791D01*
X81287Y27725D02*
Y29249D01*
X82049D01*
X82302Y28995D01*
Y28487D01*
X82049Y28233D01*
X81287D01*
X81795D02*
X82302Y27725D01*
X83572D02*
Y29249D01*
X82810Y28487D01*
X83826D01*
X81199Y25313D02*
Y26837D01*
X81961D01*
X82215Y26583D01*
Y26075D01*
X81961Y25821D01*
X81199D01*
X81707D02*
X82215Y25313D01*
X82723Y26583D02*
X82977Y26837D01*
X83485D01*
X83738Y26583D01*
Y26329D01*
X83485Y26075D01*
X83231D01*
X83485D01*
X83738Y25821D01*
Y25567D01*
X83485Y25313D01*
X82977D01*
X82723Y25567D01*
X81145Y23157D02*
Y24681D01*
X81907D01*
X82160Y24427D01*
Y23919D01*
X81907Y23665D01*
X81145D01*
X81653D02*
X82160Y23157D01*
X83684D02*
X82668D01*
X83684Y24173D01*
Y24427D01*
X83430Y24681D01*
X82922D01*
X82668Y24427D01*
X75228Y20084D02*
Y18561D01*
X75990D01*
X76244Y18815D01*
Y19830D01*
X75990Y20084D01*
X75228D01*
X77513Y18561D02*
Y20084D01*
X76751Y19323D01*
X77767D01*
X58711Y41325D02*
X58457Y41579D01*
X57949D01*
X57695Y41325D01*
Y40309D01*
X57949Y40055D01*
X58457D01*
X58711Y40309D01*
X60234Y41579D02*
X59219D01*
Y40817D01*
X59727Y41071D01*
X59980D01*
X60234Y40817D01*
Y40309D01*
X59980Y40055D01*
X59473D01*
X59219Y40309D01*
X78884Y37575D02*
X78630Y37829D01*
X78122D01*
X77868Y37575D01*
Y36560D01*
X78122Y36306D01*
X78630D01*
X78884Y36560D01*
X80153Y36306D02*
Y37829D01*
X79391Y37067D01*
X80407D01*
X81559Y40899D02*
X81305Y41153D01*
X80797D01*
X80543Y40899D01*
Y39884D01*
X80797Y39630D01*
X81305D01*
X81559Y39884D01*
X82067Y40899D02*
X82321Y41153D01*
X82829D01*
X83083Y40899D01*
Y40645D01*
X82829Y40391D01*
X82575D01*
X82829D01*
X83083Y40137D01*
Y39884D01*
X82829Y39630D01*
X82321D01*
X82067Y39884D01*
X75597Y14603D02*
X75343Y14857D01*
X74835D01*
X74581Y14603D01*
Y13588D01*
X74835Y13334D01*
X75343D01*
X75597Y13588D01*
X77120Y13334D02*
X76104D01*
X77120Y14349D01*
Y14603D01*
X76866Y14857D01*
X76358D01*
X76104Y14603D01*
X54240Y24290D02*
X53986Y24544D01*
X53478D01*
X53224Y24290D01*
Y23274D01*
X53478Y23020D01*
X53986D01*
X54240Y23274D01*
X54748Y23020D02*
X55256D01*
X55002D01*
Y24544D01*
X54748Y24290D01*
X58433Y56283D02*
Y54759D01*
X59195D01*
X59449Y55013D01*
Y56029D01*
X59195Y56283D01*
X58433D01*
X59957Y54759D02*
X60465D01*
X60211D01*
Y56283D01*
X59957Y56029D01*
X70882Y49088D02*
Y47565D01*
X71644D01*
X71898Y47819D01*
Y48835D01*
X71644Y49088D01*
X70882D01*
X72406Y48835D02*
X72660Y49088D01*
X73167D01*
X73421Y48835D01*
Y48581D01*
X73167Y48327D01*
X72914D01*
X73167D01*
X73421Y48073D01*
Y47819D01*
X73167Y47565D01*
X72660D01*
X72406Y47819D01*
X51124Y71618D02*
Y70094D01*
X51886D01*
X52140Y70348D01*
Y71364D01*
X51886Y71618D01*
X51124D01*
X53663D02*
X52648D01*
Y70856D01*
X53156Y71110D01*
X53409D01*
X53663Y70856D01*
Y70348D01*
X53409Y70094D01*
X52902D01*
X52648Y70348D01*
X74948Y77333D02*
Y78856D01*
X75710D01*
X75963Y78602D01*
Y78095D01*
X75710Y77841D01*
X74948D01*
X76471Y77333D02*
X76979D01*
X76725D01*
Y78856D01*
X76471Y78602D01*
X56144Y80220D02*
Y81744D01*
X56905D01*
X57159Y81490D01*
Y80982D01*
X56905Y80728D01*
X56144D01*
X58683Y80220D02*
X57667D01*
X58683Y81236D01*
Y81490D01*
X58429Y81744D01*
X57921D01*
X57667Y81490D01*
X44323Y73914D02*
Y75438D01*
X45085D01*
X45339Y75184D01*
Y74676D01*
X45085Y74422D01*
X44323D01*
X45847Y75184D02*
X46100Y75438D01*
X46608D01*
X46862Y75184D01*
Y74930D01*
X46608Y74676D01*
X46354D01*
X46608D01*
X46862Y74422D01*
Y74168D01*
X46608Y73914D01*
X46100D01*
X45847Y74168D01*
X44323Y65109D02*
Y66632D01*
X45085D01*
X45339Y66378D01*
Y65870D01*
X45085Y65616D01*
X44323D01*
X46608Y65109D02*
Y66632D01*
X45847Y65870D01*
X46862D01*
X44323Y57065D02*
Y58589D01*
X45085D01*
X45339Y58335D01*
Y57827D01*
X45085Y57573D01*
X44323D01*
X46862Y58589D02*
X45847D01*
Y57827D01*
X46354Y58081D01*
X46608D01*
X46862Y57827D01*
Y57319D01*
X46608Y57065D01*
X46100D01*
X45847Y57319D01*
X44323Y48387D02*
Y49910D01*
X45085D01*
X45339Y49657D01*
Y49149D01*
X45085Y48895D01*
X44323D01*
X46862Y49910D02*
X46354Y49657D01*
X45847Y49149D01*
Y48641D01*
X46100Y48387D01*
X46608D01*
X46862Y48641D01*
Y48895D01*
X46608Y49149D01*
X45847D01*
X44323Y39836D02*
Y41359D01*
X45085D01*
X45339Y41105D01*
Y40597D01*
X45085Y40343D01*
X44323D01*
X45847Y41359D02*
X46862D01*
Y41105D01*
X45847Y40090D01*
Y39836D01*
X44323Y31538D02*
Y33062D01*
X45085D01*
X45339Y32808D01*
Y32300D01*
X45085Y32046D01*
X44323D01*
X45847Y32808D02*
X46100Y33062D01*
X46608D01*
X46862Y32808D01*
Y32554D01*
X46608Y32300D01*
X46862Y32046D01*
Y31792D01*
X46608Y31538D01*
X46100D01*
X45847Y31792D01*
Y32046D01*
X46100Y32300D01*
X45847Y32554D01*
Y32808D01*
X46100Y32300D02*
X46608D01*
X44323Y22987D02*
Y24511D01*
X45085D01*
X45339Y24257D01*
Y23749D01*
X45085Y23495D01*
X44323D01*
X45847Y23241D02*
X46100Y22987D01*
X46608D01*
X46862Y23241D01*
Y24257D01*
X46608Y24511D01*
X46100D01*
X45847Y24257D01*
Y24003D01*
X46100Y23749D01*
X46862D01*
X70969Y44302D02*
Y45825D01*
X71730D01*
X71984Y45571D01*
Y45063D01*
X71730Y44809D01*
X70969D01*
X71476D02*
X71984Y44302D01*
X73508Y45825D02*
X72492D01*
Y45063D01*
X73000Y45317D01*
X73254D01*
X73508Y45063D01*
Y44555D01*
X73254Y44302D01*
X72746D01*
X72492Y44555D01*
X54086Y56653D02*
Y55383D01*
X54340Y55129D01*
X54848D01*
X55102Y55383D01*
Y56653D01*
X56625Y55129D02*
X55610D01*
X56625Y56145D01*
Y56399D01*
X56371Y56653D01*
X55863D01*
X55610Y56399D01*
X65029Y55742D02*
Y54472D01*
X65282Y54218D01*
X65790D01*
X66044Y54472D01*
Y55742D01*
X67314Y54218D02*
Y55742D01*
X66552Y54980D01*
X67568D01*
X61581Y55953D02*
Y54683D01*
X61835Y54429D01*
X62343D01*
X62597Y54683D01*
Y55953D01*
X63104Y55699D02*
X63358Y55953D01*
X63866D01*
X64120Y55699D01*
Y55445D01*
X63866Y55191D01*
X63612D01*
X63866D01*
X64120Y54937D01*
Y54683D01*
X63866Y54429D01*
X63358D01*
X63104Y54683D01*
X44323Y72009D02*
Y73533D01*
X45085D01*
X45339Y73279D01*
Y72771D01*
X45085Y72517D01*
X44323D01*
X46100Y72009D02*
X46608D01*
X46862Y72263D01*
Y72771D01*
X46608Y73025D01*
X46100D01*
X45847Y72771D01*
Y72263D01*
X46100Y72009D01*
X47370Y73025D02*
Y72263D01*
X47624Y72009D01*
X47878Y72263D01*
X48132Y72009D01*
X48386Y72263D01*
Y73025D01*
X49655Y72009D02*
X49147D01*
X48894Y72263D01*
Y72771D01*
X49147Y73025D01*
X49655D01*
X49909Y72771D01*
Y72517D01*
X48894D01*
X50417Y73025D02*
Y72009D01*
Y72517D01*
X50671Y72771D01*
X50925Y73025D01*
X51179D01*
X44196Y47625D02*
Y46101D01*
X44958D01*
X45212Y46355D01*
Y46609D01*
X44958Y46863D01*
X44196D01*
X44958D01*
X45212Y47117D01*
Y47371D01*
X44958Y47625D01*
X44196D01*
X45720Y47117D02*
Y46101D01*
Y46609D01*
X45973Y46863D01*
X46227Y47117D01*
X46481D01*
X47497D02*
X48005D01*
X48259Y46863D01*
Y46101D01*
X47497D01*
X47243Y46355D01*
X47497Y46609D01*
X48259D01*
X48767Y46101D02*
Y47625D01*
Y46609D02*
X49528Y47117D01*
X48767Y46609D02*
X49528Y46101D01*
X51052D02*
X50544D01*
X50290Y46355D01*
Y46863D01*
X50544Y47117D01*
X51052D01*
X51306Y46863D01*
Y46609D01*
X50290D01*
D34*
X61756Y22088D02*
G03*
X61756Y22088I-125J0D01*
G01*
D35*
X63481Y24538D02*
G03*
X63481Y24538I-300J0D01*
G01*
D36*
X62181Y23538D02*
X74481D01*
X62181Y35838D02*
X74481D01*
X62181Y23538D02*
Y35838D01*
X74481Y23538D02*
Y35838D01*
D37*
X69262Y47907D02*
X69706Y47463D01*
X70151Y47907D01*
X69262Y47463D02*
X70151D01*
X69262Y47971D02*
X70151D01*
D38*
X50471Y69219D02*
D03*
D39*
X60172Y51971D02*
D03*
M02*
