G04 Layer_Color=8388736*
%FSLAX43Y43*%
%MOMM*%
G71*
G01*
G75*
%ADD40R,1.003X0.703*%
%ADD41R,1.903X1.003*%
%ADD42R,0.703X1.003*%
%ADD43O,0.503X2.303*%
%ADD44O,2.303X0.503*%
%ADD45R,1.103X1.403*%
%ADD46R,2.743X2.870*%
%ADD47R,1.473X0.965*%
%ADD48R,2.870X2.743*%
%ADD49R,0.965X1.473*%
%ADD50C,2.203*%
%ADD51C,4.013*%
%ADD52C,1.854*%
%ADD53C,2.743*%
%ADD54C,1.903*%
%ADD55C,3.703*%
%ADD56O,1.219X1.727*%
%ADD57C,0.838*%
D40*
X56990Y23693D02*
D03*
Y25193D02*
D03*
X76111Y17489D02*
D03*
Y15989D02*
D03*
X79474Y35193D02*
D03*
Y33693D02*
D03*
X69723Y48464D02*
D03*
Y46964D02*
D03*
Y45338D02*
D03*
Y43838D02*
D03*
D41*
X82495Y33315D02*
D03*
Y36715D02*
D03*
D42*
X77923Y40319D02*
D03*
X79423D02*
D03*
X63329Y39765D02*
D03*
X61829D02*
D03*
X80157Y23757D02*
D03*
X78657D02*
D03*
X80157Y28598D02*
D03*
X78657D02*
D03*
X80157Y26177D02*
D03*
X78657D02*
D03*
D43*
X62331Y22088D02*
D03*
X62831D02*
D03*
X63331D02*
D03*
X63831D02*
D03*
X64331D02*
D03*
X64831D02*
D03*
X65331D02*
D03*
X65831D02*
D03*
X66331D02*
D03*
X66831D02*
D03*
X67331D02*
D03*
X67831D02*
D03*
X68331D02*
D03*
X68831D02*
D03*
X69331D02*
D03*
X69831D02*
D03*
X70331D02*
D03*
X70831D02*
D03*
X71331D02*
D03*
X71831D02*
D03*
X72331D02*
D03*
X72831D02*
D03*
X73331D02*
D03*
X73831D02*
D03*
X74331D02*
D03*
Y37288D02*
D03*
X73831D02*
D03*
X73331D02*
D03*
X72831D02*
D03*
X72331D02*
D03*
X71831D02*
D03*
X71331D02*
D03*
X70831D02*
D03*
X70331D02*
D03*
X69831D02*
D03*
X69331D02*
D03*
X68831D02*
D03*
X68331D02*
D03*
X67831D02*
D03*
X67331D02*
D03*
X66831D02*
D03*
X66331D02*
D03*
X65831D02*
D03*
X65331D02*
D03*
X64831D02*
D03*
X64331D02*
D03*
X63831D02*
D03*
X63331D02*
D03*
X62831D02*
D03*
X62331D02*
D03*
D44*
X75931Y23688D02*
D03*
Y24188D02*
D03*
Y24688D02*
D03*
Y25188D02*
D03*
Y25688D02*
D03*
Y26188D02*
D03*
Y26688D02*
D03*
Y27188D02*
D03*
Y27688D02*
D03*
Y28188D02*
D03*
Y28688D02*
D03*
Y29188D02*
D03*
Y29688D02*
D03*
Y30188D02*
D03*
Y30688D02*
D03*
Y31188D02*
D03*
Y31688D02*
D03*
Y32188D02*
D03*
Y32688D02*
D03*
Y33188D02*
D03*
Y33688D02*
D03*
Y34188D02*
D03*
Y34688D02*
D03*
Y35188D02*
D03*
Y35688D02*
D03*
X60731D02*
D03*
Y35188D02*
D03*
Y34688D02*
D03*
Y34188D02*
D03*
Y33688D02*
D03*
Y33188D02*
D03*
Y32688D02*
D03*
Y32188D02*
D03*
Y31688D02*
D03*
Y31188D02*
D03*
Y30688D02*
D03*
Y30188D02*
D03*
Y29688D02*
D03*
Y29188D02*
D03*
Y28688D02*
D03*
Y28188D02*
D03*
Y27688D02*
D03*
Y27188D02*
D03*
Y26688D02*
D03*
Y26188D02*
D03*
Y25688D02*
D03*
Y25188D02*
D03*
Y24688D02*
D03*
Y24188D02*
D03*
Y23688D02*
D03*
D45*
X80780Y20646D02*
D03*
Y17846D02*
D03*
X79330Y20646D02*
D03*
Y17846D02*
D03*
D46*
X50535Y67441D02*
D03*
D47*
Y65092D02*
D03*
D48*
X58394Y51908D02*
D03*
D49*
X56045D02*
D03*
D50*
X65642Y17375D02*
D03*
X70522D02*
D03*
X62976Y48468D02*
D03*
Y51008D02*
D03*
Y45928D02*
D03*
Y43388D02*
D03*
X56047Y60337D02*
D03*
Y62877D02*
D03*
Y65417D02*
D03*
D51*
X81004Y13539D02*
D03*
X24190Y13532D02*
D03*
X81004Y79978D02*
D03*
X24190Y79971D02*
D03*
X28321Y72136D02*
D03*
Y63585D02*
D03*
Y55033D02*
D03*
Y46482D02*
D03*
Y37931D02*
D03*
Y29379D02*
D03*
Y20828D02*
D03*
D52*
X80096Y70963D02*
D03*
X77556D02*
D03*
Y68423D02*
D03*
X80096D02*
D03*
Y63343D02*
D03*
X77556D02*
D03*
Y65883D02*
D03*
X80096D02*
D03*
Y55723D02*
D03*
X77556D02*
D03*
Y53183D02*
D03*
X80096D02*
D03*
Y58263D02*
D03*
X77556D02*
D03*
Y60803D02*
D03*
X80096D02*
D03*
Y48103D02*
D03*
X77556D02*
D03*
Y50643D02*
D03*
X80096D02*
D03*
D53*
X35611Y72136D02*
D03*
X41123D02*
D03*
X35611Y63585D02*
D03*
X41123D02*
D03*
X35611Y55033D02*
D03*
X41123D02*
D03*
X35611Y46482D02*
D03*
X41123D02*
D03*
X35611Y37931D02*
D03*
X41123D02*
D03*
X35611Y29379D02*
D03*
X41123D02*
D03*
X35611Y20828D02*
D03*
X41123D02*
D03*
D54*
X63176Y70561D02*
D03*
X66176D02*
D03*
X69176D02*
D03*
Y73561D02*
D03*
X63176D02*
D03*
X66176D02*
D03*
D55*
Y77881D02*
D03*
D56*
X71447Y65313D02*
D03*
X63827D02*
D03*
X71447Y57439D02*
D03*
X63827D02*
D03*
X68907D02*
D03*
X66367D02*
D03*
Y65313D02*
D03*
X68907D02*
D03*
D57*
X49066Y62419D02*
D03*
Y58215D02*
D03*
Y49392D02*
D03*
Y41428D02*
D03*
Y33020D02*
D03*
Y25529D02*
D03*
Y16233D02*
D03*
X70040Y28616D02*
D03*
Y29946D02*
D03*
Y31276D02*
D03*
X67616Y28616D02*
D03*
Y29946D02*
D03*
Y31276D02*
D03*
X68990Y40462D02*
D03*
X69484Y39502D02*
D03*
X82495Y47231D02*
D03*
X56990Y22594D02*
D03*
X68831Y23775D02*
D03*
X62491Y29188D02*
D03*
X62818Y34878D02*
D03*
X74857Y52554D02*
D03*
X68496Y41423D02*
D03*
X53478Y24295D02*
D03*
X54082Y31230D02*
D03*
X52407Y34447D02*
D03*
X52136Y42464D02*
D03*
X52220Y50571D02*
D03*
X54325Y50367D02*
D03*
M02*
