G04 Layer_Physical_Order=2*
G04 Layer_Color=16711680*
%FSLAX43Y43*%
%MOMM*%
G71*
G01*
G75*
%ADD10R,0.800X0.500*%
%ADD12R,0.500X0.800*%
%ADD16R,2.540X2.667*%
%ADD17R,1.270X0.762*%
%ADD20C,0.254*%
%ADD21C,0.635*%
%ADD22C,0.508*%
%ADD23C,2.000*%
%ADD24C,3.810*%
%ADD25C,1.651*%
%ADD26C,2.540*%
%ADD27C,1.700*%
%ADD28C,3.500*%
%ADD29O,1.016X1.524*%
%ADD30C,0.635*%
%ADD31R,0.800X0.800*%
%ADD32R,1.250X0.650*%
%ADD33C,0.381*%
G36*
X83998Y10101D02*
X21021D01*
Y83078D01*
X83998D01*
Y10101D01*
D02*
G37*
%LPC*%
G36*
X51215Y37930D02*
X50688D01*
Y37553D01*
X51215D01*
Y37930D01*
D02*
G37*
G36*
X47180Y42031D02*
X46428D01*
Y41579D01*
X47180D01*
Y42031D01*
D02*
G37*
G36*
X51215Y37299D02*
X50688D01*
Y36922D01*
X51215D01*
Y37299D01*
D02*
G37*
G36*
X50434Y37930D02*
X49907D01*
Y37553D01*
X50434D01*
Y37930D01*
D02*
G37*
G36*
X64224Y45801D02*
X62976D01*
X61728D01*
X61754Y45601D01*
X61880Y45296D01*
X62081Y45034D01*
X62343Y44833D01*
X62648Y44706D01*
X62907Y44672D01*
X62918Y44671D01*
Y44543D01*
X62907Y44541D01*
X62675Y44511D01*
X62394Y44395D01*
X62154Y44210D01*
X61969Y43969D01*
X61853Y43689D01*
X61813Y43388D01*
X61853Y43087D01*
X61969Y42807D01*
X62154Y42566D01*
X62394Y42381D01*
X62675Y42265D01*
X62976Y42226D01*
X63276Y42265D01*
X63557Y42381D01*
X63798Y42566D01*
X63982Y42807D01*
X64098Y43087D01*
X64138Y43388D01*
X64098Y43689D01*
X63982Y43969D01*
X63798Y44210D01*
X63557Y44395D01*
X63276Y44511D01*
X63044Y44541D01*
X63034Y44543D01*
Y44671D01*
X63044Y44672D01*
X63303Y44706D01*
X63608Y44833D01*
X63870Y45034D01*
X64071Y45296D01*
X64197Y45601D01*
X64224Y45801D01*
D02*
G37*
G36*
X48186Y42737D02*
X47434D01*
Y42285D01*
X48186D01*
Y42737D01*
D02*
G37*
G36*
Y42031D02*
X47434D01*
Y41579D01*
X48186D01*
Y42031D01*
D02*
G37*
G36*
X35611Y47917D02*
X35239Y47868D01*
X34893Y47724D01*
X34596Y47496D01*
X34368Y47199D01*
X34225Y46853D01*
X34176Y46482D01*
X34225Y46111D01*
X34368Y45765D01*
X34596Y45468D01*
X34893Y45240D01*
X35239Y45096D01*
X35611Y45047D01*
X35982Y45096D01*
X36220Y45195D01*
X38646Y42769D01*
X38802Y42665D01*
X38985Y42629D01*
X45957D01*
X45966Y42631D01*
X46428D01*
Y42285D01*
X47180D01*
Y42737D01*
X46734D01*
Y43581D01*
X48084D01*
Y43773D01*
X50009D01*
Y43656D01*
X50561D01*
X51673Y42544D01*
X51657Y42464D01*
X51694Y42281D01*
X51798Y42125D01*
X51953Y42021D01*
X52136Y41985D01*
X52320Y42021D01*
X52475Y42125D01*
X52579Y42281D01*
X52616Y42464D01*
X52579Y42647D01*
X52475Y42803D01*
X52320Y42907D01*
X52136Y42943D01*
X52089Y42934D01*
X51114Y43909D01*
Y44461D01*
X50009D01*
Y44343D01*
X48084D01*
Y44535D01*
X46530D01*
Y43585D01*
X45966D01*
X45957Y43587D01*
X39183D01*
X36898Y45872D01*
X36997Y46111D01*
X37045Y46482D01*
X36997Y46853D01*
X36853Y47199D01*
X36625Y47496D01*
X36328Y47724D01*
X35982Y47868D01*
X35611Y47917D01*
D02*
G37*
G36*
X48186Y33903D02*
X47434D01*
Y33451D01*
X48186D01*
Y33903D01*
D02*
G37*
G36*
X35611Y39365D02*
X35239Y39316D01*
X34893Y39173D01*
X34596Y38945D01*
X34368Y38648D01*
X34225Y38302D01*
X34176Y37931D01*
X34225Y37559D01*
X34368Y37213D01*
X34596Y36916D01*
X34893Y36688D01*
X35239Y36545D01*
X35611Y36496D01*
X35982Y36545D01*
X36220Y36644D01*
X38223Y34641D01*
X38378Y34537D01*
X38562Y34501D01*
X45957D01*
X45966Y34502D01*
X46428D01*
Y34157D01*
X47180D01*
Y34609D01*
X46734D01*
Y35452D01*
X48084D01*
Y35645D01*
X50009D01*
Y35523D01*
X50561D01*
X51838Y34246D01*
X51838Y34246D01*
X51931Y34184D01*
X52032Y34164D01*
X52069Y34108D01*
X52224Y34005D01*
X52407Y33968D01*
X52591Y34005D01*
X52746Y34108D01*
X52850Y34264D01*
X52887Y34447D01*
X52850Y34631D01*
X52746Y34786D01*
X52591Y34890D01*
X52407Y34926D01*
X52224Y34890D01*
X52090Y34800D01*
X51114Y35776D01*
Y36328D01*
X50009D01*
Y36215D01*
X48084D01*
Y36407D01*
X46530D01*
Y35457D01*
X45966D01*
X45957Y35459D01*
X38760D01*
X36898Y37321D01*
X36997Y37559D01*
X37045Y37931D01*
X36997Y38302D01*
X36853Y38648D01*
X36625Y38945D01*
X36328Y39173D01*
X35982Y39316D01*
X35611Y39365D01*
D02*
G37*
G36*
X51215Y29804D02*
X50688D01*
Y29427D01*
X51215D01*
Y29804D01*
D02*
G37*
G36*
X47180Y33903D02*
X46428D01*
Y33451D01*
X47180D01*
Y33903D01*
D02*
G37*
G36*
X41123Y39365D02*
X40751Y39316D01*
X40405Y39173D01*
X40108Y38945D01*
X39880Y38648D01*
X39737Y38302D01*
X39688Y37931D01*
X39737Y37559D01*
X39880Y37213D01*
X40108Y36916D01*
X40405Y36688D01*
X40751Y36545D01*
X41123Y36496D01*
X41494Y36545D01*
X41840Y36688D01*
X42137Y36916D01*
X42365Y37213D01*
X42508Y37559D01*
X42557Y37931D01*
X42508Y38302D01*
X42365Y38648D01*
X42137Y38945D01*
X41840Y39173D01*
X41494Y39316D01*
X41123Y39365D01*
D02*
G37*
G36*
X50434Y37299D02*
X49907D01*
Y36922D01*
X50434D01*
Y37299D01*
D02*
G37*
G36*
X48186Y34609D02*
X47434D01*
Y34157D01*
X48186D01*
Y34609D01*
D02*
G37*
G36*
X28321Y39998D02*
X27918Y39958D01*
X27530Y39841D01*
X27172Y39650D01*
X26859Y39393D01*
X26602Y39079D01*
X26411Y38722D01*
X26293Y38334D01*
X26254Y37931D01*
X26293Y37527D01*
X26411Y37140D01*
X26602Y36782D01*
X26859Y36469D01*
X27172Y36212D01*
X27530Y36021D01*
X27918Y35903D01*
X28321Y35863D01*
X28724Y35903D01*
X29112Y36021D01*
X29470Y36212D01*
X29783Y36469D01*
X30040Y36782D01*
X30231Y37140D01*
X30349Y37527D01*
X30388Y37931D01*
X30349Y38334D01*
X30231Y38722D01*
X30040Y39079D01*
X29783Y39393D01*
X29470Y39650D01*
X29112Y39841D01*
X28724Y39958D01*
X28321Y39998D01*
D02*
G37*
G36*
Y48549D02*
X27918Y48510D01*
X27530Y48392D01*
X27172Y48201D01*
X26859Y47944D01*
X26602Y47631D01*
X26411Y47273D01*
X26293Y46885D01*
X26254Y46482D01*
X26293Y46079D01*
X26411Y45691D01*
X26602Y45333D01*
X26859Y45020D01*
X27172Y44763D01*
X27530Y44572D01*
X27918Y44454D01*
X28321Y44415D01*
X28724Y44454D01*
X29112Y44572D01*
X29470Y44763D01*
X29783Y45020D01*
X30040Y45333D01*
X30231Y45691D01*
X30349Y46079D01*
X30388Y46482D01*
X30349Y46885D01*
X30231Y47273D01*
X30040Y47631D01*
X29783Y47944D01*
X29470Y48201D01*
X29112Y48392D01*
X28724Y48510D01*
X28321Y48549D01*
D02*
G37*
G36*
X35611Y56468D02*
X35239Y56419D01*
X34893Y56276D01*
X34596Y56048D01*
X34368Y55751D01*
X34225Y55405D01*
X34176Y55033D01*
X34225Y54662D01*
X34368Y54316D01*
X34596Y54019D01*
X34893Y53791D01*
X35239Y53648D01*
X35611Y53599D01*
X35982Y53648D01*
X36220Y53746D01*
X39069Y50897D01*
X39225Y50793D01*
X39408Y50757D01*
X45957D01*
X45966Y50758D01*
X46428D01*
Y50413D01*
X47180D01*
Y50865D01*
X46734D01*
Y51708D01*
X48084D01*
Y51901D01*
X49995D01*
X49995Y51901D01*
X50009Y51890D01*
Y51822D01*
X50561D01*
X51753Y50630D01*
X51741Y50571D01*
X51778Y50388D01*
X51881Y50232D01*
X52037Y50128D01*
X52220Y50092D01*
X52404Y50128D01*
X52559Y50232D01*
X52663Y50388D01*
X52699Y50571D01*
X52663Y50754D01*
X52559Y50910D01*
X52404Y51014D01*
X52220Y51050D01*
X52152Y51036D01*
X51114Y52075D01*
Y52627D01*
X50009D01*
Y52504D01*
X49925Y52488D01*
X49900Y52471D01*
X48084D01*
Y52663D01*
X46530D01*
Y51713D01*
X45966D01*
X45957Y51715D01*
X39607D01*
X36898Y54424D01*
X36997Y54662D01*
X37045Y55033D01*
X36997Y55405D01*
X36853Y55751D01*
X36625Y56048D01*
X36328Y56276D01*
X35982Y56419D01*
X35611Y56468D01*
D02*
G37*
G36*
X68907Y58359D02*
X68734Y58336D01*
X68574Y58270D01*
X68436Y58164D01*
X68330Y58026D01*
X68263Y57865D01*
X68240Y57693D01*
Y57185D01*
X68263Y57013D01*
X68330Y56852D01*
X68436Y56714D01*
X68491Y56672D01*
Y54660D01*
X64210Y50380D01*
X64103Y50452D01*
X64197Y50681D01*
X64224Y50881D01*
X62976D01*
X61728D01*
X61754Y50681D01*
X61880Y50376D01*
X62081Y50114D01*
X62343Y49913D01*
X62648Y49786D01*
X62907Y49752D01*
X62918Y49751D01*
Y49623D01*
X62907Y49621D01*
X62675Y49591D01*
X62394Y49475D01*
X62154Y49290D01*
X61969Y49049D01*
X61853Y48769D01*
X61813Y48468D01*
X61853Y48167D01*
X61969Y47887D01*
X62154Y47646D01*
X62394Y47461D01*
X62675Y47345D01*
X62907Y47315D01*
X62918Y47313D01*
Y47185D01*
X62907Y47184D01*
X62648Y47150D01*
X62343Y47023D01*
X62081Y46822D01*
X61880Y46560D01*
X61754Y46255D01*
X61728Y46055D01*
X62976D01*
X64224D01*
X64197Y46255D01*
X64071Y46560D01*
X63870Y46822D01*
X63608Y47023D01*
X63303Y47150D01*
X63044Y47184D01*
X63034Y47185D01*
Y47313D01*
X63044Y47315D01*
X63276Y47345D01*
X63557Y47461D01*
X63798Y47646D01*
X63982Y47887D01*
X64025Y47989D01*
X69577D01*
Y47138D01*
X72422D01*
Y50109D01*
X69577D01*
Y48947D01*
X64298D01*
X64250Y49064D01*
X69308Y54123D01*
X69412Y54279D01*
X69449Y54462D01*
Y56807D01*
X69483Y56852D01*
X69550Y57013D01*
X69573Y57185D01*
Y57693D01*
X69550Y57865D01*
X69483Y58026D01*
X69378Y58164D01*
X69240Y58270D01*
X69079Y58336D01*
X68907Y58359D01*
D02*
G37*
G36*
X48186Y50159D02*
X47434D01*
Y49707D01*
X48186D01*
Y50159D01*
D02*
G37*
G36*
X35611Y65019D02*
X35239Y64970D01*
X34893Y64827D01*
X34596Y64599D01*
X34368Y64302D01*
X34225Y63956D01*
X34176Y63585D01*
X34225Y63213D01*
X34368Y62867D01*
X34596Y62570D01*
X34893Y62342D01*
X35239Y62199D01*
X35611Y62150D01*
X35982Y62199D01*
X36285Y62324D01*
X39539Y59071D01*
X39673Y58981D01*
X39832Y58950D01*
X45180D01*
Y58887D01*
X46428D01*
Y58541D01*
X47180D01*
Y58993D01*
X46734D01*
Y59836D01*
X48084D01*
Y60027D01*
X50009D01*
Y59909D01*
X50561D01*
X54040Y56430D01*
Y50742D01*
X53986Y50706D01*
X53882Y50551D01*
X53846Y50367D01*
X53882Y50184D01*
X53986Y50029D01*
X54141Y49925D01*
X54325Y49888D01*
X54508Y49925D01*
X54663Y50029D01*
X54767Y50184D01*
X54804Y50367D01*
X54767Y50551D01*
X54663Y50706D01*
X54610Y50742D01*
Y56548D01*
X54588Y56657D01*
X54526Y56750D01*
X54526Y56750D01*
X51114Y60162D01*
Y60714D01*
X50009D01*
Y60597D01*
X48084D01*
Y60791D01*
X46530D01*
Y59841D01*
X45180D01*
Y59778D01*
X40003D01*
X36871Y62910D01*
X36997Y63213D01*
X37045Y63585D01*
X36997Y63956D01*
X36853Y64302D01*
X36625Y64599D01*
X36328Y64827D01*
X35982Y64970D01*
X35611Y65019D01*
D02*
G37*
G36*
X63103Y52256D02*
Y51135D01*
X64224D01*
X64197Y51335D01*
X64071Y51640D01*
X63870Y51902D01*
X63608Y52103D01*
X63303Y52230D01*
X63103Y52256D01*
D02*
G37*
G36*
X28321Y57101D02*
X27918Y57061D01*
X27530Y56943D01*
X27172Y56752D01*
X26859Y56495D01*
X26602Y56182D01*
X26411Y55824D01*
X26293Y55437D01*
X26254Y55033D01*
X26293Y54630D01*
X26411Y54242D01*
X26602Y53885D01*
X26859Y53571D01*
X27172Y53314D01*
X27530Y53123D01*
X27918Y53006D01*
X28321Y52966D01*
X28724Y53006D01*
X29112Y53123D01*
X29470Y53314D01*
X29783Y53571D01*
X30040Y53885D01*
X30231Y54242D01*
X30349Y54630D01*
X30388Y55033D01*
X30349Y55437D01*
X30231Y55824D01*
X30040Y56182D01*
X29783Y56495D01*
X29470Y56752D01*
X29112Y56943D01*
X28724Y57061D01*
X28321Y57101D01*
D02*
G37*
G36*
X48186Y50865D02*
X47434D01*
Y50413D01*
X48186D01*
Y50865D01*
D02*
G37*
G36*
X62849Y52256D02*
X62648Y52230D01*
X62343Y52103D01*
X62081Y51902D01*
X61880Y51640D01*
X61754Y51335D01*
X61728Y51135D01*
X62849D01*
Y52256D01*
D02*
G37*
G36*
X51215Y45431D02*
X50688D01*
Y45054D01*
X51215D01*
Y45431D01*
D02*
G37*
G36*
X50434Y46062D02*
X49907D01*
Y45685D01*
X50434D01*
Y46062D01*
D02*
G37*
G36*
X41123Y47917D02*
X40751Y47868D01*
X40405Y47724D01*
X40108Y47496D01*
X39880Y47199D01*
X39737Y46853D01*
X39688Y46482D01*
X39737Y46111D01*
X39880Y45765D01*
X40108Y45468D01*
X40405Y45240D01*
X40751Y45096D01*
X41123Y45047D01*
X41494Y45096D01*
X41840Y45240D01*
X42137Y45468D01*
X42365Y45765D01*
X42508Y46111D01*
X42557Y46482D01*
X42508Y46853D01*
X42365Y47199D01*
X42137Y47496D01*
X41840Y47724D01*
X41494Y47868D01*
X41123Y47917D01*
D02*
G37*
G36*
X50434Y45431D02*
X49907D01*
Y45054D01*
X50434D01*
Y45431D01*
D02*
G37*
G36*
X80096Y51629D02*
X79841Y51595D01*
X79603Y51497D01*
X79399Y51340D01*
X79242Y51136D01*
X79144Y50898D01*
X79110Y50643D01*
X79144Y50387D01*
X79242Y50149D01*
X79399Y49945D01*
X79603Y49788D01*
X79841Y49690D01*
X80096Y49656D01*
X80352Y49690D01*
X80589Y49788D01*
X80794Y49945D01*
X80950Y50149D01*
X81049Y50387D01*
X81083Y50643D01*
X81049Y50898D01*
X80950Y51136D01*
X80794Y51340D01*
X80589Y51497D01*
X80352Y51595D01*
X80096Y51629D01*
D02*
G37*
G36*
X47180Y50159D02*
X46428D01*
Y49707D01*
X47180D01*
Y50159D01*
D02*
G37*
G36*
X51215Y46062D02*
X50688D01*
Y45685D01*
X51215D01*
Y46062D01*
D02*
G37*
G36*
X78628Y50516D02*
X77683D01*
Y49571D01*
X77838Y49591D01*
X78101Y49700D01*
X78326Y49873D01*
X78499Y50098D01*
X78608Y50361D01*
X78628Y50516D01*
D02*
G37*
G36*
X63175Y16367D02*
X62648D01*
Y15990D01*
X63175D01*
Y16367D01*
D02*
G37*
G36*
X63956D02*
X63429D01*
Y15990D01*
X63956D01*
Y16367D01*
D02*
G37*
G36*
X72579Y15736D02*
X72052D01*
Y15359D01*
X72579D01*
Y15736D01*
D02*
G37*
G36*
X73360D02*
X72833D01*
Y15359D01*
X73360D01*
Y15736D01*
D02*
G37*
G36*
X70522Y18538D02*
X70222Y18498D01*
X69941Y18382D01*
X69701Y18197D01*
X69516Y17956D01*
X69400Y17676D01*
X69360Y17375D01*
X69400Y17074D01*
X69516Y16794D01*
X69701Y16553D01*
X69941Y16369D01*
X70222Y16253D01*
X70522Y16213D01*
X70823Y16253D01*
X71104Y16369D01*
X71344Y16553D01*
X71529Y16794D01*
X71645Y17074D01*
X71647Y17090D01*
X72153D01*
Y16960D01*
X73258D01*
Y17765D01*
X72153D01*
Y17660D01*
X71647D01*
X71645Y17676D01*
X71529Y17956D01*
X71344Y18197D01*
X71104Y18382D01*
X70823Y18498D01*
X70522Y18538D01*
D02*
G37*
G36*
X47180Y17647D02*
X46428D01*
Y17195D01*
X47180D01*
Y17647D01*
D02*
G37*
G36*
X72579Y16367D02*
X72052D01*
Y15990D01*
X72579D01*
Y16367D01*
D02*
G37*
G36*
X73360D02*
X72833D01*
Y15990D01*
X73360D01*
Y16367D01*
D02*
G37*
G36*
X56293Y15003D02*
X55766D01*
Y14626D01*
X56293D01*
Y15003D01*
D02*
G37*
G36*
X57074D02*
X56547D01*
Y14626D01*
X57074D01*
Y15003D01*
D02*
G37*
G36*
X24190Y16360D02*
X23748Y16325D01*
X23316Y16222D01*
X22906Y16052D01*
X22528Y15820D01*
X22191Y15532D01*
X21902Y15194D01*
X21670Y14816D01*
X21501Y14406D01*
X21397Y13974D01*
X21362Y13532D01*
X21397Y13090D01*
X21501Y12658D01*
X21670Y12248D01*
X21902Y11870D01*
X22191Y11532D01*
X22528Y11244D01*
X22906Y11012D01*
X23316Y10842D01*
X23748Y10739D01*
X24190Y10704D01*
X24633Y10739D01*
X25064Y10842D01*
X25474Y11012D01*
X25853Y11244D01*
X26190Y11532D01*
X26478Y11870D01*
X26710Y12248D01*
X26880Y12658D01*
X26984Y13090D01*
X27018Y13532D01*
X26984Y13974D01*
X26880Y14406D01*
X26710Y14816D01*
X26478Y15194D01*
X26190Y15532D01*
X25853Y15820D01*
X25474Y16052D01*
X25064Y16222D01*
X24633Y16325D01*
X24190Y16360D01*
D02*
G37*
G36*
X81004Y16368D02*
X80562Y16333D01*
X80130Y16229D01*
X79720Y16059D01*
X79342Y15827D01*
X79005Y15539D01*
X78716Y15202D01*
X78484Y14823D01*
X78315Y14413D01*
X78211Y13982D01*
X78176Y13539D01*
X78211Y13097D01*
X78315Y12665D01*
X78484Y12255D01*
X78716Y11877D01*
X79005Y11540D01*
X79342Y11251D01*
X79720Y11020D01*
X80130Y10850D01*
X80562Y10746D01*
X81004Y10711D01*
X81447Y10746D01*
X81878Y10850D01*
X82288Y11020D01*
X82667Y11251D01*
X83004Y11540D01*
X83292Y11877D01*
X83524Y12255D01*
X83694Y12665D01*
X83798Y13097D01*
X83832Y13539D01*
X83798Y13982D01*
X83694Y14413D01*
X83524Y14823D01*
X83292Y15202D01*
X83004Y15539D01*
X82667Y15827D01*
X82288Y16059D01*
X81878Y16229D01*
X81447Y16333D01*
X81004Y16368D01*
D02*
G37*
G36*
X63175Y15736D02*
X62648D01*
Y15359D01*
X63175D01*
Y15736D01*
D02*
G37*
G36*
X63956D02*
X63429D01*
Y15359D01*
X63956D01*
Y15736D01*
D02*
G37*
G36*
X56293Y15634D02*
X55766D01*
Y15257D01*
X56293D01*
Y15634D01*
D02*
G37*
G36*
X57074D02*
X56547D01*
Y15257D01*
X57074D01*
Y15634D01*
D02*
G37*
G36*
X48186Y17647D02*
X47434D01*
Y17195D01*
X48186D01*
Y17647D01*
D02*
G37*
G36*
Y26481D02*
X47434D01*
Y26029D01*
X48186D01*
Y26481D01*
D02*
G37*
G36*
X28321Y31447D02*
X27918Y31407D01*
X27530Y31289D01*
X27172Y31098D01*
X26859Y30841D01*
X26602Y30528D01*
X26411Y30170D01*
X26293Y29783D01*
X26254Y29379D01*
X26293Y28976D01*
X26411Y28588D01*
X26602Y28231D01*
X26859Y27917D01*
X27172Y27660D01*
X27530Y27469D01*
X27918Y27352D01*
X28321Y27312D01*
X28724Y27352D01*
X29112Y27469D01*
X29470Y27660D01*
X29783Y27917D01*
X30040Y28231D01*
X30231Y28588D01*
X30349Y28976D01*
X30388Y29379D01*
X30349Y29783D01*
X30231Y30170D01*
X30040Y30528D01*
X29783Y30841D01*
X29470Y31098D01*
X29112Y31289D01*
X28724Y31407D01*
X28321Y31447D01*
D02*
G37*
G36*
X47180Y25775D02*
X46428D01*
Y25323D01*
X47180D01*
Y25775D01*
D02*
G37*
G36*
X48186D02*
X47434D01*
Y25323D01*
X48186D01*
Y25775D01*
D02*
G37*
G36*
X54082Y31709D02*
X53899Y31673D01*
X53743Y31569D01*
X53639Y31413D01*
X53607Y31248D01*
X51333Y28974D01*
X51215Y29022D01*
Y29173D01*
X50688D01*
Y28796D01*
X50988D01*
X51037Y28678D01*
X50561Y28202D01*
X50009D01*
Y28087D01*
X48084D01*
Y28279D01*
X46530D01*
Y27329D01*
X45966D01*
X45957Y27331D01*
X38337D01*
X36898Y28770D01*
X36997Y29008D01*
X37045Y29379D01*
X36997Y29751D01*
X36853Y30097D01*
X36625Y30394D01*
X36328Y30622D01*
X35982Y30765D01*
X35611Y30814D01*
X35239Y30765D01*
X34893Y30622D01*
X34596Y30394D01*
X34368Y30097D01*
X34225Y29751D01*
X34176Y29379D01*
X34225Y29008D01*
X34368Y28662D01*
X34596Y28365D01*
X34893Y28137D01*
X35239Y27994D01*
X35611Y27945D01*
X35982Y27994D01*
X36220Y28092D01*
X37799Y26513D01*
X37955Y26409D01*
X38138Y26373D01*
X45957D01*
X45966Y26375D01*
X46428D01*
Y26029D01*
X47180D01*
Y26481D01*
X46734D01*
Y27324D01*
X48084D01*
Y27517D01*
X50009D01*
Y27397D01*
X51114D01*
Y27949D01*
X53943Y30778D01*
X54082Y30751D01*
X54265Y30787D01*
X54421Y30891D01*
X54525Y31047D01*
X54561Y31230D01*
X54525Y31413D01*
X54421Y31569D01*
X54265Y31673D01*
X54082Y31709D01*
D02*
G37*
G36*
X50434Y29804D02*
X49907D01*
Y29427D01*
X50434D01*
Y29804D01*
D02*
G37*
G36*
X41123Y30814D02*
X40751Y30765D01*
X40405Y30622D01*
X40108Y30394D01*
X39880Y30097D01*
X39737Y29751D01*
X39688Y29379D01*
X39737Y29008D01*
X39880Y28662D01*
X40108Y28365D01*
X40405Y28137D01*
X40751Y27994D01*
X41123Y27945D01*
X41494Y27994D01*
X41840Y28137D01*
X42137Y28365D01*
X42365Y28662D01*
X42508Y29008D01*
X42557Y29379D01*
X42508Y29751D01*
X42365Y30097D01*
X42137Y30394D01*
X41840Y30622D01*
X41494Y30765D01*
X41123Y30814D01*
D02*
G37*
G36*
X50434Y29173D02*
X49907D01*
Y28796D01*
X50434D01*
Y29173D01*
D02*
G37*
G36*
X41123Y22263D02*
X40751Y22214D01*
X40405Y22070D01*
X40108Y21842D01*
X39880Y21545D01*
X39737Y21199D01*
X39688Y20828D01*
X39737Y20457D01*
X39880Y20111D01*
X40108Y19814D01*
X40405Y19586D01*
X40751Y19442D01*
X41123Y19393D01*
X41494Y19442D01*
X41840Y19586D01*
X42137Y19814D01*
X42365Y20111D01*
X42508Y20457D01*
X42557Y20828D01*
X42508Y21199D01*
X42365Y21545D01*
X42137Y21842D01*
X41840Y22070D01*
X41494Y22214D01*
X41123Y22263D01*
D02*
G37*
G36*
X50434Y21047D02*
X49907D01*
Y20670D01*
X50434D01*
Y21047D01*
D02*
G37*
G36*
X48186Y18353D02*
X47434D01*
Y17901D01*
X48186D01*
Y18353D01*
D02*
G37*
G36*
X28321Y22895D02*
X27918Y22856D01*
X27530Y22738D01*
X27172Y22547D01*
X26859Y22290D01*
X26602Y21977D01*
X26411Y21619D01*
X26293Y21231D01*
X26254Y20828D01*
X26293Y20425D01*
X26411Y20037D01*
X26602Y19679D01*
X26859Y19366D01*
X27172Y19109D01*
X27530Y18918D01*
X27918Y18800D01*
X28321Y18761D01*
X28724Y18800D01*
X29112Y18918D01*
X29470Y19109D01*
X29783Y19366D01*
X30040Y19679D01*
X30231Y20037D01*
X30349Y20425D01*
X30388Y20828D01*
X30349Y21231D01*
X30231Y21619D01*
X30040Y21977D01*
X29783Y22290D01*
X29470Y22547D01*
X29112Y22738D01*
X28724Y22856D01*
X28321Y22895D01*
D02*
G37*
G36*
X51215Y21678D02*
X50688D01*
Y21301D01*
X51215D01*
Y21678D01*
D02*
G37*
G36*
X56990Y23074D02*
X56807Y23037D01*
X56651Y22933D01*
X56547Y22778D01*
X56511Y22594D01*
X56524Y22531D01*
X56218Y22226D01*
X56157Y22133D01*
X56135Y22024D01*
X56135Y22024D01*
Y19988D01*
X55867D01*
Y19183D01*
X56972D01*
Y19988D01*
X56705D01*
Y21906D01*
X56926Y22128D01*
X56990Y22115D01*
X57173Y22152D01*
X57329Y22256D01*
X57433Y22411D01*
X57469Y22594D01*
X57433Y22778D01*
X57329Y22933D01*
X57173Y23037D01*
X56990Y23074D01*
D02*
G37*
G36*
X53478Y24775D02*
X53295Y24738D01*
X53139Y24634D01*
X53036Y24479D01*
X52999Y24295D01*
X53036Y24112D01*
X53139Y23957D01*
X53193Y23921D01*
Y22709D01*
X51333Y20848D01*
X51215Y20896D01*
Y21047D01*
X50688D01*
Y20670D01*
X50988D01*
X51037Y20552D01*
X50561Y20076D01*
X50009D01*
Y19959D01*
X48084D01*
Y20151D01*
X46530D01*
Y19201D01*
X45966D01*
X45957Y19203D01*
X37913D01*
X36898Y20218D01*
X36997Y20457D01*
X37045Y20828D01*
X36997Y21199D01*
X36853Y21545D01*
X36625Y21842D01*
X36328Y22070D01*
X35982Y22214D01*
X35611Y22263D01*
X35239Y22214D01*
X34893Y22070D01*
X34596Y21842D01*
X34368Y21545D01*
X34225Y21199D01*
X34176Y20828D01*
X34225Y20457D01*
X34368Y20111D01*
X34596Y19814D01*
X34893Y19586D01*
X35239Y19442D01*
X35611Y19393D01*
X35982Y19442D01*
X36220Y19541D01*
X37376Y18385D01*
X37532Y18281D01*
X37715Y18245D01*
X45957D01*
X45966Y18247D01*
X46428D01*
Y17901D01*
X47180D01*
Y18353D01*
X46734D01*
Y19197D01*
X48084D01*
Y19389D01*
X50009D01*
Y19271D01*
X51114D01*
Y19823D01*
X53680Y22389D01*
X53741Y22482D01*
X53763Y22591D01*
X53763Y22591D01*
Y23921D01*
X53817Y23957D01*
X53921Y24112D01*
X53957Y24295D01*
X53921Y24479D01*
X53817Y24634D01*
X53662Y24738D01*
X53478Y24775D01*
D02*
G37*
G36*
X50434Y21678D02*
X49907D01*
Y21301D01*
X50434D01*
Y21678D01*
D02*
G37*
G36*
X50434Y53598D02*
X49907D01*
Y53221D01*
X50434D01*
Y53598D01*
D02*
G37*
G36*
X35611Y73571D02*
X35239Y73522D01*
X34893Y73378D01*
X34596Y73150D01*
X34368Y72853D01*
X34225Y72507D01*
X34176Y72136D01*
X34225Y71765D01*
X34368Y71419D01*
X34596Y71122D01*
X34893Y70894D01*
X35239Y70750D01*
X35611Y70701D01*
X35982Y70750D01*
X36220Y70849D01*
X37622Y69448D01*
X37777Y69344D01*
X37960Y69307D01*
X49759D01*
Y69253D01*
X51333D01*
Y70320D01*
X49759D01*
Y70266D01*
X38159D01*
X36898Y71526D01*
X36997Y71765D01*
X37045Y72136D01*
X36997Y72507D01*
X36853Y72853D01*
X36625Y73150D01*
X36328Y73378D01*
X35982Y73522D01*
X35611Y73571D01*
D02*
G37*
G36*
X69176Y71572D02*
X68914Y71538D01*
X68670Y71437D01*
X68461Y71276D01*
X68300Y71067D01*
X68199Y70823D01*
X68165Y70561D01*
X68199Y70300D01*
X68300Y70056D01*
X68461Y69846D01*
X68670Y69686D01*
X68914Y69585D01*
X69176Y69550D01*
X69437Y69585D01*
X69681Y69686D01*
X69891Y69846D01*
X70051Y70056D01*
X70152Y70300D01*
X70187Y70561D01*
X70152Y70823D01*
X70051Y71067D01*
X69891Y71276D01*
X69681Y71437D01*
X69437Y71538D01*
X69176Y71572D01*
D02*
G37*
G36*
X51968Y68923D02*
X49124D01*
Y67916D01*
X45060D01*
X44876Y67880D01*
X44721Y67776D01*
X41792Y64847D01*
X41494Y64970D01*
X41123Y65019D01*
X40751Y64970D01*
X40405Y64827D01*
X40108Y64599D01*
X39880Y64302D01*
X39737Y63956D01*
X39688Y63585D01*
X39737Y63213D01*
X39880Y62867D01*
X40108Y62570D01*
X40405Y62342D01*
X40751Y62199D01*
X41123Y62150D01*
X41494Y62199D01*
X41840Y62342D01*
X42137Y62570D01*
X42365Y62867D01*
X42508Y63213D01*
X42557Y63585D01*
X42508Y63956D01*
X42435Y64134D01*
X45258Y66958D01*
X49124D01*
Y65951D01*
X51968D01*
Y68923D01*
D02*
G37*
G36*
X80096Y69409D02*
X79841Y69375D01*
X79603Y69277D01*
X79399Y69120D01*
X79242Y68916D01*
X79144Y68678D01*
X79110Y68423D01*
X79144Y68167D01*
X79230Y67959D01*
X78730Y67459D01*
X78106D01*
X78089Y67492D01*
X78073Y67586D01*
X78254Y67725D01*
X78410Y67929D01*
X78509Y68167D01*
X78543Y68423D01*
X78509Y68678D01*
X78410Y68916D01*
X78254Y69120D01*
X78049Y69277D01*
X77812Y69375D01*
X77556Y69409D01*
X77301Y69375D01*
X77063Y69277D01*
X76859Y69120D01*
X76702Y68916D01*
X76604Y68678D01*
X76570Y68423D01*
X76604Y68167D01*
X76702Y67929D01*
X76859Y67725D01*
X77040Y67586D01*
X77023Y67492D01*
X77006Y67459D01*
X76848D01*
X76848Y67459D01*
X76739Y67437D01*
X76647Y67376D01*
X76646Y67376D01*
X75685Y66415D01*
X75624Y66322D01*
X75602Y66213D01*
X75602Y66213D01*
Y46587D01*
X75259Y46244D01*
X75142Y46293D01*
Y52179D01*
X75196Y52215D01*
X75300Y52371D01*
X75336Y52554D01*
X75300Y52737D01*
X75196Y52893D01*
X75040Y52997D01*
X74857Y53033D01*
X74674Y52997D01*
X74518Y52893D01*
X74414Y52737D01*
X74378Y52554D01*
X74414Y52371D01*
X74518Y52215D01*
X74572Y52179D01*
Y46132D01*
X70148Y41708D01*
X68870D01*
X68834Y41762D01*
X68679Y41865D01*
X68496Y41902D01*
X68312Y41865D01*
X68157Y41762D01*
X68053Y41606D01*
X68016Y41423D01*
X68053Y41239D01*
X68157Y41084D01*
X68312Y40980D01*
X68496Y40944D01*
X68679Y40980D01*
X68834Y41084D01*
X68870Y41138D01*
X69987D01*
X70036Y41021D01*
X69793Y40777D01*
X69344D01*
X69329Y40801D01*
X69173Y40905D01*
X68990Y40941D01*
X68806Y40905D01*
X68651Y40801D01*
X68547Y40646D01*
X68511Y40462D01*
X68547Y40279D01*
X68651Y40124D01*
X68806Y40020D01*
X68990Y39983D01*
X69173Y40020D01*
X69329Y40124D01*
X69385Y40208D01*
X69632D01*
X69680Y40090D01*
X69556Y39966D01*
X69484Y39981D01*
X69301Y39944D01*
X69145Y39841D01*
X69041Y39685D01*
X69005Y39502D01*
X69041Y39318D01*
X69145Y39163D01*
X69301Y39059D01*
X69484Y39023D01*
X69667Y39059D01*
X69823Y39163D01*
X69927Y39318D01*
X69963Y39502D01*
X69952Y39557D01*
X70529Y40133D01*
X70646Y40084D01*
Y37902D01*
X67906Y35162D01*
X63193D01*
X63157Y35216D01*
X63001Y35320D01*
X62818Y35357D01*
X62634Y35320D01*
X62479Y35216D01*
X62375Y35061D01*
X62339Y34878D01*
X62375Y34694D01*
X62479Y34539D01*
X62634Y34435D01*
X62818Y34398D01*
X63001Y34435D01*
X63157Y34539D01*
X63193Y34593D01*
X67836D01*
X67884Y34475D01*
X62964Y29555D01*
X62829Y29527D01*
X62674Y29630D01*
X62491Y29667D01*
X62307Y29630D01*
X62152Y29527D01*
X62048Y29371D01*
X62012Y29188D01*
X62048Y29004D01*
X62152Y28849D01*
X62307Y28745D01*
X62491Y28709D01*
X62674Y28745D01*
X62829Y28849D01*
X62865Y28903D01*
X63000D01*
X63000Y28903D01*
X63109Y28925D01*
X63201Y28986D01*
X68429Y34214D01*
X68546Y34166D01*
Y24150D01*
X68492Y24114D01*
X68389Y23958D01*
X68352Y23775D01*
X68365Y23711D01*
X63024Y18371D01*
X56972D01*
Y18488D01*
X55867D01*
Y17683D01*
X56135D01*
Y17033D01*
X55867D01*
Y16228D01*
X56972D01*
Y17033D01*
X56705D01*
Y17683D01*
X56972D01*
Y17801D01*
X62637D01*
X62750Y17765D01*
X62750Y17674D01*
Y16960D01*
X63854D01*
Y17078D01*
X64519D01*
X64520Y17074D01*
X64636Y16794D01*
X64821Y16553D01*
X65061Y16369D01*
X65342Y16253D01*
X65642Y16213D01*
X65943Y16253D01*
X66224Y16369D01*
X66464Y16553D01*
X66649Y16794D01*
X66765Y17074D01*
X66805Y17375D01*
X66765Y17676D01*
X66649Y17956D01*
X66464Y18197D01*
X66224Y18382D01*
X65943Y18498D01*
X65642Y18538D01*
X65342Y18498D01*
X65061Y18382D01*
X64821Y18197D01*
X64636Y17956D01*
X64520Y17676D01*
X64516Y17647D01*
X63854D01*
Y17765D01*
X63394D01*
X63354Y17859D01*
X63351Y17892D01*
X68768Y23308D01*
X68831Y23296D01*
X69015Y23332D01*
X69170Y23436D01*
X69274Y23591D01*
X69310Y23775D01*
X69274Y23958D01*
X69170Y24114D01*
X69116Y24150D01*
Y34327D01*
X71945Y37156D01*
X71945Y37156D01*
X72007Y37248D01*
X72028Y37357D01*
X72028Y37357D01*
Y39842D01*
X77575Y45389D01*
X80940D01*
X80940Y45389D01*
X81049Y45411D01*
X81141Y45473D01*
X82433Y46764D01*
X82495Y46752D01*
X82679Y46789D01*
X82834Y46892D01*
X82938Y47048D01*
X82975Y47231D01*
X82938Y47415D01*
X82834Y47570D01*
X82810Y47586D01*
Y63453D01*
X82810Y63453D01*
X82789Y63563D01*
X82727Y63655D01*
X80963Y65419D01*
X81049Y65627D01*
X81083Y65883D01*
X81049Y66138D01*
X80950Y66376D01*
X80794Y66580D01*
X80589Y66737D01*
X80352Y66835D01*
X80096Y66869D01*
X79841Y66835D01*
X79603Y66737D01*
X79399Y66580D01*
X79242Y66376D01*
X79144Y66138D01*
X79110Y65883D01*
X79144Y65627D01*
X79242Y65389D01*
X79399Y65185D01*
X79603Y65028D01*
X79841Y64930D01*
X80096Y64896D01*
X80352Y64930D01*
X80560Y65016D01*
X82241Y63335D01*
Y61767D01*
X82123Y61719D01*
X80963Y62879D01*
X81049Y63087D01*
X81083Y63343D01*
X81049Y63598D01*
X80950Y63836D01*
X80794Y64040D01*
X80589Y64197D01*
X80352Y64295D01*
X80096Y64329D01*
X79841Y64295D01*
X79603Y64197D01*
X79399Y64040D01*
X79242Y63836D01*
X79144Y63598D01*
X79110Y63343D01*
X79144Y63087D01*
X79242Y62849D01*
X79399Y62645D01*
X79603Y62488D01*
X79841Y62390D01*
X80096Y62356D01*
X80352Y62390D01*
X80560Y62476D01*
X81834Y61202D01*
Y57094D01*
X81717Y57045D01*
X80963Y57799D01*
X81049Y58007D01*
X81083Y58263D01*
X81049Y58518D01*
X80950Y58756D01*
X80794Y58960D01*
X80589Y59117D01*
X80352Y59215D01*
X80096Y59249D01*
X79841Y59215D01*
X79603Y59117D01*
X79399Y58960D01*
X79242Y58756D01*
X79144Y58518D01*
X79110Y58263D01*
X79144Y58007D01*
X79242Y57769D01*
X79399Y57565D01*
X79603Y57408D01*
X79841Y57310D01*
X80096Y57276D01*
X80352Y57310D01*
X80560Y57396D01*
X81428Y56528D01*
Y48274D01*
X81196Y48043D01*
X81119Y48081D01*
X81082Y48108D01*
X81049Y48358D01*
X80950Y48596D01*
X80794Y48800D01*
X80589Y48957D01*
X80352Y49055D01*
X80096Y49089D01*
X79841Y49055D01*
X79603Y48957D01*
X79399Y48800D01*
X79242Y48596D01*
X79144Y48358D01*
X79110Y48103D01*
X79144Y47847D01*
X79242Y47609D01*
X79399Y47405D01*
X79603Y47248D01*
X79841Y47150D01*
X80091Y47117D01*
X80118Y47080D01*
X80156Y47003D01*
X79925Y46772D01*
X77121D01*
X77121Y46772D01*
X77012Y46750D01*
X76919Y46688D01*
X76919Y46688D01*
X76695Y46464D01*
X76578Y46513D01*
Y47577D01*
X76692Y47607D01*
X76705Y47606D01*
X76859Y47405D01*
X77063Y47248D01*
X77301Y47150D01*
X77556Y47116D01*
X77812Y47150D01*
X78049Y47248D01*
X78254Y47405D01*
X78410Y47609D01*
X78509Y47847D01*
X78543Y48103D01*
X78509Y48358D01*
X78410Y48596D01*
X78254Y48800D01*
X78049Y48957D01*
X77812Y49055D01*
X77556Y49089D01*
X77301Y49055D01*
X77063Y48957D01*
X76859Y48800D01*
X76705Y48600D01*
X76692Y48598D01*
X76578Y48628D01*
Y49936D01*
X76705Y49979D01*
X76786Y49873D01*
X77012Y49700D01*
X77274Y49591D01*
X77429Y49571D01*
Y50643D01*
X77556D01*
Y50770D01*
X78628D01*
X78608Y50924D01*
X78499Y51187D01*
X78326Y51413D01*
X78185Y51521D01*
X78228Y51648D01*
X78846D01*
X78846Y51648D01*
X78955Y51669D01*
X79048Y51731D01*
X79633Y52316D01*
X79841Y52230D01*
X80096Y52196D01*
X80352Y52230D01*
X80589Y52328D01*
X80794Y52485D01*
X80950Y52689D01*
X81049Y52927D01*
X81083Y53183D01*
X81049Y53438D01*
X80950Y53676D01*
X80794Y53880D01*
X80589Y54037D01*
X80352Y54135D01*
X80096Y54169D01*
X79841Y54135D01*
X79603Y54037D01*
X79399Y53880D01*
X79242Y53676D01*
X79144Y53438D01*
X79110Y53183D01*
X79144Y52927D01*
X79230Y52719D01*
X78728Y52217D01*
X78280D01*
X78237Y52344D01*
X78326Y52413D01*
X78499Y52638D01*
X78608Y52901D01*
X78628Y53056D01*
X77556D01*
X76484D01*
X76505Y52901D01*
X76613Y52638D01*
X76786Y52413D01*
X76894Y52330D01*
X76871Y52196D01*
X76779Y52134D01*
X76779Y52134D01*
X76289Y51644D01*
X76172Y51693D01*
Y66095D01*
X76966Y66889D01*
X77100D01*
X77125Y66762D01*
X77063Y66737D01*
X76859Y66580D01*
X76702Y66376D01*
X76604Y66138D01*
X76570Y65883D01*
X76604Y65627D01*
X76702Y65389D01*
X76859Y65185D01*
X77063Y65028D01*
X77301Y64930D01*
X77556Y64896D01*
X77812Y64930D01*
X78049Y65028D01*
X78254Y65185D01*
X78410Y65389D01*
X78509Y65627D01*
X78543Y65883D01*
X78509Y66138D01*
X78410Y66376D01*
X78254Y66580D01*
X78049Y66737D01*
X77988Y66762D01*
X78013Y66889D01*
X78848D01*
X78848Y66889D01*
X78957Y66911D01*
X79049Y66973D01*
X79633Y67556D01*
X79841Y67470D01*
X80096Y67436D01*
X80352Y67470D01*
X80589Y67568D01*
X80794Y67725D01*
X80950Y67929D01*
X81049Y68167D01*
X81083Y68423D01*
X81049Y68678D01*
X80950Y68916D01*
X80794Y69120D01*
X80589Y69277D01*
X80352Y69375D01*
X80096Y69409D01*
D02*
G37*
G36*
X40996Y72009D02*
X39604D01*
X39621Y71837D01*
X39708Y71550D01*
X39849Y71285D01*
X40040Y71053D01*
X40272Y70863D01*
X40537Y70721D01*
X40824Y70634D01*
X40996Y70617D01*
Y72009D01*
D02*
G37*
G36*
X42641D02*
X41250D01*
Y70617D01*
X41421Y70634D01*
X41709Y70721D01*
X41973Y70863D01*
X42205Y71053D01*
X42396Y71285D01*
X42537Y71550D01*
X42625Y71837D01*
X42641Y72009D01*
D02*
G37*
G36*
X78801Y72737D02*
X76939D01*
X76756Y72701D01*
X76601Y72597D01*
X72420Y68416D01*
X72316Y68261D01*
X72280Y68078D01*
Y56221D01*
X70661Y54602D01*
X70557Y54447D01*
X70521Y54263D01*
Y51506D01*
X70212D01*
Y50440D01*
X71787D01*
Y51506D01*
X71479D01*
Y54065D01*
X73098Y55684D01*
X73202Y55839D01*
X73238Y56023D01*
Y67879D01*
X76460Y71101D01*
X76580Y71042D01*
X76570Y70963D01*
X76604Y70707D01*
X76702Y70469D01*
X76859Y70265D01*
X77063Y70108D01*
X77301Y70010D01*
X77556Y69976D01*
X77812Y70010D01*
X78049Y70108D01*
X78254Y70265D01*
X78410Y70469D01*
X78509Y70707D01*
X78543Y70963D01*
X78509Y71218D01*
X78410Y71456D01*
X78260Y71652D01*
X78270Y71708D01*
X78294Y71779D01*
X78602D01*
X79149Y71232D01*
X79144Y71218D01*
X79110Y70963D01*
X79144Y70707D01*
X79242Y70469D01*
X79399Y70265D01*
X79603Y70108D01*
X79841Y70010D01*
X80096Y69976D01*
X80352Y70010D01*
X80589Y70108D01*
X80794Y70265D01*
X80950Y70469D01*
X81049Y70707D01*
X81083Y70963D01*
X81049Y71218D01*
X80950Y71456D01*
X80794Y71660D01*
X80589Y71817D01*
X80352Y71915D01*
X80096Y71949D01*
X79841Y71915D01*
X79827Y71910D01*
X79140Y72597D01*
X78984Y72701D01*
X78801Y72737D01*
D02*
G37*
G36*
X28321Y74203D02*
X27918Y74164D01*
X27530Y74046D01*
X27172Y73855D01*
X26859Y73598D01*
X26602Y73285D01*
X26411Y72927D01*
X26293Y72539D01*
X26254Y72136D01*
X26293Y71733D01*
X26411Y71345D01*
X26602Y70987D01*
X26859Y70674D01*
X27172Y70417D01*
X27530Y70226D01*
X27918Y70108D01*
X28321Y70069D01*
X28724Y70108D01*
X29112Y70226D01*
X29470Y70417D01*
X29783Y70674D01*
X30040Y70987D01*
X30231Y71345D01*
X30349Y71733D01*
X30388Y72136D01*
X30349Y72539D01*
X30231Y72927D01*
X30040Y73285D01*
X29783Y73598D01*
X29470Y73855D01*
X29112Y74046D01*
X28724Y74164D01*
X28321Y74203D01*
D02*
G37*
G36*
X56047Y66579D02*
X55747Y66540D01*
X55466Y66424D01*
X55225Y66239D01*
X55041Y65998D01*
X54925Y65718D01*
X54885Y65417D01*
X54925Y65116D01*
X55041Y64836D01*
X55225Y64595D01*
X55466Y64411D01*
X55747Y64294D01*
X55979Y64264D01*
X55989Y64262D01*
Y64134D01*
X55979Y64133D01*
X55720Y64099D01*
X55415Y63972D01*
X55153Y63771D01*
X54952Y63510D01*
X54826Y63204D01*
X54799Y63004D01*
X56047D01*
X57295D01*
X57269Y63204D01*
X57143Y63510D01*
X56942Y63771D01*
X56680Y63972D01*
X56375Y64099D01*
X56116Y64133D01*
X56105Y64134D01*
Y64262D01*
X56116Y64264D01*
X56348Y64294D01*
X56629Y64411D01*
X56869Y64595D01*
X57054Y64836D01*
X57170Y65116D01*
X57210Y65417D01*
X57170Y65718D01*
X57054Y65998D01*
X56869Y66239D01*
X56629Y66424D01*
X56348Y66540D01*
X56047Y66579D01*
D02*
G37*
G36*
X63700Y65186D02*
X63058D01*
Y65059D01*
X63084Y64860D01*
X63161Y64675D01*
X63283Y64516D01*
X63442Y64393D01*
X63628Y64317D01*
X63700Y64307D01*
Y65186D01*
D02*
G37*
G36*
X51215Y62316D02*
X50688D01*
Y61939D01*
X51215D01*
Y62316D01*
D02*
G37*
G36*
X77556Y64329D02*
X77301Y64295D01*
X77063Y64197D01*
X76859Y64040D01*
X76702Y63836D01*
X76604Y63598D01*
X76570Y63343D01*
X76604Y63087D01*
X76702Y62849D01*
X76859Y62645D01*
X77063Y62488D01*
X77301Y62390D01*
X77556Y62356D01*
X77812Y62390D01*
X78049Y62488D01*
X78254Y62645D01*
X78410Y62849D01*
X78509Y63087D01*
X78543Y63343D01*
X78509Y63598D01*
X78410Y63836D01*
X78254Y64040D01*
X78049Y64197D01*
X77812Y64295D01*
X77556Y64329D01*
D02*
G37*
G36*
X63700Y66319D02*
X63628Y66309D01*
X63442Y66233D01*
X63283Y66110D01*
X63161Y65951D01*
X63084Y65766D01*
X63058Y65567D01*
Y65440D01*
X63700D01*
Y66319D01*
D02*
G37*
G36*
X63954D02*
Y65440D01*
X64595D01*
Y65567D01*
X64569Y65766D01*
X64492Y65951D01*
X64370Y66110D01*
X64211Y66233D01*
X64025Y66309D01*
X63954Y66319D01*
D02*
G37*
G36*
X64595Y65186D02*
X63954D01*
Y64307D01*
X64025Y64317D01*
X64211Y64393D01*
X64370Y64516D01*
X64492Y64675D01*
X64569Y64860D01*
X64595Y65059D01*
Y65186D01*
D02*
G37*
G36*
X71447Y66233D02*
X71274Y66210D01*
X71114Y66144D01*
X70976Y66038D01*
X70870Y65900D01*
X70803Y65739D01*
X70780Y65567D01*
Y65059D01*
X70803Y64887D01*
X70870Y64726D01*
X70976Y64588D01*
X71114Y64482D01*
X71274Y64416D01*
X71447Y64393D01*
X71619Y64416D01*
X71780Y64482D01*
X71918Y64588D01*
X72023Y64726D01*
X72090Y64887D01*
X72113Y65059D01*
Y65567D01*
X72090Y65739D01*
X72023Y65900D01*
X71918Y66038D01*
X71780Y66144D01*
X71619Y66210D01*
X71447Y66233D01*
D02*
G37*
G36*
X40996Y73655D02*
X40824Y73638D01*
X40537Y73551D01*
X40272Y73409D01*
X40040Y73219D01*
X39849Y72987D01*
X39708Y72722D01*
X39621Y72435D01*
X39604Y72263D01*
X40996D01*
Y73655D01*
D02*
G37*
G36*
X62883Y78052D02*
X62356D01*
Y77525D01*
X62883D01*
Y78052D01*
D02*
G37*
G36*
X63664D02*
X63137D01*
Y77525D01*
X63664D01*
Y78052D01*
D02*
G37*
G36*
X59883D02*
X59356D01*
Y77525D01*
X59883D01*
Y78052D01*
D02*
G37*
G36*
X60664D02*
X60137D01*
Y77525D01*
X60664D01*
Y78052D01*
D02*
G37*
G36*
Y78833D02*
X60137D01*
Y78306D01*
X60664D01*
Y78833D01*
D02*
G37*
G36*
X63664D02*
X63137D01*
Y78306D01*
X63664D01*
Y78833D01*
D02*
G37*
G36*
X59883D02*
X59356D01*
Y78306D01*
X59883D01*
Y78833D01*
D02*
G37*
G36*
X62883D02*
X62356D01*
Y78306D01*
X62883D01*
Y78833D01*
D02*
G37*
G36*
X69176Y74572D02*
X68914Y74538D01*
X68670Y74437D01*
X68461Y74276D01*
X68300Y74067D01*
X68199Y73823D01*
X68165Y73561D01*
X68199Y73300D01*
X68300Y73056D01*
X68461Y72846D01*
X68670Y72686D01*
X68914Y72585D01*
X69176Y72550D01*
X69437Y72585D01*
X69681Y72686D01*
X69891Y72846D01*
X70051Y73056D01*
X70152Y73300D01*
X70187Y73561D01*
X70152Y73823D01*
X70051Y74067D01*
X69891Y74276D01*
X69681Y74437D01*
X69437Y74538D01*
X69176Y74572D01*
D02*
G37*
G36*
X66303Y74658D02*
Y73688D01*
X67273D01*
X67251Y73849D01*
X67140Y74118D01*
X66963Y74349D01*
X66732Y74526D01*
X66464Y74637D01*
X66303Y74658D01*
D02*
G37*
G36*
X41250Y73655D02*
Y72263D01*
X42641D01*
X42625Y72435D01*
X42537Y72722D01*
X42396Y72987D01*
X42205Y73219D01*
X41973Y73409D01*
X41709Y73551D01*
X41421Y73638D01*
X41250Y73655D01*
D02*
G37*
G36*
X67273Y73434D02*
X66303D01*
Y72464D01*
X66464Y72486D01*
X66732Y72597D01*
X66963Y72774D01*
X67140Y73004D01*
X67251Y73273D01*
X67273Y73434D01*
D02*
G37*
G36*
X24190Y82799D02*
X23748Y82764D01*
X23316Y82660D01*
X22906Y82490D01*
X22528Y82259D01*
X22191Y81970D01*
X21902Y81633D01*
X21670Y81254D01*
X21501Y80844D01*
X21397Y80413D01*
X21362Y79971D01*
X21397Y79528D01*
X21501Y79097D01*
X21670Y78687D01*
X21902Y78308D01*
X22191Y77971D01*
X22528Y77683D01*
X22906Y77451D01*
X23316Y77281D01*
X23748Y77177D01*
X24190Y77142D01*
X24633Y77177D01*
X25064Y77281D01*
X25474Y77451D01*
X25853Y77683D01*
X26190Y77971D01*
X26478Y78308D01*
X26710Y78687D01*
X26880Y79097D01*
X26984Y79528D01*
X27018Y79971D01*
X26984Y80413D01*
X26880Y80844D01*
X26710Y81254D01*
X26478Y81633D01*
X26190Y81970D01*
X25853Y82259D01*
X25474Y82490D01*
X25064Y82660D01*
X24633Y82764D01*
X24190Y82799D01*
D02*
G37*
G36*
X81004Y82806D02*
X80562Y82771D01*
X80130Y82668D01*
X79720Y82498D01*
X79342Y82266D01*
X79005Y81978D01*
X78716Y81640D01*
X78484Y81262D01*
X78315Y80852D01*
X78211Y80420D01*
X78176Y79978D01*
X78211Y79535D01*
X78315Y79104D01*
X78484Y78694D01*
X78716Y78316D01*
X79005Y77978D01*
X79342Y77690D01*
X79720Y77458D01*
X80130Y77288D01*
X80562Y77185D01*
X81004Y77150D01*
X81447Y77185D01*
X81878Y77288D01*
X82288Y77458D01*
X82667Y77690D01*
X83004Y77978D01*
X83292Y78316D01*
X83524Y78694D01*
X83694Y79104D01*
X83798Y79535D01*
X83832Y79978D01*
X83798Y80420D01*
X83694Y80852D01*
X83524Y81262D01*
X83292Y81640D01*
X83004Y81978D01*
X82667Y82266D01*
X82288Y82498D01*
X81878Y82668D01*
X81447Y82771D01*
X81004Y82806D01*
D02*
G37*
G36*
X63562Y76532D02*
X62457D01*
Y75427D01*
X63068D01*
X64256Y74238D01*
Y73904D01*
X64129Y73879D01*
X64051Y74067D01*
X63891Y74276D01*
X63681Y74437D01*
X63437Y74538D01*
X63176Y74572D01*
X62914Y74538D01*
X62670Y74437D01*
X62461Y74276D01*
X62300Y74067D01*
X62199Y73823D01*
X62165Y73561D01*
X62199Y73300D01*
X62300Y73056D01*
X62461Y72846D01*
X62670Y72686D01*
X62914Y72585D01*
X63176Y72550D01*
X63437Y72585D01*
X63681Y72686D01*
X63891Y72846D01*
X64051Y73056D01*
X64129Y73243D01*
X64256Y73218D01*
Y72131D01*
X64283Y71997D01*
X64358Y71884D01*
X65264Y70979D01*
X65199Y70823D01*
X65165Y70561D01*
X65199Y70300D01*
X65264Y70144D01*
X65096Y69976D01*
X65021Y69863D01*
X64994Y69729D01*
Y69167D01*
X64884Y69111D01*
X64871Y69110D01*
X63997Y69984D01*
X64051Y70056D01*
X64152Y70300D01*
X64187Y70561D01*
X64152Y70823D01*
X64051Y71067D01*
X63891Y71276D01*
X63681Y71437D01*
X63437Y71538D01*
X63176Y71572D01*
X62914Y71538D01*
X62758Y71473D01*
X61788Y72444D01*
Y74551D01*
X61788Y74551D01*
X61761Y74685D01*
X61685Y74798D01*
X61685Y74798D01*
X60562Y75921D01*
Y76532D01*
X59457D01*
Y75427D01*
X60068D01*
X61088Y74406D01*
Y72299D01*
X61115Y72165D01*
X61191Y72052D01*
X62264Y70979D01*
X62199Y70823D01*
X62165Y70561D01*
X62199Y70300D01*
X62300Y70056D01*
X62461Y69846D01*
X62670Y69686D01*
X62914Y69585D01*
X63176Y69550D01*
X63411Y69581D01*
X65075Y67917D01*
X65188Y67842D01*
X65322Y67815D01*
X66700D01*
X66739Y67776D01*
Y67550D01*
X66489D01*
Y66445D01*
X66493D01*
X66520Y66318D01*
X66415Y66227D01*
X66367Y66233D01*
X66194Y66210D01*
X66034Y66144D01*
X65896Y66038D01*
X65790Y65900D01*
X65723Y65739D01*
X65700Y65567D01*
Y65059D01*
X65723Y64887D01*
X65790Y64726D01*
X65896Y64588D01*
X66034Y64482D01*
X66194Y64416D01*
X66367Y64393D01*
X66539Y64416D01*
X66700Y64482D01*
X66838Y64588D01*
X66943Y64726D01*
X67010Y64887D01*
X67033Y65059D01*
Y65485D01*
X67139Y65591D01*
X67215Y65704D01*
X67241Y65838D01*
Y66445D01*
X67294D01*
Y66906D01*
X67336Y66947D01*
X67336Y66947D01*
X67412Y67061D01*
X67438Y67195D01*
Y67921D01*
X67412Y68055D01*
X67390Y68087D01*
X67489Y68168D01*
X67610Y68047D01*
Y67430D01*
X67636Y67296D01*
X67712Y67183D01*
X67989Y66906D01*
Y66445D01*
X68042D01*
Y65828D01*
X68069Y65694D01*
X68145Y65581D01*
X68240Y65485D01*
Y65059D01*
X68263Y64887D01*
X68330Y64726D01*
X68436Y64588D01*
X68574Y64482D01*
X68734Y64416D01*
X68907Y64393D01*
X69079Y64416D01*
X69240Y64482D01*
X69378Y64588D01*
X69483Y64726D01*
X69550Y64887D01*
X69573Y65059D01*
Y65567D01*
X69550Y65739D01*
X69483Y65900D01*
X69378Y66038D01*
X69240Y66144D01*
X69079Y66210D01*
X68907Y66233D01*
X68837Y66224D01*
X68741Y66308D01*
Y66445D01*
X68794D01*
Y67550D01*
X68334D01*
X68309Y67575D01*
Y68192D01*
X68309Y68192D01*
X68282Y68326D01*
X68206Y68439D01*
X68206Y68439D01*
X67599Y69047D01*
X67485Y69123D01*
X67352Y69149D01*
X65814D01*
X65693Y69269D01*
Y69548D01*
X65801Y69632D01*
X65914Y69585D01*
X66176Y69550D01*
X66437Y69585D01*
X66681Y69686D01*
X66891Y69846D01*
X67051Y70056D01*
X67152Y70300D01*
X67187Y70561D01*
X67152Y70823D01*
X67051Y71067D01*
X66891Y71276D01*
X66681Y71437D01*
X66437Y71538D01*
X66176Y71572D01*
X65914Y71538D01*
X65758Y71473D01*
X64955Y72276D01*
Y73400D01*
X65082Y73409D01*
X65100Y73273D01*
X65211Y73004D01*
X65388Y72774D01*
X65619Y72597D01*
X65888Y72486D01*
X66049Y72464D01*
Y73561D01*
Y74658D01*
X65888Y74637D01*
X65619Y74526D01*
X65388Y74349D01*
X65211Y74118D01*
X65100Y73849D01*
X65082Y73714D01*
X64955Y73722D01*
Y74383D01*
X64929Y74517D01*
X64853Y74630D01*
X63562Y75921D01*
Y76532D01*
D02*
G37*
G36*
X66176Y79793D02*
X65803Y79756D01*
X65444Y79647D01*
X65114Y79471D01*
X64824Y79233D01*
X64586Y78943D01*
X64410Y78613D01*
X64301Y78254D01*
X64264Y77881D01*
X64301Y77508D01*
X64410Y77150D01*
X64586Y76819D01*
X64824Y76530D01*
X65114Y76292D01*
X65444Y76115D01*
X65803Y76006D01*
X66176Y75970D01*
X66549Y76006D01*
X66907Y76115D01*
X67238Y76292D01*
X67527Y76530D01*
X67765Y76819D01*
X67942Y77150D01*
X68051Y77508D01*
X68087Y77881D01*
X68051Y78254D01*
X67942Y78613D01*
X67765Y78943D01*
X67527Y79233D01*
X67238Y79471D01*
X66907Y79647D01*
X66549Y79756D01*
X66176Y79793D01*
D02*
G37*
G36*
X50434Y62316D02*
X49907D01*
Y61939D01*
X50434D01*
Y62316D01*
D02*
G37*
G36*
X77683Y56795D02*
Y55850D01*
X78628D01*
X78608Y56004D01*
X78499Y56267D01*
X78326Y56493D01*
X78101Y56666D01*
X77838Y56774D01*
X77683Y56795D01*
D02*
G37*
G36*
X66240Y57312D02*
X65598D01*
Y57185D01*
X65624Y56986D01*
X65701Y56801D01*
X65823Y56642D01*
X65982Y56519D01*
X66168Y56443D01*
X66240Y56433D01*
Y57312D01*
D02*
G37*
G36*
X80096Y56709D02*
X79841Y56675D01*
X79603Y56577D01*
X79399Y56420D01*
X79242Y56216D01*
X79144Y55978D01*
X79110Y55723D01*
X79144Y55467D01*
X79242Y55229D01*
X79399Y55025D01*
X79603Y54868D01*
X79841Y54770D01*
X80096Y54736D01*
X80352Y54770D01*
X80589Y54868D01*
X80794Y55025D01*
X80950Y55229D01*
X81049Y55467D01*
X81083Y55723D01*
X81049Y55978D01*
X80950Y56216D01*
X80794Y56420D01*
X80589Y56577D01*
X80352Y56675D01*
X80096Y56709D01*
D02*
G37*
G36*
X77429Y56795D02*
X77274Y56774D01*
X77012Y56666D01*
X76786Y56493D01*
X76613Y56267D01*
X76505Y56004D01*
X76484Y55850D01*
X77429D01*
Y56795D01*
D02*
G37*
G36*
X71447Y58359D02*
X71274Y58336D01*
X71114Y58270D01*
X70976Y58164D01*
X70870Y58026D01*
X70803Y57865D01*
X70780Y57693D01*
Y57185D01*
X70803Y57013D01*
X70870Y56852D01*
X70976Y56714D01*
X71114Y56608D01*
X71274Y56542D01*
X71447Y56519D01*
X71619Y56542D01*
X71780Y56608D01*
X71918Y56714D01*
X72023Y56852D01*
X72090Y57013D01*
X72113Y57185D01*
Y57693D01*
X72090Y57865D01*
X72023Y58026D01*
X71918Y58164D01*
X71780Y58270D01*
X71619Y58336D01*
X71447Y58359D01*
D02*
G37*
G36*
X78628Y58136D02*
X77683D01*
Y57191D01*
X77838Y57211D01*
X78101Y57320D01*
X78326Y57493D01*
X78499Y57718D01*
X78608Y57981D01*
X78628Y58136D01*
D02*
G37*
G36*
X67135Y57312D02*
X66494D01*
Y56433D01*
X66565Y56443D01*
X66751Y56519D01*
X66910Y56642D01*
X67032Y56801D01*
X67109Y56986D01*
X67135Y57185D01*
Y57312D01*
D02*
G37*
G36*
X63827Y58359D02*
X63654Y58336D01*
X63493Y58270D01*
X63356Y58164D01*
X63250Y58026D01*
X63183Y57865D01*
X63160Y57693D01*
Y57185D01*
X63183Y57013D01*
X63250Y56852D01*
X63356Y56714D01*
X63493Y56608D01*
X63654Y56542D01*
X63827Y56519D01*
X63999Y56542D01*
X64160Y56608D01*
X64298Y56714D01*
X64403Y56852D01*
X64470Y57013D01*
X64493Y57185D01*
Y57693D01*
X64470Y57865D01*
X64403Y58026D01*
X64298Y58164D01*
X64160Y58270D01*
X63999Y58336D01*
X63827Y58359D01*
D02*
G37*
G36*
X77683Y54255D02*
Y53310D01*
X78628D01*
X78608Y53464D01*
X78499Y53727D01*
X78326Y53953D01*
X78101Y54126D01*
X77838Y54234D01*
X77683Y54255D01*
D02*
G37*
G36*
X41123Y56468D02*
X40751Y56419D01*
X40405Y56276D01*
X40108Y56048D01*
X39880Y55751D01*
X39737Y55405D01*
X39688Y55033D01*
X39737Y54662D01*
X39880Y54316D01*
X40108Y54019D01*
X40405Y53791D01*
X40751Y53648D01*
X41123Y53599D01*
X41494Y53648D01*
X41840Y53791D01*
X42137Y54019D01*
X42365Y54316D01*
X42508Y54662D01*
X42557Y55033D01*
X42508Y55405D01*
X42365Y55751D01*
X42137Y56048D01*
X41840Y56276D01*
X41494Y56419D01*
X41123Y56468D01*
D02*
G37*
G36*
X51215Y53598D02*
X50688D01*
Y53221D01*
X51215D01*
Y53598D01*
D02*
G37*
G36*
X77429Y54255D02*
X77274Y54234D01*
X77012Y54126D01*
X76786Y53953D01*
X76613Y53727D01*
X76505Y53464D01*
X76484Y53310D01*
X77429D01*
Y54255D01*
D02*
G37*
G36*
X78628Y55596D02*
X77683D01*
Y54651D01*
X77838Y54671D01*
X78101Y54780D01*
X78326Y54953D01*
X78499Y55178D01*
X78608Y55441D01*
X78628Y55596D01*
D02*
G37*
G36*
X77429D02*
X76484D01*
X76505Y55441D01*
X76613Y55178D01*
X76786Y54953D01*
X77012Y54780D01*
X77274Y54671D01*
X77429Y54651D01*
Y55596D01*
D02*
G37*
G36*
X50434Y54229D02*
X49907D01*
Y53852D01*
X50434D01*
Y54229D01*
D02*
G37*
G36*
X51215D02*
X50688D01*
Y53852D01*
X51215D01*
Y54229D01*
D02*
G37*
G36*
X77429Y58136D02*
X76484D01*
X76505Y57981D01*
X76613Y57718D01*
X76786Y57493D01*
X77012Y57320D01*
X77274Y57211D01*
X77429Y57191D01*
Y58136D01*
D02*
G37*
G36*
X80096Y61789D02*
X79841Y61755D01*
X79603Y61657D01*
X79399Y61500D01*
X79242Y61296D01*
X79144Y61058D01*
X79110Y60803D01*
X79144Y60547D01*
X79242Y60309D01*
X79399Y60105D01*
X79603Y59948D01*
X79841Y59850D01*
X80096Y59816D01*
X80352Y59850D01*
X80589Y59948D01*
X80794Y60105D01*
X80950Y60309D01*
X81049Y60547D01*
X81083Y60803D01*
X81049Y61058D01*
X80950Y61296D01*
X80794Y61500D01*
X80589Y61657D01*
X80352Y61755D01*
X80096Y61789D01*
D02*
G37*
G36*
X77429Y61875D02*
X77274Y61854D01*
X77012Y61746D01*
X76786Y61573D01*
X76613Y61347D01*
X76505Y61084D01*
X76484Y60930D01*
X77429D01*
Y61875D01*
D02*
G37*
G36*
X78628Y60676D02*
X77683D01*
Y59731D01*
X77838Y59751D01*
X78101Y59860D01*
X78326Y60033D01*
X78499Y60258D01*
X78608Y60521D01*
X78628Y60676D01*
D02*
G37*
G36*
X77429D02*
X76484D01*
X76505Y60521D01*
X76613Y60258D01*
X76786Y60033D01*
X77012Y59860D01*
X77274Y59751D01*
X77429Y59731D01*
Y60676D01*
D02*
G37*
G36*
X51215Y61685D02*
X50688D01*
Y61308D01*
X51215D01*
Y61685D01*
D02*
G37*
G36*
X28321Y65652D02*
X27918Y65612D01*
X27530Y65495D01*
X27172Y65304D01*
X26859Y65047D01*
X26602Y64733D01*
X26411Y64376D01*
X26293Y63988D01*
X26254Y63585D01*
X26293Y63181D01*
X26411Y62794D01*
X26602Y62436D01*
X26859Y62123D01*
X27172Y61866D01*
X27530Y61675D01*
X27918Y61557D01*
X28321Y61517D01*
X28724Y61557D01*
X29112Y61675D01*
X29470Y61866D01*
X29783Y62123D01*
X30040Y62436D01*
X30231Y62794D01*
X30349Y63181D01*
X30388Y63585D01*
X30349Y63988D01*
X30231Y64376D01*
X30040Y64733D01*
X29783Y65047D01*
X29470Y65304D01*
X29112Y65495D01*
X28724Y65612D01*
X28321Y65652D01*
D02*
G37*
G36*
X77683Y61875D02*
Y60930D01*
X78628D01*
X78608Y61084D01*
X78499Y61347D01*
X78326Y61573D01*
X78101Y61746D01*
X77838Y61854D01*
X77683Y61875D01*
D02*
G37*
G36*
X50434Y61685D02*
X49907D01*
Y61308D01*
X50434D01*
Y61685D01*
D02*
G37*
G36*
X47180Y58287D02*
X46428D01*
Y57835D01*
X47180D01*
Y58287D01*
D02*
G37*
G36*
X48186D02*
X47434D01*
Y57835D01*
X48186D01*
Y58287D01*
D02*
G37*
G36*
X66240Y58445D02*
X66168Y58435D01*
X65982Y58359D01*
X65823Y58236D01*
X65701Y58077D01*
X65624Y57892D01*
X65598Y57693D01*
Y57566D01*
X66240D01*
Y58445D01*
D02*
G37*
G36*
X66494D02*
Y57566D01*
X67135D01*
Y57693D01*
X67109Y57892D01*
X67032Y58077D01*
X66910Y58236D01*
X66751Y58359D01*
X66565Y58435D01*
X66494Y58445D01*
D02*
G37*
G36*
X48186Y58993D02*
X47434D01*
Y58541D01*
X48186D01*
Y58993D01*
D02*
G37*
G36*
X57295Y62750D02*
X56047D01*
X54799D01*
X54826Y62550D01*
X54952Y62245D01*
X55153Y61983D01*
X55415Y61782D01*
X55720Y61655D01*
X55979Y61621D01*
X55989Y61620D01*
Y61492D01*
X55979Y61490D01*
X55747Y61460D01*
X55466Y61344D01*
X55225Y61159D01*
X55041Y60918D01*
X54925Y60638D01*
X54885Y60337D01*
X54925Y60036D01*
X55041Y59756D01*
X55225Y59515D01*
X55466Y59331D01*
X55747Y59214D01*
X56047Y59175D01*
X56348Y59214D01*
X56629Y59331D01*
X56869Y59515D01*
X57054Y59756D01*
X57170Y60036D01*
X57210Y60337D01*
X57170Y60638D01*
X57054Y60918D01*
X56869Y61159D01*
X56629Y61344D01*
X56348Y61460D01*
X56116Y61490D01*
X56105Y61492D01*
Y61620D01*
X56116Y61621D01*
X56375Y61655D01*
X56680Y61782D01*
X56942Y61983D01*
X57143Y62245D01*
X57269Y62550D01*
X57295Y62750D01*
D02*
G37*
G36*
X77429Y59335D02*
X77274Y59314D01*
X77012Y59206D01*
X76786Y59033D01*
X76613Y58807D01*
X76505Y58544D01*
X76484Y58390D01*
X77429D01*
Y59335D01*
D02*
G37*
G36*
X77683Y59335D02*
Y58390D01*
X78628D01*
X78608Y58544D01*
X78499Y58807D01*
X78326Y59033D01*
X78101Y59206D01*
X77838Y59314D01*
X77683Y59335D01*
D02*
G37*
%LPD*%
D10*
X56420Y19586D02*
D03*
Y18086D02*
D03*
Y15130D02*
D03*
Y16630D02*
D03*
X63302Y17363D02*
D03*
Y15863D02*
D03*
X72706Y17363D02*
D03*
Y15863D02*
D03*
X50561Y60312D02*
D03*
Y61812D02*
D03*
Y52225D02*
D03*
Y53725D02*
D03*
Y44058D02*
D03*
Y45558D02*
D03*
Y35926D02*
D03*
Y37426D02*
D03*
Y27800D02*
D03*
Y29300D02*
D03*
Y19674D02*
D03*
Y21174D02*
D03*
D12*
X68392Y66998D02*
D03*
X66892D02*
D03*
D16*
X50546Y67437D02*
D03*
X71000Y48623D02*
D03*
D17*
X50546Y69786D02*
D03*
X71000Y50973D02*
D03*
D20*
X74857Y46014D02*
Y52554D01*
X70266Y41423D02*
X74857Y46014D01*
X69911Y40492D02*
X75887Y46469D01*
X68953Y40492D02*
X69911D01*
X68496Y41423D02*
X70266D01*
X69495Y39502D02*
X76293Y46300D01*
X69484Y39502D02*
X69495D01*
X82119Y47988D02*
Y61320D01*
X80211Y46080D02*
X82119Y47988D01*
X81713Y48156D02*
Y56646D01*
X80043Y46487D02*
X81713Y48156D01*
X82525Y47260D02*
Y63453D01*
X80940Y45674D02*
X82525Y47260D01*
X77457Y45674D02*
X80940D01*
X56420Y22024D02*
X56990Y22594D01*
X56420Y19586D02*
Y22024D01*
X77289Y46080D02*
X80211D01*
X77121Y46487D02*
X80043D01*
X70931Y40297D02*
X77121Y46487D01*
X71744Y37357D02*
Y39960D01*
X68831Y23775D02*
Y34445D01*
X71744Y37357D01*
X63142Y18086D02*
X68831Y23775D01*
X56420Y18086D02*
X63142D01*
X56420Y16630D02*
Y18086D01*
X71337Y37525D02*
Y40129D01*
X63000Y29188D02*
X71337Y37525D01*
X62491Y29188D02*
X63000D01*
X70931Y37784D02*
Y40297D01*
X68024Y34878D02*
X70931Y37784D01*
X62818Y34878D02*
X68024D01*
X80096Y65883D02*
X82525Y63453D01*
X80096Y63343D02*
X82119Y61320D01*
X80096Y58263D02*
X81713Y56646D01*
X71337Y40129D02*
X77289Y46080D01*
X71744Y39960D02*
X77457Y45674D01*
X76293Y46300D02*
Y51245D01*
X75887Y46469D02*
Y66213D01*
X78846Y51933D02*
X80096Y53183D01*
X76980Y51933D02*
X78846D01*
X76293Y51245D02*
X76980Y51933D01*
X78848Y67174D02*
X80096Y68423D01*
X76848Y67174D02*
X78848D01*
X75887Y66213D02*
X76848Y67174D01*
X50561Y19674D02*
X53478Y22591D01*
Y24295D01*
X50561Y27800D02*
X53991Y31230D01*
X52040Y34447D02*
X52407D01*
X50561Y35926D02*
X52040Y34447D01*
X52136Y42464D02*
Y42483D01*
X50561Y44058D02*
X52136Y42483D01*
X50561Y52225D02*
X52215Y50571D01*
X50561Y60312D02*
X54325Y56548D01*
Y50367D02*
Y56548D01*
X48061Y60312D02*
X50561D01*
X47307Y60314D02*
X48059D01*
X48061Y60312D01*
X50034Y52225D02*
X50561D01*
X49995Y52186D02*
X50034Y52225D01*
X47307Y52186D02*
X49995D01*
X50034Y44058D02*
X50561D01*
X50034Y44058D02*
X50034Y44058D01*
X47307Y44058D02*
X50034D01*
X50034Y19674D02*
X50561D01*
X47307Y19674D02*
X50034D01*
X50034Y19674D01*
Y27800D02*
X50561D01*
X47307Y27802D02*
X50032D01*
X50034Y27800D01*
Y35926D02*
X50561D01*
X47307Y35930D02*
X50030D01*
X50034Y35926D01*
X72693Y17375D02*
X72706Y17363D01*
X70522Y17375D02*
X72693D01*
X63302Y17363D02*
X65630D01*
D21*
X72759Y68078D02*
X76939Y72258D01*
X72759Y56023D02*
Y68078D01*
X76939Y72258D02*
X78801D01*
X80096Y70963D01*
X68907Y57439D02*
X68970Y57376D01*
Y54462D02*
Y57376D01*
X35611Y72136D02*
X37960Y69786D01*
X50546D01*
X45060Y67437D02*
X50546D01*
X41123Y63500D02*
X45060Y67437D01*
X38138Y26852D02*
X45957D01*
X35611Y29379D02*
X38138Y26852D01*
X38562Y34980D02*
X45957D01*
X35611Y37931D02*
X38562Y34980D01*
X38985Y43108D02*
X45957D01*
X35611Y46482D02*
X38985Y43108D01*
X39408Y51236D02*
X45957D01*
X35611Y55033D02*
X39408Y51236D01*
X35611Y20828D02*
X37715Y18724D01*
X45957D01*
X62976Y48468D02*
X68970Y54462D01*
X62976Y48468D02*
X70313D01*
X70957Y49112D01*
X71000Y50973D02*
Y54263D01*
X72759Y56023D01*
D22*
X39832Y59364D02*
X45957D01*
X35611Y63585D02*
X39832Y59364D01*
D23*
X65642Y17375D02*
D03*
X70522D02*
D03*
X62976Y48468D02*
D03*
Y51008D02*
D03*
Y45928D02*
D03*
Y43388D02*
D03*
X56047Y60337D02*
D03*
Y62877D02*
D03*
Y65417D02*
D03*
D24*
X81004Y13539D02*
D03*
X24190Y13532D02*
D03*
X81004Y79978D02*
D03*
X24190Y79971D02*
D03*
X28321Y72136D02*
D03*
Y63585D02*
D03*
Y55033D02*
D03*
Y46482D02*
D03*
Y37931D02*
D03*
Y29379D02*
D03*
Y20828D02*
D03*
D25*
X80096Y70963D02*
D03*
X77556D02*
D03*
Y68423D02*
D03*
X80096D02*
D03*
Y63343D02*
D03*
X77556D02*
D03*
Y65883D02*
D03*
X80096D02*
D03*
Y55723D02*
D03*
X77556D02*
D03*
Y53183D02*
D03*
X80096D02*
D03*
Y58263D02*
D03*
X77556D02*
D03*
Y60803D02*
D03*
X80096D02*
D03*
Y48103D02*
D03*
X77556D02*
D03*
Y50643D02*
D03*
X80096D02*
D03*
D26*
X35611Y72136D02*
D03*
X41123D02*
D03*
X35611Y63585D02*
D03*
X41123D02*
D03*
X35611Y55033D02*
D03*
X41123D02*
D03*
X35611Y46482D02*
D03*
X41123D02*
D03*
X35611Y37931D02*
D03*
X41123D02*
D03*
X35611Y29379D02*
D03*
X41123D02*
D03*
X35611Y20828D02*
D03*
X41123D02*
D03*
D27*
X63176Y70561D02*
D03*
X66176D02*
D03*
X69176D02*
D03*
Y73561D02*
D03*
X63176D02*
D03*
X66176D02*
D03*
D28*
Y77881D02*
D03*
D29*
X71447Y65313D02*
D03*
X63827D02*
D03*
X71447Y57439D02*
D03*
X63827D02*
D03*
X68907D02*
D03*
X66367D02*
D03*
Y65313D02*
D03*
X68907D02*
D03*
D30*
X49066Y62419D02*
D03*
Y58215D02*
D03*
Y49392D02*
D03*
Y41428D02*
D03*
Y33020D02*
D03*
Y25529D02*
D03*
Y16233D02*
D03*
X70040Y28616D02*
D03*
Y29946D02*
D03*
Y31276D02*
D03*
X67616Y28616D02*
D03*
Y29946D02*
D03*
Y31276D02*
D03*
X68990Y40462D02*
D03*
X69484Y39502D02*
D03*
X82495Y47231D02*
D03*
X56990Y22594D02*
D03*
X68831Y23775D02*
D03*
X62491Y29188D02*
D03*
X62818Y34878D02*
D03*
X74857Y52554D02*
D03*
X68496Y41423D02*
D03*
X53478Y24295D02*
D03*
X54082Y31230D02*
D03*
X52407Y34447D02*
D03*
X52136Y42464D02*
D03*
X52220Y50571D02*
D03*
X54325Y50367D02*
D03*
D31*
X60010Y75979D02*
D03*
Y78179D02*
D03*
X63010Y75979D02*
D03*
Y78179D02*
D03*
D32*
X47307Y58414D02*
D03*
X45957Y59364D02*
D03*
X47307Y50286D02*
D03*
X45957Y51236D02*
D03*
X47307Y42158D02*
D03*
X45957Y43108D02*
D03*
X47307Y34030D02*
D03*
X45957Y34980D02*
D03*
X47307Y25902D02*
D03*
X45957Y26852D02*
D03*
X47307Y19674D02*
D03*
Y17774D02*
D03*
X45957Y18724D02*
D03*
X47307Y35930D02*
D03*
Y27802D02*
D03*
Y44058D02*
D03*
Y52186D02*
D03*
Y60314D02*
D03*
D33*
X63010Y75979D02*
X64606Y74383D01*
Y72131D02*
Y74383D01*
Y72131D02*
X66176Y70561D01*
X60010Y75979D02*
X61438Y74551D01*
Y72299D02*
Y74551D01*
Y72299D02*
X63176Y70561D01*
X67959Y67430D02*
Y68192D01*
Y67430D02*
X68392Y66998D01*
X67352Y68800D02*
X67959Y68192D01*
X68392Y65828D02*
X68907Y65313D01*
X68392Y65828D02*
Y66998D01*
X65344Y69729D02*
X66176Y70561D01*
X65344Y69125D02*
X65669Y68800D01*
X67352D01*
X65344Y69125D02*
Y69729D01*
X66845Y68165D02*
X67089Y67921D01*
Y67195D02*
Y67921D01*
X66892Y66998D02*
X67089Y67195D01*
X66892Y65838D02*
Y66998D01*
X66367Y65313D02*
X66892Y65838D01*
X63176Y70311D02*
Y70561D01*
Y70311D02*
X65322Y68165D01*
X66845D01*
M02*
