G04*
G04 #@! TF.GenerationSoftware,Altium Limited,Altium Designer,18.1.6 (161)*
G04*
G04 Layer_Color=16711935*
%FSLAX44Y44*%
%MOMM*%
G71*
G01*
G75*
%ADD18R,1.4500X0.8500*%
%ADD19R,1.4700X0.9620*%
%ADD20R,2.7400X2.8670*%
%ADD23R,1.1000X0.9000*%
%ADD24R,1.0000X0.7000*%
%ADD25R,0.7000X1.0000*%
%ADD31C,1.7240*%
%ADD32C,4.0100*%
%ADD33C,2.7400*%
%ADD34C,2.2000*%
%ADD35C,1.8510*%
%ADD36C,1.9000*%
%ADD37C,3.7000*%
%ADD38O,1.2160X1.7240*%
%ADD39C,0.9000*%
%ADD67R,1.0000X1.0000*%
D18*
X679590Y199646D02*
D03*
Y180646D02*
D03*
X666090Y190146D02*
D03*
X611942Y605226D02*
D03*
X625442Y595726D02*
D03*
Y614726D02*
D03*
X625733Y512304D02*
D03*
Y493304D02*
D03*
X612233Y502804D02*
D03*
X626163Y307946D02*
D03*
Y288946D02*
D03*
X612663Y298446D02*
D03*
X612185Y402935D02*
D03*
X625685Y393435D02*
D03*
Y412435D02*
D03*
D19*
X888090Y496800D02*
D03*
D20*
Y473305D02*
D03*
D23*
X701523Y192292D02*
D03*
Y178292D02*
D03*
D24*
X649505Y592999D02*
D03*
Y607999D02*
D03*
X646913Y490529D02*
D03*
Y505529D02*
D03*
X647273Y390752D02*
D03*
Y405752D02*
D03*
X647363Y287204D02*
D03*
Y302204D02*
D03*
X811113Y145696D02*
D03*
Y160696D02*
D03*
X905149Y145696D02*
D03*
Y160696D02*
D03*
X742292Y138374D02*
D03*
Y153374D02*
D03*
Y167928D02*
D03*
Y182928D02*
D03*
D25*
X849376Y615455D02*
D03*
X864376D02*
D03*
D31*
X762824Y419446D02*
D03*
D32*
X444695Y509884D02*
D03*
X444812Y407981D02*
D03*
X988510Y120377D02*
D03*
X411095Y127276D02*
D03*
X988137Y786850D02*
D03*
X409279Y786833D02*
D03*
X444695Y714767D02*
D03*
Y613115D02*
D03*
X445616Y302034D02*
D03*
X445734Y194214D02*
D03*
D33*
X517593Y509884D02*
D03*
X572711D02*
D03*
X572828Y407981D02*
D03*
X517710D02*
D03*
X517593Y714767D02*
D03*
X572711D02*
D03*
X517593Y613115D02*
D03*
X572711D02*
D03*
X518515Y302034D02*
D03*
X573633D02*
D03*
X518632Y194214D02*
D03*
X573750D02*
D03*
D34*
X834518Y160823D02*
D03*
X883318D02*
D03*
X807850Y471750D02*
D03*
Y497150D02*
D03*
Y446350D02*
D03*
Y420950D02*
D03*
X738567Y590442D02*
D03*
Y615842D02*
D03*
Y641242D02*
D03*
D35*
X979056Y696697D02*
D03*
X953656D02*
D03*
Y671297D02*
D03*
X979056D02*
D03*
Y620497D02*
D03*
X953656D02*
D03*
Y645897D02*
D03*
X979056D02*
D03*
Y544297D02*
D03*
X953656D02*
D03*
Y518897D02*
D03*
X979056D02*
D03*
Y569697D02*
D03*
X953656D02*
D03*
Y595097D02*
D03*
X979056D02*
D03*
Y468097D02*
D03*
X953656D02*
D03*
Y493497D02*
D03*
X979056D02*
D03*
D36*
X809851Y692683D02*
D03*
X839851D02*
D03*
X869851D02*
D03*
Y722683D02*
D03*
X809851D02*
D03*
X839851D02*
D03*
D37*
Y765883D02*
D03*
D38*
X893510Y639761D02*
D03*
X817310D02*
D03*
X893510Y561021D02*
D03*
X817310D02*
D03*
X868110D02*
D03*
X842710D02*
D03*
Y639761D02*
D03*
X868110D02*
D03*
D39*
X654718Y448801D02*
D03*
X934539Y368296D02*
D03*
X932504Y394203D02*
D03*
X653931Y771386D02*
D03*
X700155Y794806D02*
D03*
X657033Y790569D02*
D03*
X611591Y792160D02*
D03*
X677351Y114397D02*
D03*
X654547Y245672D02*
D03*
X606475Y246288D02*
D03*
X655117Y346291D02*
D03*
X607976Y353015D02*
D03*
X609803Y453894D02*
D03*
X610729Y555301D02*
D03*
X654255Y551597D02*
D03*
X632092Y667646D02*
D03*
X606162Y707004D02*
D03*
X794405Y182710D02*
D03*
X858324Y144747D02*
D03*
X939885Y196342D02*
D03*
X845814Y429258D02*
D03*
X758650Y373243D02*
D03*
X695886Y614578D02*
D03*
X662705Y607122D02*
D03*
X652643Y223847D02*
D03*
X665715Y168304D02*
D03*
X660379Y502484D02*
D03*
X631845Y566159D02*
D03*
X695886Y506646D02*
D03*
X631972Y354218D02*
D03*
X660431Y401960D02*
D03*
X660734Y298857D02*
D03*
X713786Y192050D02*
D03*
X701438Y409445D02*
D03*
X718914Y299369D02*
D03*
X631679Y460713D02*
D03*
X656170Y703300D02*
D03*
X631679Y245628D02*
D03*
Y112217D02*
D03*
X878489Y273235D02*
D03*
Y286535D02*
D03*
Y299835D02*
D03*
X854249Y273235D02*
D03*
Y286535D02*
D03*
Y299835D02*
D03*
X867992Y391693D02*
D03*
X872934Y382088D02*
D03*
X1003048Y459382D02*
D03*
X747994Y213015D02*
D03*
X866405Y224819D02*
D03*
X803000Y278949D02*
D03*
X806271Y335846D02*
D03*
X926664Y512611D02*
D03*
X863049Y401299D02*
D03*
X712256Y229405D02*
D03*
D67*
X778190Y746862D02*
D03*
Y768862D02*
D03*
X808190Y746862D02*
D03*
Y768862D02*
D03*
M02*
