G04*
G04 #@! TF.GenerationSoftware,Altium Limited,Altium Designer,18.1.6 (161)*
G04*
G04 Layer_Color=32896*
%FSLAX44Y44*%
%MOMM*%
G71*
G01*
G75*
%ADD10C,0.2500*%
%ADD12C,0.2540*%
%ADD13C,0.2000*%
%ADD15C,0.1270*%
%ADD16R,3.6830X0.5080*%
D10*
X680840Y208396D02*
G03*
X680840Y208396I-1250J0D01*
G01*
X626983Y521054D02*
G03*
X626983Y521054I-1250J0D01*
G01*
X627413Y316696D02*
G03*
X627413Y316696I-1250J0D01*
G01*
X626935Y421185D02*
G03*
X626935Y421185I-1250J0D01*
G01*
D12*
X643255Y588250D02*
Y612749D01*
Y588250D02*
X655755D01*
Y612749D01*
X643255D02*
X655755D01*
X640663Y485779D02*
Y510279D01*
Y485779D02*
X653163D01*
Y510279D01*
X640663D02*
X653163D01*
X641023Y386002D02*
Y410502D01*
Y386002D02*
X653523D01*
Y410502D01*
X641023D02*
X653523D01*
X641113Y282453D02*
Y306954D01*
Y282453D02*
X653613D01*
Y306954D01*
X641113D02*
X653613D01*
X804863Y140946D02*
X817363D01*
X804863D02*
Y165446D01*
X817363D01*
Y140946D02*
Y165446D01*
X898899Y140946D02*
X911399D01*
X898899D02*
Y165446D01*
X911399D01*
Y140946D02*
Y165446D01*
X736042Y133624D02*
X748542D01*
X736042D02*
Y158124D01*
X748542D01*
Y133624D02*
Y158124D01*
X736042Y163178D02*
X748542D01*
X736042D02*
Y187678D01*
X748542D01*
Y163178D02*
Y187678D01*
X844625Y609205D02*
X869126D01*
X844625D02*
Y621705D01*
X869126D01*
Y609205D02*
Y621705D01*
X869040Y451715D02*
X907140D01*
X869040D02*
Y508865D01*
X907140D01*
Y451715D02*
Y508865D01*
X717716Y213660D02*
Y228895D01*
X710099D01*
X707559Y226356D01*
Y221278D01*
X710099Y218738D01*
X717716D01*
X712638D02*
X707559Y213660D01*
X702481D02*
X697403D01*
X699942D01*
Y228895D01*
X702481Y226356D01*
X689785Y213660D02*
X684707D01*
X687246D01*
Y228895D01*
X689785Y226356D01*
X618680Y632771D02*
Y642928D01*
X621219Y645467D01*
X626298D01*
X628837Y642928D01*
Y632771D01*
X626298Y630232D01*
X621219D01*
X623759Y635311D02*
X618680Y630232D01*
X621219D02*
X618680Y632771D01*
X613602Y630232D02*
X608523D01*
X611063D01*
Y645467D01*
X613602Y642928D01*
X623535Y328879D02*
Y337343D01*
X625651Y339459D01*
X629883D01*
X631999Y337343D01*
Y328879D01*
X629883Y326763D01*
X625651D01*
X627767Y330995D02*
X623535Y326763D01*
X625651D02*
X623535Y328879D01*
X610839Y339459D02*
X619303D01*
Y333111D01*
X615071Y335227D01*
X612955D01*
X610839Y333111D01*
Y328879D01*
X612955Y326763D01*
X617187D01*
X619303Y328879D01*
X730872Y172071D02*
Y184767D01*
X724524D01*
X722408Y182651D01*
Y178419D01*
X724524Y176303D01*
X730872D01*
X726640D02*
X722408Y172071D01*
X718176D02*
X713944D01*
X716060D01*
Y184767D01*
X718176Y182651D01*
X722848Y153912D02*
X724964Y156028D01*
X729196D01*
X731312Y153912D01*
Y145448D01*
X729196Y143332D01*
X724964D01*
X722848Y145448D01*
X718616Y153912D02*
X716500Y156028D01*
X712268D01*
X710152Y153912D01*
Y151796D01*
X712268Y149680D01*
X710152Y147564D01*
Y145448D01*
X712268Y143332D01*
X716500D01*
X718616Y145448D01*
Y147564D01*
X716500Y149680D01*
X718616Y151796D01*
Y153912D01*
X716500Y149680D02*
X712268D01*
X901609Y185011D02*
X903725Y187127D01*
X907957D01*
X910073Y185011D01*
Y176547D01*
X907957Y174431D01*
X903725D01*
X901609Y176547D01*
X897377Y187127D02*
X888913D01*
Y185011D01*
X897377Y176547D01*
Y174431D01*
X807629Y185011D02*
X809745Y187127D01*
X813977D01*
X816093Y185011D01*
Y176547D01*
X813977Y174431D01*
X809745D01*
X807629Y176547D01*
X794933Y187127D02*
X799165Y185011D01*
X803397Y180779D01*
Y176547D01*
X801281Y174431D01*
X797049D01*
X794933Y176547D01*
Y178663D01*
X797049Y180779D01*
X803397D01*
X783327Y794187D02*
Y781491D01*
X776979D01*
X774863Y783607D01*
Y792071D01*
X776979Y794187D01*
X783327D01*
X770631Y792071D02*
X768515Y794187D01*
X764283D01*
X762167Y792071D01*
Y789955D01*
X764283Y787839D01*
X762167Y785723D01*
Y783607D01*
X764283Y781491D01*
X768515D01*
X770631Y783607D01*
Y785723D01*
X768515Y787839D01*
X770631Y789955D01*
Y792071D01*
X768515Y787839D02*
X764283D01*
X813299Y794187D02*
Y781491D01*
X806951D01*
X804835Y783607D01*
Y792071D01*
X806951Y794187D01*
X813299D01*
X800603D02*
X792139D01*
Y792071D01*
X800603Y783607D01*
Y781491D01*
X920376Y607835D02*
Y620531D01*
X914028D01*
X911912Y618414D01*
Y614183D01*
X914028Y612066D01*
X920376D01*
X916143D02*
X911912Y607835D01*
X907680D02*
X903448D01*
X905564D01*
Y620531D01*
X907680Y618414D01*
X888636Y607835D02*
X897100D01*
X888636Y616298D01*
Y618414D01*
X890752Y620531D01*
X894984D01*
X897100Y618414D01*
X905755Y530535D02*
Y517839D01*
X899407D01*
X897291Y519955D01*
Y528419D01*
X899407Y530535D01*
X905755D01*
X884595Y517839D02*
X893059D01*
X884595Y526303D01*
Y528419D01*
X886711Y530535D01*
X890943D01*
X893059Y528419D01*
X617936Y534486D02*
Y542950D01*
X620052Y545066D01*
X624284D01*
X626400Y542950D01*
Y534486D01*
X624284Y532370D01*
X620052D01*
X622168Y536602D02*
X617936Y532370D01*
X620052D02*
X617936Y534486D01*
X605240Y532370D02*
X613704D01*
X605240Y540834D01*
Y542950D01*
X607356Y545066D01*
X611588D01*
X613704Y542950D01*
X623039Y433466D02*
Y441930D01*
X625155Y444046D01*
X629387D01*
X631503Y441930D01*
Y433466D01*
X629387Y431350D01*
X625155D01*
X627271Y435582D02*
X623039Y431350D01*
X625155D02*
X623039Y433466D01*
X618807Y441930D02*
X616691Y444046D01*
X612459D01*
X610343Y441930D01*
Y439814D01*
X612459Y437698D01*
X614575D01*
X612459D01*
X610343Y435582D01*
Y433466D01*
X612459Y431350D01*
X616691D01*
X618807Y433466D01*
X668043Y213321D02*
Y221785D01*
X670159Y223901D01*
X674391D01*
X676507Y221785D01*
Y213321D01*
X674391Y211205D01*
X670159D01*
X672275Y215437D02*
X668043Y211205D01*
X670159D02*
X668043Y213321D01*
X655347Y223901D02*
X659579Y221785D01*
X663811Y217553D01*
Y213321D01*
X661695Y211205D01*
X657463D01*
X655347Y213321D01*
Y215437D01*
X657463Y217553D01*
X663811D01*
X668513Y619044D02*
Y631740D01*
X662165D01*
X660049Y629624D01*
Y625392D01*
X662165Y623276D01*
X668513D01*
X664281D02*
X660049Y619044D01*
X647353Y631740D02*
X651585Y629624D01*
X655817Y625392D01*
Y621160D01*
X653701Y619044D01*
X649469D01*
X647353Y621160D01*
Y623276D01*
X649469Y625392D01*
X655817D01*
X664105Y516344D02*
Y529040D01*
X657757D01*
X655641Y526924D01*
Y522692D01*
X657757Y520576D01*
X664105D01*
X659873D02*
X655641Y516344D01*
X651410Y529040D02*
X642945D01*
Y526924D01*
X651410Y518460D01*
Y516344D01*
X665464Y417554D02*
Y430250D01*
X659116D01*
X657000Y428134D01*
Y423902D01*
X659116Y421786D01*
X665464D01*
X661232D02*
X657000Y417554D01*
X652768Y428134D02*
X650652Y430250D01*
X646420D01*
X644304Y428134D01*
Y426018D01*
X646420Y423902D01*
X644304Y421786D01*
Y419670D01*
X646420Y417554D01*
X650652D01*
X652768Y419670D01*
Y421786D01*
X650652Y423902D01*
X652768Y426018D01*
Y428134D01*
X650652Y423902D02*
X646420D01*
X678721Y313519D02*
Y326215D01*
X672373D01*
X670257Y324099D01*
Y319867D01*
X672373Y317752D01*
X678721D01*
X674489D02*
X670257Y313519D01*
X666025D02*
X661793D01*
X663909D01*
Y326215D01*
X666025Y324099D01*
X655445D02*
X653329Y326215D01*
X649097D01*
X646981Y324099D01*
Y315636D01*
X649097Y313519D01*
X653329D01*
X655445Y315636D01*
Y324099D01*
D13*
X663340Y205646D02*
X669340D01*
X663340Y197396D02*
Y205646D01*
Y174646D02*
X669340D01*
X663340D02*
Y182896D01*
X609483Y510055D02*
Y518304D01*
X615483D01*
X609483Y487304D02*
X615483D01*
X609483D02*
Y495555D01*
X609913Y305696D02*
Y313946D01*
X615913D01*
X609913Y282946D02*
X615913D01*
X609913D02*
Y291196D01*
X609435Y387435D02*
Y395685D01*
Y387435D02*
X615435D01*
X609435Y418435D02*
X615435D01*
X609435Y410185D02*
Y418435D01*
D15*
X785302Y745162D02*
Y770562D01*
X771078Y744908D02*
Y770308D01*
X784032Y745162D02*
X785302D01*
X771078Y770308D02*
X772348D01*
X771078Y744908D02*
X772348D01*
X784032Y770562D02*
X785302D01*
X815302Y745162D02*
Y770562D01*
X801078Y744908D02*
Y770308D01*
X814032Y745162D02*
X815302D01*
X801078Y770308D02*
X802348D01*
X801078Y744908D02*
X802348D01*
X814032Y770562D02*
X815302D01*
D16*
X887455Y455528D02*
D03*
M02*
