M48
;Layer_Color=9474304
;FILE_FORMAT=4:4
METRIC,LZ
;TYPE=PLATED
T1F00S00C0.3000
T2F00S00C0.5000
T3F00S00C0.6350
T4F00S00C1.0160
T5F00S00C1.0200
T6F00S00C1.1500
T7F00S00C1.8542
T8F00S00C2.9972
T9F00S00C3.0000
T10F00S00C3.1750
%
T01
X00631679Y00112217
X00677351Y00114397
X00665715Y00168304
X00652643Y00223847
X00654547Y00245672
X00631679Y00245628
X00606475Y00246288
X00660734Y00298857
X00655117Y00346291
X00631972Y00354218
X00607976Y00353015
X00718914Y00299369
X00712256Y00229405
X00713786Y0019205
X00747994Y00213015
X0075865Y00373243
X00806271Y00335846
X00803Y00278949
X00854249Y00273235
Y00286535
Y00299835
X00878489
Y00286535
Y00273235
X00866405Y00224819
X00858324Y00144747
X00794405Y0018271
X00939885Y00196342
X00934539Y00368296
X00932504Y00394203
X00867992Y00391693
X00872934Y00382088
X00863049Y00401299
X00845814Y00429258
X00926664Y00512611
X01003048Y00459382
X00701438Y00409445
X00660431Y0040196
X00654718Y00448801
X00631679Y00460713
X00609803Y00453894
X00660379Y00502484
X00695886Y00506646
X00654255Y00551597
X00631845Y00566159
X00610729Y00555301
X00662705Y00607122
X00695886Y00614578
X00632092Y00667646
X0065617Y007033
X00606162Y00707004
X00611591Y0079216
X00657033Y00790569
X00653931Y00771386
X00700155Y00794806
T02
X00834518Y00160823
X00883318
T03
X0081731Y00561021
X0084271
X0086811
X0089351
Y00639761
X0086811
X0084271
X0081731
T04
X00953656Y00468097
X00979056
Y00493497
Y00518897
Y00544297
X00953656
Y00518897
Y00493497
Y00569697
X00979056
Y00595097
Y00620497
X00953656
Y00645897
Y00671297
Y00696697
X00979056
Y00671297
Y00645897
X00953656Y00595097
T05
X00809851Y00692683
X00839851
X00869851
Y00722683
X00839851
X00809851
T06
X0080785Y0042095
Y0044635
Y0047175
Y0049715
X00738567Y00590442
Y00615842
Y00641242
T07
X00518632Y00194214
X0057375
X00573633Y00302034
X00518515
X0051771Y00407981
X00572828
X00572711Y00509884
X00517593
Y00613115
X00572711
Y00714767
X00517593
T08
X00445734Y00194214
X00445616Y00302034
X00444812Y00407981
X00444695Y00509884
Y00613115
Y00714767
T09
X00839851Y00765883
T10
X00411095Y00127276
X0098851Y00120377
X00988137Y0078685
X00409279Y00786833
M30
