G04*
G04 #@! TF.GenerationSoftware,Altium Limited,Altium Designer,18.1.6 (161)*
G04*
G04 Layer_Physical_Order=2*
G04 Layer_Color=16711680*
%FSLAX44Y44*%
%MOMM*%
G71*
G01*
G75*
%ADD12C,0.2540*%
%ADD40R,1.2500X0.6500*%
%ADD41R,1.2700X0.7620*%
%ADD42R,2.5400X2.6670*%
%ADD45R,0.9000X0.7000*%
%ADD46R,0.8000X0.5000*%
%ADD47R,0.5000X0.8000*%
%ADD53C,0.6350*%
%ADD56C,1.5240*%
%ADD57C,3.8100*%
%ADD58C,2.5400*%
%ADD59C,2.0000*%
%ADD60C,1.6510*%
%ADD61C,1.7000*%
%ADD62C,3.5000*%
%ADD63O,1.0160X1.5240*%
%ADD64C,0.7000*%
%ADD65R,0.8000X0.8000*%
%ADD66C,0.3810*%
G36*
X992917Y142531D02*
X997154Y141246D01*
X1001059Y139158D01*
X1004482Y136349D01*
X1007291Y132926D01*
X1009379Y129021D01*
X1010664Y124784D01*
X1011098Y120377D01*
X1010664Y115971D01*
X1009379Y111733D01*
X1007291Y107828D01*
X1004482Y104405D01*
X1001059Y101596D01*
X997154Y99509D01*
X992917Y98223D01*
X988510Y97789D01*
X984104Y98223D01*
X979866Y99509D01*
X975961Y101596D01*
X972538Y104405D01*
X969729Y107828D01*
X967642Y111733D01*
X966357Y115971D01*
X965922Y120377D01*
X966357Y124784D01*
X967642Y129021D01*
X969729Y132926D01*
X972538Y136349D01*
X975961Y139158D01*
X979866Y141246D01*
X984104Y142531D01*
X988510Y142965D01*
X992917Y142531D01*
D02*
G37*
G36*
X1019464Y632929D02*
X1019464Y543595D01*
X1019464Y543595D01*
X1019464Y543595D01*
X1019464Y364927D01*
X1019465Y275593D01*
Y93195D01*
X999879D01*
X999626Y94465D01*
X1001350Y95179D01*
X1005134Y97497D01*
X1008508Y100379D01*
X1011390Y103754D01*
X1013709Y107538D01*
X1015407Y111638D01*
X1016443Y115953D01*
X1016792Y120377D01*
X1016443Y124801D01*
X1015407Y129117D01*
X1013709Y133217D01*
X1011390Y137001D01*
X1008508Y140375D01*
X1005134Y143257D01*
X1001350Y145576D01*
X997250Y147274D01*
X992934Y148310D01*
X988510Y148659D01*
X984086Y148310D01*
X979771Y147274D01*
X975671Y145576D01*
X971887Y143257D01*
X968512Y140375D01*
X965630Y137001D01*
X963312Y133217D01*
X961613Y129117D01*
X960577Y124801D01*
X960229Y120377D01*
X960577Y115953D01*
X961613Y111638D01*
X963312Y107538D01*
X965630Y103754D01*
X968512Y100379D01*
X971887Y97497D01*
X975671Y95179D01*
X977394Y94465D01*
X977142Y93195D01*
X371038Y93195D01*
X371038Y818578D01*
X1019464D01*
X1019464Y632929D01*
D02*
G37*
%LPC*%
G36*
X988510Y141051D02*
X984477Y140654D01*
X980599Y139477D01*
X977025Y137567D01*
X973892Y134996D01*
X971321Y131863D01*
X969410Y128289D01*
X968234Y124410D01*
X967837Y120377D01*
X968234Y116344D01*
X969410Y112466D01*
X971321Y108892D01*
X973892Y105759D01*
X977025Y103188D01*
X980599Y101277D01*
X984477Y100101D01*
X988510Y99704D01*
X992543Y100101D01*
X996422Y101277D01*
X999996Y103188D01*
X1003129Y105759D01*
X1005700Y108892D01*
X1007610Y112466D01*
X1008787Y116344D01*
X1009184Y120377D01*
X1008787Y124410D01*
X1007610Y128289D01*
X1005700Y131863D01*
X1003129Y134996D01*
X999996Y137567D01*
X996422Y139477D01*
X992543Y140654D01*
X988510Y141051D01*
D02*
G37*
G36*
X814690Y775362D02*
X809460D01*
Y770132D01*
X814690D01*
Y775362D01*
D02*
G37*
G36*
X784690D02*
X779460D01*
Y770132D01*
X784690D01*
Y775362D01*
D02*
G37*
G36*
X806920D02*
X801690D01*
Y770132D01*
X806920D01*
Y775362D01*
D02*
G37*
G36*
X776920D02*
X771690D01*
Y770132D01*
X776920D01*
Y775362D01*
D02*
G37*
G36*
X814690Y767592D02*
X809460D01*
Y762362D01*
X814690D01*
Y767592D01*
D02*
G37*
G36*
X806920D02*
X801690D01*
Y762362D01*
X806920D01*
Y767592D01*
D02*
G37*
G36*
X784690D02*
X779460D01*
Y762362D01*
X784690D01*
Y767592D01*
D02*
G37*
G36*
X776920D02*
X771690D01*
Y762362D01*
X776920D01*
Y767592D01*
D02*
G37*
G36*
X988137Y815131D02*
X983713Y814783D01*
X979398Y813747D01*
X975298Y812048D01*
X971514Y809730D01*
X968139Y806848D01*
X965257Y803473D01*
X962938Y799689D01*
X961240Y795589D01*
X960204Y791274D01*
X959856Y786850D01*
X960204Y782426D01*
X961240Y778110D01*
X962938Y774010D01*
X965257Y770226D01*
X968139Y766852D01*
X971514Y763970D01*
X975298Y761651D01*
X979398Y759953D01*
X983713Y758917D01*
X988137Y758568D01*
X992561Y758917D01*
X996876Y759953D01*
X1000976Y761651D01*
X1004760Y763970D01*
X1008135Y766852D01*
X1011017Y770226D01*
X1013336Y774010D01*
X1015034Y778110D01*
X1016070Y782426D01*
X1016418Y786850D01*
X1016070Y791274D01*
X1015034Y795589D01*
X1013336Y799689D01*
X1011017Y803473D01*
X1008135Y806848D01*
X1004760Y809730D01*
X1000976Y812048D01*
X996876Y813747D01*
X992561Y814783D01*
X988137Y815131D01*
D02*
G37*
G36*
X409279Y815114D02*
X404855Y814766D01*
X400539Y813730D01*
X396439Y812031D01*
X392655Y809713D01*
X389281Y806831D01*
X386399Y803456D01*
X384080Y799672D01*
X382382Y795572D01*
X381346Y791257D01*
X380998Y786833D01*
X381346Y782409D01*
X382382Y778093D01*
X384080Y773993D01*
X386399Y770210D01*
X389281Y766835D01*
X392655Y763953D01*
X396439Y761634D01*
X400539Y759936D01*
X404855Y758900D01*
X409279Y758552D01*
X413703Y758900D01*
X418018Y759936D01*
X422118Y761634D01*
X425902Y763953D01*
X429277Y766835D01*
X432159Y770210D01*
X434477Y773993D01*
X436176Y778093D01*
X437212Y782409D01*
X437560Y786833D01*
X437212Y791257D01*
X436176Y795572D01*
X434477Y799672D01*
X432159Y803456D01*
X429277Y806831D01*
X425902Y809713D01*
X422118Y812031D01*
X418018Y813730D01*
X413703Y814766D01*
X409279Y815114D01*
D02*
G37*
G36*
X839851Y784999D02*
X836121Y784632D01*
X832535Y783544D01*
X829230Y781777D01*
X826334Y779400D01*
X823956Y776503D01*
X822190Y773198D01*
X821102Y769612D01*
X820735Y765883D01*
X821102Y762153D01*
X822190Y758567D01*
X823956Y755262D01*
X826334Y752366D01*
X829230Y749988D01*
X832535Y748222D01*
X836121Y747134D01*
X839851Y746767D01*
X843580Y747134D01*
X847166Y748222D01*
X850471Y749988D01*
X853368Y752366D01*
X855745Y755262D01*
X857512Y758567D01*
X858599Y762153D01*
X858967Y765883D01*
X858599Y769612D01*
X857512Y773198D01*
X855745Y776503D01*
X853368Y779400D01*
X850471Y781777D01*
X847166Y783544D01*
X843580Y784632D01*
X839851Y784999D01*
D02*
G37*
G36*
X844296Y732748D02*
Y727128D01*
X849916D01*
X849459Y728230D01*
X847696Y730528D01*
X845398Y732291D01*
X844296Y732748D01*
D02*
G37*
G36*
X813714Y752386D02*
X802666D01*
Y741338D01*
X808770D01*
X820654Y729454D01*
Y726114D01*
X819384Y725862D01*
X818607Y727738D01*
X817000Y729832D01*
X814906Y731439D01*
X812467Y732449D01*
X809851Y732793D01*
X807234Y732449D01*
X804796Y731439D01*
X802701Y729832D01*
X801095Y727738D01*
X800085Y725300D01*
X799740Y722683D01*
X800085Y720066D01*
X801095Y717627D01*
X802701Y715534D01*
X804796Y713927D01*
X807234Y712917D01*
X809851Y712572D01*
X812467Y712917D01*
X814906Y713927D01*
X817000Y715534D01*
X818607Y717627D01*
X819384Y719504D01*
X820654Y719251D01*
Y708383D01*
X820920Y707046D01*
X821678Y705911D01*
X830731Y696859D01*
X830085Y695300D01*
X829740Y692683D01*
X830085Y690066D01*
X830731Y688507D01*
X829059Y686835D01*
X828301Y685701D01*
X828035Y684363D01*
Y678736D01*
X826936Y678182D01*
X826808Y678166D01*
X818060Y686915D01*
X818607Y687627D01*
X819617Y690066D01*
X819961Y692683D01*
X819617Y695300D01*
X818607Y697738D01*
X817000Y699832D01*
X814906Y701439D01*
X812467Y702449D01*
X809851Y702793D01*
X807234Y702449D01*
X805675Y701803D01*
X781686Y725792D01*
Y741338D01*
X783714D01*
Y752386D01*
X772666D01*
Y741338D01*
X774694D01*
Y724343D01*
X774960Y723006D01*
X775718Y721871D01*
X800731Y696859D01*
X800085Y695300D01*
X799740Y692683D01*
X800085Y690066D01*
X801095Y687627D01*
X802701Y685534D01*
X804796Y683927D01*
X807234Y682917D01*
X809851Y682572D01*
X812204Y682882D01*
X827817Y667268D01*
Y651158D01*
X828083Y649819D01*
X828841Y648685D01*
X836049Y641478D01*
Y637221D01*
X836276Y635497D01*
X836941Y633890D01*
X838000Y632511D01*
X839214Y631579D01*
Y622120D01*
X839480Y620782D01*
X840238Y619648D01*
X845351Y614534D01*
Y609931D01*
X853400D01*
Y620979D01*
X848796D01*
X846206Y623568D01*
Y631579D01*
X847420Y632511D01*
X848478Y633890D01*
X849144Y635497D01*
X849371Y637221D01*
Y642301D01*
X849144Y644025D01*
X848478Y645631D01*
X847420Y647011D01*
X846040Y648069D01*
X844434Y648735D01*
X842710Y648962D01*
X840986Y648735D01*
X839379Y648069D01*
X839360Y648055D01*
X834809Y652606D01*
Y668717D01*
X834543Y670054D01*
X834336Y670364D01*
X834546Y670931D01*
X835058Y671570D01*
X850161D01*
X854190Y667542D01*
Y661373D01*
X854456Y660035D01*
X855214Y658901D01*
X858515Y655600D01*
Y645349D01*
X858781Y644011D01*
X859539Y642877D01*
X861449Y640966D01*
Y637221D01*
X861676Y635497D01*
X862341Y633890D01*
X863400Y632511D01*
X864614Y631579D01*
Y620979D01*
X860351D01*
Y609931D01*
X868400D01*
Y614534D01*
X870582Y616717D01*
X870582Y616717D01*
X871340Y617851D01*
X871606Y619189D01*
Y631579D01*
X872820Y632511D01*
X873878Y633890D01*
X874544Y635497D01*
X874771Y637221D01*
Y642301D01*
X874544Y644025D01*
X873878Y645631D01*
X872820Y647011D01*
X871440Y648069D01*
X869834Y648735D01*
X868110Y648962D01*
X866777Y648786D01*
X865507Y649582D01*
Y657048D01*
X865507Y657048D01*
X865241Y658386D01*
X864483Y659520D01*
X864483Y659520D01*
X861182Y662821D01*
Y668990D01*
X861182Y668990D01*
X860916Y670328D01*
X860158Y671462D01*
X860158Y671462D01*
X854081Y677539D01*
X852947Y678297D01*
X851609Y678563D01*
X836230D01*
X835027Y679765D01*
Y682551D01*
X836102Y683386D01*
X837234Y682917D01*
X839851Y682572D01*
X842467Y682917D01*
X844906Y683927D01*
X847000Y685534D01*
X848607Y687627D01*
X849617Y690066D01*
X849961Y692683D01*
X849617Y695300D01*
X848607Y697738D01*
X847000Y699832D01*
X844906Y701439D01*
X842467Y702449D01*
X839851Y702793D01*
X837234Y702449D01*
X835675Y701803D01*
X827646Y709832D01*
Y721381D01*
X828916Y721465D01*
X829134Y719811D01*
X830242Y717135D01*
X832005Y714837D01*
X834303Y713074D01*
X835406Y712618D01*
Y722683D01*
Y732748D01*
X834303Y732291D01*
X832005Y730528D01*
X830242Y728230D01*
X829134Y725554D01*
X828916Y723901D01*
X827646Y723984D01*
Y730902D01*
X827380Y732240D01*
X826622Y733374D01*
X813714Y746283D01*
Y752386D01*
D02*
G37*
G36*
X522038Y729302D02*
Y719212D01*
X532129D01*
X531704Y720612D01*
X530293Y723252D01*
X528393Y725567D01*
X526079Y727466D01*
X523438Y728878D01*
X522038Y729302D01*
D02*
G37*
G36*
X513148D02*
X511748Y728878D01*
X509108Y727466D01*
X506793Y725567D01*
X504894Y723252D01*
X503482Y720612D01*
X503058Y719212D01*
X513148D01*
Y729302D01*
D02*
G37*
G36*
X849916Y718238D02*
X844296D01*
Y712618D01*
X845398Y713074D01*
X847696Y714837D01*
X849459Y717135D01*
X849916Y718238D01*
D02*
G37*
G36*
X869851Y732793D02*
X867234Y732449D01*
X864796Y731439D01*
X862701Y729832D01*
X861095Y727738D01*
X860085Y725300D01*
X859740Y722683D01*
X860085Y720066D01*
X861095Y717627D01*
X862701Y715534D01*
X864796Y713927D01*
X867234Y712917D01*
X869851Y712572D01*
X872467Y712917D01*
X874906Y713927D01*
X877000Y715534D01*
X878607Y717627D01*
X879617Y720066D01*
X879961Y722683D01*
X879617Y725300D01*
X878607Y727738D01*
X877000Y729832D01*
X874906Y731439D01*
X872467Y732449D01*
X869851Y732793D01*
D02*
G37*
G36*
X572711Y729114D02*
X568998Y728625D01*
X565538Y727191D01*
X562567Y724911D01*
X560287Y721940D01*
X558853Y718480D01*
X558365Y714767D01*
X558853Y711054D01*
X560287Y707594D01*
X562567Y704622D01*
X565538Y702342D01*
X568998Y700909D01*
X572711Y700420D01*
X576424Y700909D01*
X579885Y702342D01*
X582856Y704622D01*
X585136Y707594D01*
X586569Y711054D01*
X587058Y714767D01*
X586569Y718480D01*
X585136Y721940D01*
X582856Y724911D01*
X579885Y727191D01*
X576424Y728625D01*
X572711Y729114D01*
D02*
G37*
G36*
X532129Y710322D02*
X522038D01*
Y700231D01*
X523438Y700656D01*
X526079Y702067D01*
X528393Y703967D01*
X530293Y706281D01*
X531704Y708922D01*
X532129Y710322D01*
D02*
G37*
G36*
X513148D02*
X503058D01*
X503482Y708922D01*
X504894Y706281D01*
X506793Y703967D01*
X509108Y702067D01*
X511748Y700656D01*
X513148Y700231D01*
Y710322D01*
D02*
G37*
G36*
X444695Y735440D02*
X440662Y735043D01*
X436784Y733867D01*
X433210Y731956D01*
X430077Y729385D01*
X427506Y726252D01*
X425596Y722678D01*
X424419Y718800D01*
X424022Y714767D01*
X424419Y710734D01*
X425596Y706855D01*
X427506Y703281D01*
X430077Y700148D01*
X433210Y697577D01*
X436784Y695667D01*
X440662Y694491D01*
X444695Y694093D01*
X448728Y694491D01*
X452607Y695667D01*
X456181Y697577D01*
X459314Y700148D01*
X461885Y703281D01*
X463795Y706855D01*
X464972Y710734D01*
X465369Y714767D01*
X464972Y718800D01*
X463795Y722678D01*
X461885Y726252D01*
X459314Y729385D01*
X456181Y731956D01*
X452607Y733867D01*
X448728Y735043D01*
X444695Y735440D01*
D02*
G37*
G36*
X966102Y714442D02*
X947487D01*
X945653Y714077D01*
X944099Y713039D01*
X902295Y671234D01*
X901256Y669680D01*
X900891Y667847D01*
Y645056D01*
X899622Y644803D01*
X899278Y645631D01*
X898220Y647011D01*
X896840Y648069D01*
X895234Y648735D01*
X893510Y648962D01*
X891786Y648735D01*
X890179Y648069D01*
X888800Y647011D01*
X887741Y645631D01*
X887076Y644025D01*
X886849Y642301D01*
Y637221D01*
X887076Y635497D01*
X887741Y633890D01*
X888800Y632511D01*
X890179Y631452D01*
X891786Y630787D01*
X893510Y630560D01*
X895234Y630787D01*
X896840Y631452D01*
X898220Y632511D01*
X899278Y633890D01*
X899622Y634718D01*
X900891Y634466D01*
Y566316D01*
X899622Y566063D01*
X899278Y566891D01*
X898220Y568271D01*
X896840Y569329D01*
X895234Y569995D01*
X893510Y570222D01*
X891786Y569995D01*
X890179Y569329D01*
X888800Y568271D01*
X887741Y566891D01*
X887076Y565285D01*
X886849Y563561D01*
Y558481D01*
X887076Y556757D01*
X887741Y555150D01*
X888800Y553771D01*
X890179Y552712D01*
X891786Y552047D01*
X893510Y551820D01*
X895234Y552047D01*
X896840Y552712D01*
X898220Y553771D01*
X899278Y555150D01*
X899622Y555978D01*
X900891Y555726D01*
Y549280D01*
X884702Y533091D01*
X883664Y531537D01*
X883299Y529703D01*
Y502134D01*
X880216D01*
Y491466D01*
X895964D01*
Y502134D01*
X892881D01*
Y527719D01*
X909070Y543908D01*
X910109Y545462D01*
X910474Y547296D01*
Y665862D01*
X942694Y698083D01*
X943897Y697489D01*
X943793Y696697D01*
X944129Y694144D01*
X945114Y691765D01*
X946682Y689722D01*
X948724Y688155D01*
X951103Y687170D01*
X953656Y686833D01*
X956209Y687170D01*
X958588Y688155D01*
X960631Y689722D01*
X962198Y691765D01*
X963183Y694144D01*
X963520Y696697D01*
X963183Y699250D01*
X962198Y701628D01*
X960693Y703590D01*
X960792Y704147D01*
X961034Y704860D01*
X964118D01*
X969587Y699390D01*
X969529Y699250D01*
X969193Y696697D01*
X969529Y694144D01*
X970514Y691765D01*
X972082Y689722D01*
X974124Y688155D01*
X976503Y687170D01*
X979056Y686833D01*
X981609Y687170D01*
X983988Y688155D01*
X986031Y689722D01*
X987598Y691765D01*
X988583Y694144D01*
X988920Y696697D01*
X988583Y699250D01*
X987598Y701628D01*
X986031Y703671D01*
X983988Y705239D01*
X981609Y706224D01*
X979056Y706560D01*
X976503Y706224D01*
X976363Y706166D01*
X969490Y713039D01*
X967936Y714077D01*
X966102Y714442D01*
D02*
G37*
G36*
X869851Y702793D02*
X867234Y702449D01*
X864796Y701439D01*
X862701Y699832D01*
X861095Y697738D01*
X860085Y695300D01*
X859740Y692683D01*
X860085Y690066D01*
X861095Y687627D01*
X862701Y685534D01*
X864796Y683927D01*
X867234Y682917D01*
X869851Y682572D01*
X872467Y682917D01*
X874906Y683927D01*
X877000Y685534D01*
X878607Y687627D01*
X879617Y690066D01*
X879961Y692683D01*
X879617Y695300D01*
X878607Y697738D01*
X877000Y699832D01*
X874906Y701439D01*
X872467Y702449D01*
X869851Y702793D01*
D02*
G37*
G36*
X979056Y681160D02*
X976503Y680824D01*
X974124Y679839D01*
X972082Y678271D01*
X970514Y676228D01*
X969529Y673850D01*
X969193Y671297D01*
X969529Y668744D01*
X970392Y666661D01*
X965393Y661662D01*
X959154D01*
X958985Y661988D01*
X958819Y662932D01*
X960631Y664322D01*
X962198Y666365D01*
X963183Y668744D01*
X963520Y671297D01*
X963183Y673850D01*
X962198Y676228D01*
X960631Y678271D01*
X958588Y679839D01*
X956209Y680824D01*
X953656Y681160D01*
X951103Y680824D01*
X948724Y679839D01*
X946682Y678271D01*
X945114Y676228D01*
X944129Y673850D01*
X943793Y671297D01*
X944129Y668744D01*
X945114Y666365D01*
X946682Y664322D01*
X948493Y662932D01*
X948327Y661988D01*
X948158Y661662D01*
X946573D01*
X946573Y661662D01*
X945483Y661445D01*
X944559Y660828D01*
X944559Y660828D01*
X934947Y651216D01*
X934329Y650291D01*
X934112Y649201D01*
X934112Y649201D01*
Y452936D01*
X930686Y449510D01*
X929513Y449996D01*
Y508472D01*
X930286Y508989D01*
X931397Y510651D01*
X931787Y512611D01*
X931397Y514571D01*
X930286Y516233D01*
X928625Y517343D01*
X926664Y517733D01*
X924704Y517343D01*
X923042Y516233D01*
X921932Y514571D01*
X921542Y512611D01*
X921932Y510651D01*
X923042Y508989D01*
X923816Y508472D01*
Y448387D01*
X879576Y404147D01*
X867188D01*
X866671Y404921D01*
X865009Y406031D01*
X863049Y406421D01*
X861088Y406031D01*
X859427Y404921D01*
X858316Y403259D01*
X857926Y401299D01*
X858316Y399338D01*
X859427Y397677D01*
X861088Y396566D01*
X863049Y396176D01*
X863608Y396287D01*
X863937Y395868D01*
X864237Y395118D01*
X863259Y393654D01*
X862869Y391693D01*
X863259Y389733D01*
X864370Y388071D01*
X866031Y386961D01*
X867992Y386571D01*
X868551Y386682D01*
X868879Y386263D01*
X869180Y385513D01*
X868202Y384048D01*
X867812Y382088D01*
X868202Y380128D01*
X869312Y378466D01*
X870974Y377356D01*
X872934Y376966D01*
X874895Y377356D01*
X876556Y378466D01*
X877667Y380128D01*
X878057Y382088D01*
X877893Y382912D01*
X883380Y388399D01*
X884553Y387913D01*
Y366092D01*
X857156Y338695D01*
X810410D01*
X809893Y339468D01*
X808232Y340579D01*
X806271Y340969D01*
X804311Y340579D01*
X802649Y339468D01*
X801539Y337807D01*
X801149Y335846D01*
X801539Y333886D01*
X802649Y332224D01*
X804311Y331114D01*
X806271Y330724D01*
X808232Y331114D01*
X809893Y332224D01*
X810410Y332998D01*
X856450D01*
X856936Y331824D01*
X807588Y282476D01*
X806622Y282571D01*
X804961Y283682D01*
X803000Y284071D01*
X801040Y283682D01*
X799378Y282571D01*
X798268Y280909D01*
X797878Y278949D01*
X798268Y276989D01*
X799378Y275327D01*
X801040Y274216D01*
X803000Y273827D01*
X804961Y274216D01*
X806622Y275327D01*
X807139Y276100D01*
X808090D01*
X808090Y276100D01*
X809180Y276317D01*
X810104Y276935D01*
X862383Y329214D01*
X863557Y328728D01*
Y228958D01*
X862783Y228441D01*
X861673Y226779D01*
X861283Y224819D01*
X861464Y223907D01*
X808335Y170777D01*
X747816D01*
Y171952D01*
X736769D01*
Y163904D01*
X739444D01*
Y157398D01*
X736769D01*
Y149350D01*
X747816D01*
Y157398D01*
X745141D01*
Y163904D01*
X747816D01*
Y165080D01*
X804468D01*
X805589Y164720D01*
X805589Y163810D01*
Y156672D01*
X816637D01*
Y157848D01*
X823286D01*
X823291Y157815D01*
X824452Y155012D01*
X826299Y152604D01*
X828706Y150757D01*
X831510Y149596D01*
X834518Y149200D01*
X837526Y149596D01*
X840330Y150757D01*
X842737Y152604D01*
X844584Y155012D01*
X845745Y157815D01*
X846142Y160823D01*
X845745Y163832D01*
X844584Y166635D01*
X842737Y169042D01*
X840330Y170889D01*
X837526Y172051D01*
X834518Y172447D01*
X831510Y172051D01*
X828706Y170889D01*
X826299Y169042D01*
X824452Y166635D01*
X823291Y163832D01*
X823253Y163545D01*
X816637D01*
Y164720D01*
X812029D01*
X811633Y165665D01*
X811605Y165990D01*
X865493Y219878D01*
X866405Y219697D01*
X868365Y220086D01*
X870027Y221197D01*
X871138Y222859D01*
X871528Y224819D01*
X871138Y226779D01*
X870027Y228441D01*
X869254Y228958D01*
Y330337D01*
X897544Y358627D01*
X897544Y358627D01*
X898162Y359551D01*
X898379Y360642D01*
X898378Y360642D01*
Y385494D01*
X953848Y440963D01*
X987491D01*
X987492Y440963D01*
X988582Y441180D01*
X989506Y441797D01*
X1002148Y454439D01*
X1003048Y454260D01*
X1005008Y454650D01*
X1006670Y455760D01*
X1007781Y457422D01*
X1008171Y459382D01*
X1007781Y461343D01*
X1006670Y463004D01*
X1006196Y463321D01*
Y621605D01*
X1006196Y621605D01*
X1005979Y622696D01*
X1005362Y623620D01*
X987721Y641261D01*
X988583Y643344D01*
X988920Y645897D01*
X988583Y648450D01*
X987598Y650828D01*
X986031Y652871D01*
X983988Y654439D01*
X981609Y655424D01*
X979056Y655760D01*
X976503Y655424D01*
X974124Y654439D01*
X972082Y652871D01*
X970514Y650828D01*
X969529Y648450D01*
X969193Y645897D01*
X969529Y643344D01*
X970514Y640965D01*
X972082Y638922D01*
X974124Y637355D01*
X976503Y636370D01*
X979056Y636034D01*
X981609Y636370D01*
X983692Y637232D01*
X1000499Y620425D01*
Y604742D01*
X999325Y604256D01*
X987721Y615861D01*
X988583Y617944D01*
X988920Y620497D01*
X988583Y623050D01*
X987598Y625429D01*
X986031Y627471D01*
X983988Y629039D01*
X981609Y630024D01*
X979056Y630360D01*
X976503Y630024D01*
X974124Y629039D01*
X972082Y627471D01*
X970514Y625429D01*
X969529Y623050D01*
X969193Y620497D01*
X969529Y617944D01*
X970514Y615565D01*
X972082Y613522D01*
X974124Y611955D01*
X976503Y610970D01*
X979056Y610634D01*
X981609Y610970D01*
X983692Y611832D01*
X996435Y599090D01*
Y558006D01*
X995261Y557520D01*
X987721Y565061D01*
X988583Y567144D01*
X988920Y569697D01*
X988583Y572250D01*
X987598Y574628D01*
X986031Y576671D01*
X983988Y578239D01*
X981609Y579224D01*
X979056Y579560D01*
X976503Y579224D01*
X974124Y578239D01*
X972082Y576671D01*
X970514Y574628D01*
X969529Y572250D01*
X969193Y569697D01*
X969529Y567144D01*
X970514Y564765D01*
X972082Y562722D01*
X974124Y561155D01*
X976503Y560170D01*
X979056Y559833D01*
X981609Y560170D01*
X983692Y561032D01*
X992371Y552354D01*
Y469815D01*
X990053Y467497D01*
X989284Y467877D01*
X988912Y468152D01*
X988583Y470650D01*
X987598Y473028D01*
X986031Y475071D01*
X983988Y476639D01*
X981609Y477624D01*
X979056Y477960D01*
X976503Y477624D01*
X974124Y476639D01*
X972082Y475071D01*
X970514Y473028D01*
X969529Y470650D01*
X969193Y468097D01*
X969529Y465544D01*
X970514Y463165D01*
X972082Y461122D01*
X974124Y459555D01*
X976503Y458570D01*
X979001Y458241D01*
X979276Y457869D01*
X979656Y457099D01*
X977344Y454788D01*
X949301D01*
X949301Y454788D01*
X948211Y454571D01*
X947287Y453954D01*
X947286Y453954D01*
X945047Y451714D01*
X943874Y452200D01*
Y462841D01*
X945018Y463140D01*
X945144Y463127D01*
X946682Y461122D01*
X948724Y459555D01*
X951103Y458570D01*
X953656Y458233D01*
X956209Y458570D01*
X958588Y459555D01*
X960631Y461122D01*
X962198Y463165D01*
X963183Y465544D01*
X963520Y468097D01*
X963183Y470650D01*
X962198Y473028D01*
X960631Y475071D01*
X958588Y476639D01*
X956209Y477624D01*
X953656Y477960D01*
X951103Y477624D01*
X948724Y476639D01*
X946682Y475071D01*
X945144Y473067D01*
X945018Y473054D01*
X943874Y473353D01*
Y486492D01*
X945144Y486923D01*
X945986Y485826D01*
X948232Y484102D01*
X949211Y483697D01*
Y493497D01*
X953656D01*
Y497942D01*
X963456D01*
X963051Y498921D01*
X961327Y501167D01*
X959880Y502277D01*
X960311Y503547D01*
X966555D01*
X966555Y503547D01*
X967645Y503764D01*
X968570Y504382D01*
X974420Y510232D01*
X976503Y509370D01*
X979056Y509034D01*
X981609Y509370D01*
X983988Y510355D01*
X986031Y511922D01*
X987598Y513965D01*
X988583Y516344D01*
X988920Y518897D01*
X988583Y521450D01*
X987598Y523829D01*
X986031Y525871D01*
X983988Y527439D01*
X981609Y528424D01*
X979056Y528760D01*
X976503Y528424D01*
X974124Y527439D01*
X972082Y525871D01*
X970514Y523829D01*
X969529Y521450D01*
X969193Y518897D01*
X969529Y516344D01*
X970392Y514261D01*
X965375Y509245D01*
X960830D01*
X960399Y510515D01*
X961327Y511226D01*
X963051Y513473D01*
X963456Y514452D01*
X953656D01*
X943856D01*
X944262Y513473D01*
X945986Y511226D01*
X947090Y510379D01*
X946806Y509028D01*
X945882Y508410D01*
X945882Y508410D01*
X940983Y503511D01*
X939810Y503997D01*
Y648021D01*
X947753Y655965D01*
X949089D01*
X949342Y654695D01*
X948724Y654439D01*
X946682Y652871D01*
X945114Y650828D01*
X944129Y648450D01*
X943793Y645897D01*
X944129Y643344D01*
X945114Y640965D01*
X946682Y638922D01*
X948724Y637355D01*
X951103Y636370D01*
X953656Y636034D01*
X956209Y636370D01*
X958588Y637355D01*
X960631Y638922D01*
X962198Y640965D01*
X963183Y643344D01*
X963520Y645897D01*
X963183Y648450D01*
X962198Y650828D01*
X960631Y652871D01*
X958588Y654439D01*
X957970Y654695D01*
X958223Y655965D01*
X966572D01*
X966573Y655965D01*
X967663Y656181D01*
X968587Y656799D01*
X974420Y662632D01*
X976503Y661770D01*
X979056Y661433D01*
X981609Y661770D01*
X983988Y662755D01*
X986031Y664322D01*
X987598Y666365D01*
X988583Y668744D01*
X988920Y671297D01*
X988583Y673850D01*
X987598Y676228D01*
X986031Y678271D01*
X983988Y679839D01*
X981609Y680824D01*
X979056Y681160D01*
D02*
G37*
G36*
X821755Y648444D02*
Y644206D01*
X824705D01*
X824695Y644280D01*
X823931Y646124D01*
X822716Y647707D01*
X821755Y648444D01*
D02*
G37*
G36*
X812865Y648444D02*
X811904Y647707D01*
X810689Y646124D01*
X809925Y644280D01*
X809915Y644206D01*
X812865D01*
Y648444D01*
D02*
G37*
G36*
Y635316D02*
X809915D01*
X809925Y635242D01*
X810689Y633398D01*
X811904Y631815D01*
X812865Y631077D01*
Y635316D01*
D02*
G37*
G36*
X824705D02*
X821755D01*
Y631077D01*
X822716Y631815D01*
X823931Y633398D01*
X824695Y635242D01*
X824705Y635316D01*
D02*
G37*
G36*
X738567Y652865D02*
X735559Y652469D01*
X732756Y651308D01*
X730348Y649461D01*
X728501Y647054D01*
X727340Y644250D01*
X726944Y641242D01*
X727340Y638233D01*
X728501Y635430D01*
X730348Y633023D01*
X732756Y631176D01*
X735559Y630014D01*
X737745Y629727D01*
X738141Y629675D01*
Y628394D01*
X737745Y628342D01*
X735304Y628020D01*
X732263Y626761D01*
X729652Y624757D01*
X727649Y622146D01*
X726879Y620287D01*
X738567D01*
X750256D01*
X749486Y622146D01*
X747483Y624757D01*
X744871Y626761D01*
X741831Y628020D01*
X739389Y628342D01*
X738994Y628394D01*
Y629675D01*
X739389Y629727D01*
X741576Y630014D01*
X744379Y631176D01*
X746786Y633023D01*
X748634Y635430D01*
X749795Y638233D01*
X750191Y641242D01*
X749795Y644250D01*
X748634Y647054D01*
X746786Y649461D01*
X744379Y651308D01*
X741576Y652469D01*
X738567Y652865D01*
D02*
G37*
G36*
X522038Y627650D02*
Y617560D01*
X532129D01*
X531704Y618960D01*
X530293Y621600D01*
X528393Y623915D01*
X526079Y625814D01*
X523438Y627225D01*
X522038Y627650D01*
D02*
G37*
G36*
X513148D02*
X511748Y627225D01*
X509108Y625814D01*
X506793Y623915D01*
X504894Y621600D01*
X503482Y618960D01*
X503058Y617560D01*
X513148D01*
Y627650D01*
D02*
G37*
G36*
X695886Y619700D02*
X693925Y619310D01*
X692264Y618200D01*
X691178Y616575D01*
X655232D01*
X655232Y616575D01*
X654141Y616358D01*
X653217Y615741D01*
X649505Y612028D01*
X644419Y617114D01*
X643495Y617732D01*
X642405Y617948D01*
X642404Y617948D01*
X633216D01*
Y619500D01*
X617668D01*
Y610000D01*
X604168D01*
Y600452D01*
X616692D01*
Y596996D01*
X625442D01*
X634853D01*
X635462Y597448D01*
X635741Y597392D01*
X635741Y597392D01*
X643005D01*
Y594269D01*
X649505D01*
X656005D01*
Y597417D01*
X656971Y597609D01*
X657895Y598227D01*
X661840Y602172D01*
X662705Y602000D01*
X664666Y602390D01*
X666328Y603500D01*
X667438Y605162D01*
X667828Y607122D01*
X667438Y609083D01*
X667087Y609608D01*
X667766Y610878D01*
X692381D01*
X693925Y609845D01*
X695886Y609455D01*
X697846Y609845D01*
X699508Y610956D01*
X700618Y612618D01*
X701008Y614578D01*
X700618Y616538D01*
X699508Y618200D01*
X697846Y619310D01*
X695886Y619700D01*
D02*
G37*
G36*
X953656Y630360D02*
X951103Y630024D01*
X948724Y629039D01*
X946682Y627471D01*
X945114Y625429D01*
X944129Y623050D01*
X943793Y620497D01*
X944129Y617944D01*
X945114Y615565D01*
X946682Y613522D01*
X948724Y611955D01*
X951103Y610970D01*
X953656Y610634D01*
X956209Y610970D01*
X958588Y611955D01*
X960631Y613522D01*
X962198Y615565D01*
X963183Y617944D01*
X963520Y620497D01*
X963183Y623050D01*
X962198Y625429D01*
X960631Y627471D01*
X958588Y629039D01*
X956209Y630024D01*
X953656Y630360D01*
D02*
G37*
G36*
X958101Y604897D02*
Y599542D01*
X963456D01*
X963051Y600521D01*
X961327Y602767D01*
X959080Y604491D01*
X958101Y604897D01*
D02*
G37*
G36*
X949211D02*
X948232Y604491D01*
X945986Y602767D01*
X944262Y600521D01*
X943856Y599542D01*
X949211D01*
Y604897D01*
D02*
G37*
G36*
X572711Y627461D02*
X568998Y626973D01*
X565538Y625539D01*
X562567Y623259D01*
X560287Y620288D01*
X558853Y616828D01*
X558365Y613115D01*
X558853Y609401D01*
X560287Y605941D01*
X562567Y602970D01*
X565538Y600690D01*
X568998Y599257D01*
X572711Y598768D01*
X576424Y599257D01*
X579885Y600690D01*
X582856Y602970D01*
X585136Y605941D01*
X586569Y609401D01*
X587058Y613115D01*
X586569Y616828D01*
X585136Y620288D01*
X582856Y623259D01*
X579885Y625539D01*
X576424Y626973D01*
X572711Y627461D01*
D02*
G37*
G36*
X532129Y608670D02*
X522038D01*
Y598579D01*
X523438Y599004D01*
X526079Y600415D01*
X528393Y602315D01*
X530293Y604629D01*
X531704Y607270D01*
X532129Y608670D01*
D02*
G37*
G36*
X513148D02*
X503058D01*
X503482Y607270D01*
X504894Y604629D01*
X506793Y602315D01*
X509108Y600415D01*
X511748Y599004D01*
X513148Y598579D01*
Y608670D01*
D02*
G37*
G36*
X444695Y633788D02*
X440662Y633391D01*
X436784Y632215D01*
X433210Y630304D01*
X430077Y627733D01*
X427506Y624600D01*
X425596Y621026D01*
X424419Y617148D01*
X424022Y613115D01*
X424419Y609081D01*
X425596Y605203D01*
X427506Y601629D01*
X430077Y598496D01*
X433210Y595925D01*
X436784Y594015D01*
X440662Y592838D01*
X444695Y592441D01*
X448728Y592838D01*
X452607Y594015D01*
X456181Y595925D01*
X459314Y598496D01*
X461885Y601629D01*
X463795Y605203D01*
X464972Y609081D01*
X465369Y613115D01*
X464972Y617148D01*
X463795Y621026D01*
X461885Y624600D01*
X459314Y627733D01*
X456181Y630304D01*
X452607Y632215D01*
X448728Y633391D01*
X444695Y633788D01*
D02*
G37*
G36*
X634192Y594456D02*
X626712D01*
Y589976D01*
X634192D01*
Y594456D01*
D02*
G37*
G36*
X624172D02*
X616692D01*
Y589976D01*
X624172D01*
Y594456D01*
D02*
G37*
G36*
X656005Y591730D02*
X650775D01*
Y587999D01*
X656005D01*
Y591730D01*
D02*
G37*
G36*
X648235D02*
X643005D01*
Y587999D01*
X648235D01*
Y591730D01*
D02*
G37*
G36*
X963456Y590652D02*
X958101D01*
Y585297D01*
X959080Y585702D01*
X961327Y587426D01*
X963051Y589673D01*
X963456Y590652D01*
D02*
G37*
G36*
X949211D02*
X943856D01*
X944262Y589673D01*
X945986Y587426D01*
X948232Y585702D01*
X949211Y585297D01*
Y590652D01*
D02*
G37*
G36*
X979056Y604960D02*
X976503Y604624D01*
X974124Y603639D01*
X972082Y602071D01*
X970514Y600028D01*
X969529Y597650D01*
X969193Y595097D01*
X969529Y592544D01*
X970514Y590165D01*
X972082Y588122D01*
X974124Y586555D01*
X976503Y585570D01*
X979056Y585233D01*
X981609Y585570D01*
X983988Y586555D01*
X986031Y588122D01*
X987598Y590165D01*
X988583Y592544D01*
X988920Y595097D01*
X988583Y597650D01*
X987598Y600028D01*
X986031Y602071D01*
X983988Y603639D01*
X981609Y604624D01*
X979056Y604960D01*
D02*
G37*
G36*
X750256Y611397D02*
X738567D01*
X726879D01*
X727649Y609538D01*
X729652Y606927D01*
X732263Y604923D01*
X735304Y603664D01*
X737745Y603342D01*
X738141Y603290D01*
Y602009D01*
X737745Y601957D01*
X735559Y601669D01*
X732756Y600508D01*
X730348Y598661D01*
X728501Y596254D01*
X727340Y593450D01*
X726944Y590442D01*
X727340Y587434D01*
X728501Y584630D01*
X730348Y582223D01*
X732756Y580376D01*
X735559Y579215D01*
X738567Y578819D01*
X741576Y579215D01*
X744379Y580376D01*
X746786Y582223D01*
X748634Y584630D01*
X749795Y587434D01*
X750191Y590442D01*
X749795Y593450D01*
X748634Y596254D01*
X746786Y598661D01*
X744379Y600508D01*
X741576Y601669D01*
X739389Y601957D01*
X738994Y602009D01*
Y603290D01*
X739389Y603342D01*
X741831Y603664D01*
X744871Y604923D01*
X747483Y606927D01*
X749486Y609538D01*
X750256Y611397D01*
D02*
G37*
G36*
X958101Y579497D02*
Y574142D01*
X963456D01*
X963051Y575121D01*
X961327Y577367D01*
X959080Y579091D01*
X958101Y579497D01*
D02*
G37*
G36*
X949211D02*
X948232Y579091D01*
X945986Y577367D01*
X944262Y575121D01*
X943856Y574142D01*
X949211D01*
Y579497D01*
D02*
G37*
G36*
X847155Y569704D02*
Y565466D01*
X850105D01*
X850095Y565540D01*
X849331Y567383D01*
X848116Y568967D01*
X847155Y569704D01*
D02*
G37*
G36*
X838265Y569704D02*
X837304Y568967D01*
X836089Y567383D01*
X835325Y565540D01*
X835315Y565466D01*
X838265D01*
Y569704D01*
D02*
G37*
G36*
X963456Y565252D02*
X958101D01*
Y559897D01*
X959080Y560302D01*
X961327Y562026D01*
X963051Y564273D01*
X963456Y565252D01*
D02*
G37*
G36*
X949211D02*
X943856D01*
X944262Y564273D01*
X945986Y562026D01*
X948232Y560302D01*
X949211Y559897D01*
Y565252D01*
D02*
G37*
G36*
X838265Y556576D02*
X835315D01*
X835325Y556502D01*
X836089Y554658D01*
X837304Y553075D01*
X838265Y552337D01*
Y556576D01*
D02*
G37*
G36*
X850105D02*
X847155D01*
Y552337D01*
X848116Y553075D01*
X849331Y554658D01*
X850095Y556502D01*
X850105Y556576D01*
D02*
G37*
G36*
X817310Y570222D02*
X815586Y569995D01*
X813979Y569329D01*
X812600Y568271D01*
X811541Y566891D01*
X810876Y565285D01*
X810649Y563561D01*
Y558481D01*
X810876Y556757D01*
X811541Y555150D01*
X812600Y553771D01*
X813979Y552712D01*
X815586Y552047D01*
X817310Y551820D01*
X819034Y552047D01*
X820640Y552712D01*
X822020Y553771D01*
X823079Y555150D01*
X823744Y556757D01*
X823971Y558481D01*
Y563561D01*
X823744Y565285D01*
X823079Y566891D01*
X822020Y568271D01*
X820640Y569329D01*
X819034Y569995D01*
X817310Y570222D01*
D02*
G37*
G36*
X958101Y554097D02*
Y548742D01*
X963456D01*
X963051Y549721D01*
X961327Y551967D01*
X959080Y553691D01*
X958101Y554097D01*
D02*
G37*
G36*
X949211D02*
X948232Y553691D01*
X945986Y551967D01*
X944262Y549721D01*
X943856Y548742D01*
X949211D01*
Y554097D01*
D02*
G37*
G36*
X963456Y539852D02*
X958101D01*
Y534497D01*
X959080Y534902D01*
X961327Y536626D01*
X963051Y538873D01*
X963456Y539852D01*
D02*
G37*
G36*
X949211D02*
X943856D01*
X944262Y538873D01*
X945986Y536626D01*
X948232Y534902D01*
X949211Y534497D01*
Y539852D01*
D02*
G37*
G36*
X979056Y554160D02*
X976503Y553824D01*
X974124Y552839D01*
X972082Y551271D01*
X970514Y549229D01*
X969529Y546850D01*
X969193Y544297D01*
X969529Y541744D01*
X970514Y539365D01*
X972082Y537322D01*
X974124Y535755D01*
X976503Y534770D01*
X979056Y534434D01*
X981609Y534770D01*
X983988Y535755D01*
X986031Y537322D01*
X987598Y539365D01*
X988583Y541744D01*
X988920Y544297D01*
X988583Y546850D01*
X987598Y549229D01*
X986031Y551271D01*
X983988Y552839D01*
X981609Y553824D01*
X979056Y554160D01*
D02*
G37*
G36*
X958101Y528697D02*
Y523342D01*
X963456D01*
X963051Y524321D01*
X961327Y526567D01*
X959080Y528291D01*
X958101Y528697D01*
D02*
G37*
G36*
X949211D02*
X948232Y528291D01*
X945986Y526567D01*
X944262Y524321D01*
X943856Y523342D01*
X949211D01*
Y528697D01*
D02*
G37*
G36*
X522038Y524419D02*
Y514329D01*
X532129D01*
X531704Y515728D01*
X530293Y518369D01*
X528393Y520684D01*
X526079Y522583D01*
X523438Y523994D01*
X522038Y524419D01*
D02*
G37*
G36*
X513148Y524419D02*
X511748Y523994D01*
X509108Y522583D01*
X506793Y520684D01*
X504894Y518369D01*
X503482Y515728D01*
X503058Y514329D01*
X513148D01*
Y524419D01*
D02*
G37*
G36*
X812295Y508839D02*
Y501595D01*
X819539D01*
X818769Y503454D01*
X816765Y506065D01*
X814154Y508069D01*
X812295Y508839D01*
D02*
G37*
G36*
X803405D02*
X801546Y508069D01*
X798935Y506065D01*
X796931Y503454D01*
X796161Y501595D01*
X803405D01*
Y508839D01*
D02*
G37*
G36*
X633507Y517079D02*
X617959D01*
Y507579D01*
X604459D01*
Y498031D01*
X616983D01*
Y494575D01*
X625733D01*
X634551D01*
X635657Y495033D01*
X636126Y494563D01*
X636126Y494563D01*
X637050Y493945D01*
X638141Y493728D01*
X638141Y493728D01*
X640413D01*
Y491799D01*
X646913D01*
X653413D01*
Y493037D01*
X654472Y493728D01*
X655562Y493945D01*
X656486Y494563D01*
X659466Y497543D01*
X660379Y497362D01*
X662339Y497752D01*
X664001Y498862D01*
X665111Y500524D01*
X665501Y502484D01*
X666589Y503522D01*
X691931D01*
X692264Y503024D01*
X693925Y501914D01*
X695886Y501524D01*
X697846Y501914D01*
X699508Y503024D01*
X700618Y504686D01*
X701008Y506646D01*
X700618Y508607D01*
X699508Y510269D01*
X697846Y511379D01*
X695886Y511769D01*
X693925Y511379D01*
X692264Y510269D01*
X691563Y509220D01*
X667011D01*
X665128Y511102D01*
X664204Y511720D01*
X663114Y511937D01*
X663114Y511937D01*
X657643D01*
X656553Y511720D01*
X655629Y511102D01*
X655629Y511102D01*
X653707Y509180D01*
X652437Y509553D01*
Y509553D01*
X646917D01*
X642152Y514319D01*
X641228Y514936D01*
X640137Y515153D01*
X640137Y515153D01*
X633507D01*
Y517079D01*
D02*
G37*
G36*
X572711Y524230D02*
X568998Y523741D01*
X565538Y522308D01*
X562567Y520028D01*
X560287Y517057D01*
X558853Y513597D01*
X558365Y509884D01*
X558853Y506170D01*
X560287Y502710D01*
X562567Y499739D01*
X565538Y497459D01*
X568998Y496026D01*
X572711Y495537D01*
X576424Y496026D01*
X579885Y497459D01*
X582856Y499739D01*
X585136Y502710D01*
X586569Y506170D01*
X587058Y509884D01*
X586569Y513597D01*
X585136Y517057D01*
X582856Y520028D01*
X579885Y522308D01*
X576424Y523741D01*
X572711Y524230D01*
D02*
G37*
G36*
X532129Y505439D02*
X522038D01*
Y495348D01*
X523438Y495773D01*
X526079Y497184D01*
X528393Y499084D01*
X530293Y501398D01*
X531704Y504039D01*
X532129Y505439D01*
D02*
G37*
G36*
X513148D02*
X503058D01*
X503482Y504039D01*
X504894Y501398D01*
X506793Y499084D01*
X509108Y497184D01*
X511748Y495773D01*
X513148Y495348D01*
Y505439D01*
D02*
G37*
G36*
X868110Y570222D02*
X866386Y569995D01*
X864779Y569329D01*
X863400Y568271D01*
X862341Y566891D01*
X861676Y565285D01*
X861449Y563561D01*
Y558481D01*
X861676Y556757D01*
X862341Y555150D01*
X863000Y554292D01*
Y533675D01*
X820124Y490800D01*
X819048Y491519D01*
X819539Y492705D01*
X807850D01*
X796161D01*
X796931Y490846D01*
X798935Y488235D01*
X801546Y486231D01*
X804587Y484972D01*
X807028Y484650D01*
X807424Y484598D01*
Y483317D01*
X807028Y483265D01*
X804842Y482977D01*
X802038Y481816D01*
X799631Y479969D01*
X797784Y477562D01*
X796623Y474758D01*
X796227Y471750D01*
X796623Y468742D01*
X797784Y465938D01*
X799631Y463531D01*
X802038Y461684D01*
X804842Y460523D01*
X807028Y460235D01*
X807424Y460183D01*
Y458902D01*
X807028Y458850D01*
X804587Y458528D01*
X801546Y457269D01*
X798935Y455265D01*
X796931Y452654D01*
X796161Y450795D01*
X807850D01*
X819539D01*
X818769Y452654D01*
X816765Y455265D01*
X814154Y457269D01*
X811113Y458528D01*
X808672Y458850D01*
X808277Y458902D01*
Y460183D01*
X808672Y460235D01*
X810859Y460523D01*
X813662Y461684D01*
X816069Y463531D01*
X817916Y465938D01*
X818339Y466959D01*
X873866D01*
Y458446D01*
X902314D01*
Y488164D01*
X873866D01*
Y476541D01*
X821076D01*
X820590Y477715D01*
X871179Y528303D01*
X872217Y529857D01*
X872582Y531691D01*
Y553588D01*
X872820Y553771D01*
X873878Y555150D01*
X874544Y556757D01*
X874771Y558481D01*
Y563561D01*
X874544Y565285D01*
X873878Y566891D01*
X872820Y568271D01*
X871440Y569329D01*
X869834Y569995D01*
X868110Y570222D01*
D02*
G37*
G36*
X444695Y530557D02*
X440662Y530160D01*
X436784Y528983D01*
X433210Y527073D01*
X430077Y524502D01*
X427506Y521369D01*
X425596Y517795D01*
X424419Y513917D01*
X424022Y509884D01*
X424419Y505850D01*
X425596Y501972D01*
X427506Y498398D01*
X430077Y495265D01*
X433210Y492694D01*
X436784Y490784D01*
X440662Y489607D01*
X444695Y489210D01*
X448728Y489607D01*
X452607Y490784D01*
X456181Y492694D01*
X459314Y495265D01*
X461885Y498398D01*
X463795Y501972D01*
X464972Y505850D01*
X465369Y509884D01*
X464972Y513917D01*
X463795Y517795D01*
X461885Y521369D01*
X459314Y524502D01*
X456181Y527073D01*
X452607Y528983D01*
X448728Y530160D01*
X444695Y530557D01*
D02*
G37*
G36*
X634483Y492034D02*
X627003D01*
Y487555D01*
X634483D01*
Y492034D01*
D02*
G37*
G36*
X624463D02*
X616983D01*
Y487555D01*
X624463D01*
Y492034D01*
D02*
G37*
G36*
X653413Y489259D02*
X648183D01*
Y485529D01*
X653413D01*
Y489259D01*
D02*
G37*
G36*
X645643D02*
X640413D01*
Y485529D01*
X645643D01*
Y489259D01*
D02*
G37*
G36*
X963456Y489052D02*
X958101D01*
Y483697D01*
X959080Y484102D01*
X961327Y485826D01*
X963051Y488073D01*
X963456Y489052D01*
D02*
G37*
G36*
X979056Y503360D02*
X976503Y503024D01*
X974124Y502039D01*
X972082Y500471D01*
X970514Y498428D01*
X969529Y496050D01*
X969193Y493497D01*
X969529Y490944D01*
X970514Y488565D01*
X972082Y486522D01*
X974124Y484955D01*
X976503Y483970D01*
X979056Y483633D01*
X981609Y483970D01*
X983988Y484955D01*
X986031Y486522D01*
X987598Y488565D01*
X988583Y490944D01*
X988920Y493497D01*
X988583Y496050D01*
X987598Y498428D01*
X986031Y500471D01*
X983988Y502039D01*
X981609Y503024D01*
X979056Y503360D01*
D02*
G37*
G36*
X522155Y422517D02*
Y412426D01*
X532246D01*
X531821Y413826D01*
X530410Y416466D01*
X528510Y418781D01*
X526196Y420680D01*
X523555Y422092D01*
X522155Y422517D01*
D02*
G37*
G36*
X513265D02*
X511865Y422092D01*
X509225Y420680D01*
X506910Y418781D01*
X505011Y416466D01*
X503599Y413826D01*
X503175Y412426D01*
X513265D01*
Y422517D01*
D02*
G37*
G36*
X762824Y428669D02*
X760437Y428355D01*
X758213Y427434D01*
X756303Y425968D01*
X754837Y424058D01*
X753916Y421834D01*
X753601Y419446D01*
X753916Y417060D01*
X754837Y414835D01*
X756303Y412925D01*
X758213Y411459D01*
X760437Y410538D01*
X762824Y410224D01*
X765211Y410538D01*
X767436Y411459D01*
X769346Y412925D01*
X770812Y414835D01*
X771733Y417060D01*
X772047Y419446D01*
X771733Y421834D01*
X770812Y424058D01*
X769346Y425968D01*
X767436Y427434D01*
X765211Y428355D01*
X762824Y428669D01*
D02*
G37*
G36*
X819539Y441905D02*
X807850D01*
X796161D01*
X796931Y440046D01*
X798935Y437435D01*
X801546Y435431D01*
X804587Y434172D01*
X807028Y433850D01*
X807424Y433798D01*
Y432517D01*
X807028Y432465D01*
X804842Y432178D01*
X802038Y431016D01*
X799631Y429169D01*
X797784Y426762D01*
X796623Y423959D01*
X796227Y420950D01*
X796623Y417942D01*
X797784Y415138D01*
X799631Y412731D01*
X802038Y410884D01*
X804842Y409723D01*
X807850Y409327D01*
X810859Y409723D01*
X813662Y410884D01*
X816069Y412731D01*
X817916Y415138D01*
X819078Y417942D01*
X819473Y420950D01*
X819078Y423959D01*
X817916Y426762D01*
X816069Y429169D01*
X813662Y431016D01*
X810859Y432178D01*
X808672Y432465D01*
X808277Y432517D01*
Y433798D01*
X808672Y433850D01*
X811113Y434172D01*
X814154Y435431D01*
X816765Y437435D01*
X818769Y440046D01*
X819539Y441905D01*
D02*
G37*
G36*
X633459Y417209D02*
X617911D01*
Y407709D01*
X604411D01*
Y398161D01*
X616935D01*
Y394705D01*
X625685D01*
X634435D01*
Y395221D01*
X635609Y395707D01*
X636243Y395073D01*
X637167Y394455D01*
X638257Y394238D01*
X638257Y394238D01*
X640773D01*
Y392022D01*
X647273D01*
X653773D01*
Y394238D01*
X655557D01*
X655557Y394238D01*
X656648Y394455D01*
X657572Y395073D01*
X659518Y397019D01*
X660431Y396838D01*
X662391Y397228D01*
X664053Y398338D01*
X665163Y400000D01*
X665553Y401960D01*
X665163Y403921D01*
X664812Y404446D01*
X665491Y405716D01*
X697976D01*
X699477Y404712D01*
X701438Y404323D01*
X703398Y404712D01*
X705060Y405823D01*
X706170Y407485D01*
X706560Y409445D01*
X706170Y411405D01*
X705060Y413067D01*
X703398Y414177D01*
X701438Y414567D01*
X699477Y414177D01*
X697816Y413067D01*
X696711Y411413D01*
X657695D01*
X657695Y411413D01*
X656605Y411196D01*
X655681Y410579D01*
X655681Y410579D01*
X654067Y408965D01*
X652797Y409479D01*
Y409776D01*
X647278D01*
X642604Y414450D01*
X641680Y415067D01*
X640590Y415284D01*
X640590Y415284D01*
X633459D01*
Y417209D01*
D02*
G37*
G36*
X572828Y422328D02*
X569115Y421839D01*
X565655Y420406D01*
X562683Y418126D01*
X560404Y415154D01*
X558970Y411694D01*
X558481Y407981D01*
X558970Y404268D01*
X560404Y400808D01*
X562683Y397836D01*
X565655Y395556D01*
X569115Y394123D01*
X572828Y393634D01*
X576541Y394123D01*
X580002Y395556D01*
X582973Y397836D01*
X585253Y400808D01*
X586686Y404268D01*
X587175Y407981D01*
X586686Y411694D01*
X585253Y415154D01*
X582973Y418126D01*
X580002Y420406D01*
X576541Y421839D01*
X572828Y422328D01*
D02*
G37*
G36*
X532246Y403536D02*
X522155D01*
Y393445D01*
X523555Y393870D01*
X526196Y395281D01*
X528510Y397181D01*
X530410Y399495D01*
X531821Y402136D01*
X532246Y403536D01*
D02*
G37*
G36*
X513265D02*
X503175D01*
X503599Y402136D01*
X505011Y399495D01*
X506910Y397181D01*
X509225Y395281D01*
X511865Y393870D01*
X513265Y393445D01*
Y403536D01*
D02*
G37*
G36*
X634435Y392165D02*
X626955D01*
Y387685D01*
X634435D01*
Y392165D01*
D02*
G37*
G36*
X624415D02*
X616935D01*
Y387685D01*
X624415D01*
Y392165D01*
D02*
G37*
G36*
X444812Y428655D02*
X440779Y428257D01*
X436901Y427081D01*
X433327Y425170D01*
X430194Y422599D01*
X427623Y419467D01*
X425712Y415892D01*
X424536Y412014D01*
X424139Y407981D01*
X424536Y403948D01*
X425712Y400070D01*
X427623Y396495D01*
X430194Y393363D01*
X433327Y390792D01*
X436901Y388881D01*
X440779Y387705D01*
X444812Y387307D01*
X448845Y387705D01*
X452724Y388881D01*
X456298Y390792D01*
X459431Y393363D01*
X462002Y396495D01*
X463912Y400070D01*
X465089Y403948D01*
X465486Y407981D01*
X465089Y412014D01*
X463912Y415892D01*
X462002Y419467D01*
X459431Y422599D01*
X456298Y425170D01*
X452724Y427081D01*
X448845Y428257D01*
X444812Y428655D01*
D02*
G37*
G36*
X653773Y389482D02*
X648543D01*
Y385752D01*
X653773D01*
Y389482D01*
D02*
G37*
G36*
X646003D02*
X640773D01*
Y385752D01*
X646003D01*
Y389482D01*
D02*
G37*
G36*
X522960Y316569D02*
Y306479D01*
X533050D01*
X532626Y307879D01*
X531214Y310519D01*
X529315Y312834D01*
X527000Y314733D01*
X524360Y316145D01*
X522960Y316569D01*
D02*
G37*
G36*
X514070D02*
X512670Y316145D01*
X510029Y314733D01*
X507715Y312834D01*
X505815Y310519D01*
X504404Y307879D01*
X503979Y306479D01*
X514070D01*
Y316569D01*
D02*
G37*
G36*
X633937Y312720D02*
X618389D01*
Y303220D01*
X604889D01*
Y293672D01*
X617413D01*
Y290216D01*
X626163D01*
X635148D01*
X635207Y290264D01*
X640863D01*
Y288473D01*
X647363D01*
X653863D01*
Y290264D01*
X657219D01*
X657219Y290264D01*
X658309Y290481D01*
X659233Y291098D01*
X662151Y294017D01*
X662695Y294125D01*
X664356Y295235D01*
X665467Y296897D01*
X665857Y298857D01*
X665467Y300818D01*
X665116Y301343D01*
X665795Y302613D01*
X711642D01*
X713973Y300282D01*
X713792Y299369D01*
X714182Y297409D01*
X715292Y295747D01*
X716954Y294637D01*
X718914Y294247D01*
X720874Y294637D01*
X722536Y295747D01*
X723646Y297409D01*
X724036Y299369D01*
X723646Y301329D01*
X722536Y302991D01*
X720874Y304102D01*
X718914Y304492D01*
X718002Y304310D01*
X714836Y307476D01*
X713912Y308093D01*
X712822Y308310D01*
X712822Y308310D01*
X657999D01*
X656909Y308093D01*
X655984Y307476D01*
X655984Y307476D01*
X654157Y305648D01*
X652887Y306175D01*
Y306227D01*
X647368D01*
X643635Y309960D01*
X642711Y310578D01*
X641621Y310795D01*
X641621Y310795D01*
X633937D01*
Y312720D01*
D02*
G37*
G36*
X573633Y316381D02*
X569919Y315892D01*
X566459Y314459D01*
X563488Y312179D01*
X561208Y309207D01*
X559775Y305747D01*
X559286Y302034D01*
X559775Y298321D01*
X561208Y294860D01*
X563488Y291889D01*
X566459Y289609D01*
X569919Y288176D01*
X573633Y287687D01*
X577346Y288176D01*
X580806Y289609D01*
X583777Y291889D01*
X586057Y294860D01*
X587490Y298321D01*
X587979Y302034D01*
X587490Y305747D01*
X586057Y309207D01*
X583777Y312179D01*
X580806Y314459D01*
X577346Y315892D01*
X573633Y316381D01*
D02*
G37*
G36*
X533050Y297589D02*
X522960D01*
Y287498D01*
X524360Y287923D01*
X527000Y289334D01*
X529315Y291234D01*
X531214Y293548D01*
X532626Y296189D01*
X533050Y297589D01*
D02*
G37*
G36*
X514070D02*
X503979D01*
X504404Y296189D01*
X505815Y293548D01*
X507715Y291234D01*
X510029Y289334D01*
X512670Y287923D01*
X514070Y287498D01*
Y297589D01*
D02*
G37*
G36*
X634913Y287676D02*
X627433D01*
Y283196D01*
X634913D01*
Y287676D01*
D02*
G37*
G36*
X624893D02*
X617413D01*
Y283196D01*
X624893D01*
Y287676D01*
D02*
G37*
G36*
X653863Y285933D02*
X648633D01*
Y282204D01*
X653863D01*
Y285933D01*
D02*
G37*
G36*
X646093D02*
X640863D01*
Y282204D01*
X646093D01*
Y285933D01*
D02*
G37*
G36*
X445616Y322707D02*
X441583Y322310D01*
X437705Y321134D01*
X434131Y319223D01*
X430998Y316652D01*
X428427Y313519D01*
X426517Y309945D01*
X425340Y306067D01*
X424943Y302034D01*
X425340Y298001D01*
X426517Y294123D01*
X428427Y290548D01*
X430998Y287416D01*
X434131Y284844D01*
X437705Y282934D01*
X441583Y281758D01*
X445616Y281360D01*
X449650Y281758D01*
X453528Y282934D01*
X457102Y284844D01*
X460235Y287416D01*
X462806Y290548D01*
X464716Y294123D01*
X465893Y298001D01*
X466290Y302034D01*
X465893Y306067D01*
X464716Y309945D01*
X462806Y313519D01*
X460235Y316652D01*
X457102Y319223D01*
X453528Y321134D01*
X449650Y322310D01*
X445616Y322707D01*
D02*
G37*
G36*
X712256Y234528D02*
X710296Y234138D01*
X708634Y233027D01*
X708102Y232232D01*
X698125D01*
X697035Y232015D01*
X696111Y231397D01*
X696111Y231397D01*
X677576Y212862D01*
X676958Y211938D01*
X676741Y210848D01*
X676741Y210848D01*
Y204420D01*
X671816D01*
Y194920D01*
X658316D01*
Y185372D01*
X670840D01*
Y181916D01*
X679590D01*
X688340D01*
Y181925D01*
X688655Y182184D01*
X688656Y182184D01*
X694523D01*
Y179562D01*
X701523D01*
X708523D01*
Y182844D01*
X708783Y183018D01*
X712874Y187109D01*
X713786Y186928D01*
X715747Y187318D01*
X717408Y188428D01*
X718519Y190090D01*
X718909Y192050D01*
X718519Y194011D01*
X717408Y195672D01*
X715747Y196783D01*
X713786Y197173D01*
X711826Y196783D01*
X710164Y195672D01*
X709054Y194011D01*
X708817Y192818D01*
X707547Y192943D01*
Y197316D01*
X700527D01*
X696182Y201661D01*
X695258Y202278D01*
X694168Y202495D01*
X694168Y202495D01*
X687364D01*
Y204420D01*
X682439D01*
Y209668D01*
X699305Y226534D01*
X708132D01*
X708634Y225783D01*
X710296Y224673D01*
X712256Y224283D01*
X714217Y224673D01*
X715878Y225783D01*
X716989Y227445D01*
X717379Y229405D01*
X716989Y231366D01*
X715878Y233027D01*
X714217Y234138D01*
X712256Y234528D01*
D02*
G37*
G36*
X747994Y218137D02*
X746034Y217747D01*
X744372Y216637D01*
X743262Y214975D01*
X742872Y213015D01*
X743053Y212103D01*
X740278Y209328D01*
X739661Y208403D01*
X739444Y207313D01*
X739444Y207313D01*
Y186952D01*
X736769D01*
Y178904D01*
X747816D01*
Y186952D01*
X745141D01*
Y206133D01*
X747082Y208074D01*
X747994Y207893D01*
X749955Y208283D01*
X751616Y209393D01*
X752727Y211055D01*
X753117Y213015D01*
X752727Y214975D01*
X751616Y216637D01*
X749955Y217747D01*
X747994Y218137D01*
D02*
G37*
G36*
X523077Y208750D02*
Y198659D01*
X533168D01*
X532743Y200059D01*
X531332Y202700D01*
X529432Y205014D01*
X527118Y206914D01*
X524477Y208325D01*
X523077Y208750D01*
D02*
G37*
G36*
X514187D02*
X512787Y208325D01*
X510147Y206914D01*
X507832Y205014D01*
X505933Y202700D01*
X504521Y200059D01*
X504097Y198659D01*
X514187D01*
Y208750D01*
D02*
G37*
G36*
X573750Y208561D02*
X570037Y208072D01*
X566577Y206639D01*
X563605Y204359D01*
X561325Y201388D01*
X559892Y197927D01*
X559403Y194214D01*
X559892Y190501D01*
X561325Y187041D01*
X563605Y184069D01*
X566577Y181789D01*
X570037Y180356D01*
X573750Y179867D01*
X577463Y180356D01*
X580924Y181789D01*
X583895Y184069D01*
X586175Y187041D01*
X587608Y190501D01*
X588097Y194214D01*
X587608Y197927D01*
X586175Y201388D01*
X583895Y204359D01*
X580924Y206639D01*
X577463Y208072D01*
X573750Y208561D01*
D02*
G37*
G36*
X533168Y189769D02*
X523077D01*
Y179679D01*
X524477Y180103D01*
X527118Y181515D01*
X529432Y183414D01*
X531332Y185729D01*
X532743Y188369D01*
X533168Y189769D01*
D02*
G37*
G36*
X514187D02*
X504097D01*
X504521Y188369D01*
X505933Y185729D01*
X507832Y183414D01*
X510147Y181515D01*
X512787Y180103D01*
X514187Y179679D01*
Y189769D01*
D02*
G37*
G36*
X688340Y179376D02*
X680860D01*
Y174896D01*
X688340D01*
Y179376D01*
D02*
G37*
G36*
X678320D02*
X670840D01*
Y174896D01*
X678320D01*
Y179376D01*
D02*
G37*
G36*
X445734Y214888D02*
X441701Y214491D01*
X437823Y213314D01*
X434249Y211404D01*
X431116Y208833D01*
X428545Y205700D01*
X426634Y202126D01*
X425458Y198247D01*
X425061Y194214D01*
X425458Y190181D01*
X426634Y186303D01*
X428545Y182729D01*
X431116Y179596D01*
X434249Y177025D01*
X437823Y175114D01*
X441701Y173938D01*
X445734Y173541D01*
X449767Y173938D01*
X453646Y175114D01*
X457220Y177025D01*
X460353Y179596D01*
X462924Y182729D01*
X464834Y186303D01*
X466010Y190181D01*
X466408Y194214D01*
X466010Y198247D01*
X464834Y202126D01*
X462924Y205700D01*
X460353Y208833D01*
X457220Y211404D01*
X453646Y213314D01*
X449767Y214491D01*
X445734Y214888D01*
D02*
G37*
G36*
X708523Y177022D02*
X702793D01*
Y172292D01*
X708523D01*
Y177022D01*
D02*
G37*
G36*
X700253D02*
X694523D01*
Y172292D01*
X700253D01*
Y177022D01*
D02*
G37*
G36*
X652643Y228970D02*
X650683Y228580D01*
X649021Y227470D01*
X647911Y225808D01*
X647876Y225629D01*
X647291Y224755D01*
X646927Y222922D01*
Y182301D01*
X647291Y180467D01*
X648330Y178913D01*
X661149Y166094D01*
X662093Y164682D01*
X663755Y163571D01*
X665715Y163181D01*
X667675Y163571D01*
X669337Y164682D01*
X670447Y166344D01*
X670837Y168304D01*
X670447Y170264D01*
X669337Y171926D01*
X667924Y172870D01*
X656509Y184285D01*
Y220589D01*
X657376Y221887D01*
X657766Y223847D01*
X657376Y225808D01*
X656265Y227470D01*
X654604Y228580D01*
X652643Y228970D01*
D02*
G37*
G36*
X883318Y172447D02*
X880310Y172051D01*
X877506Y170889D01*
X875099Y169042D01*
X873252Y166635D01*
X872091Y163832D01*
X871695Y160823D01*
X872091Y157815D01*
X873252Y155012D01*
X875099Y152604D01*
X877506Y150757D01*
X880310Y149596D01*
X883318Y149200D01*
X886327Y149596D01*
X889130Y150757D01*
X891537Y152604D01*
X893384Y155012D01*
X894546Y157815D01*
X894566Y157975D01*
X899625D01*
Y156672D01*
X910673D01*
Y164720D01*
X899625D01*
Y163672D01*
X894566D01*
X894546Y163832D01*
X893384Y166635D01*
X891537Y169042D01*
X889130Y170889D01*
X886327Y172051D01*
X883318Y172447D01*
D02*
G37*
G36*
X911649Y150696D02*
X906419D01*
Y146966D01*
X911649D01*
Y150696D01*
D02*
G37*
G36*
X903879D02*
X898649D01*
Y146966D01*
X903879D01*
Y150696D01*
D02*
G37*
G36*
X817613D02*
X812383D01*
Y146966D01*
X817613D01*
Y150696D01*
D02*
G37*
G36*
X809843D02*
X804613D01*
Y146966D01*
X809843D01*
Y150696D01*
D02*
G37*
G36*
X911649Y144426D02*
X906419D01*
Y140696D01*
X911649D01*
Y144426D01*
D02*
G37*
G36*
X903879D02*
X898649D01*
Y140696D01*
X903879D01*
Y144426D01*
D02*
G37*
G36*
X817613Y144426D02*
X812383D01*
Y140696D01*
X817613D01*
Y144426D01*
D02*
G37*
G36*
X809843D02*
X804613D01*
Y140696D01*
X809843D01*
Y144426D01*
D02*
G37*
G36*
X748792Y143374D02*
X743562D01*
Y139644D01*
X748792D01*
Y143374D01*
D02*
G37*
G36*
X741022D02*
X735793D01*
Y139644D01*
X741022D01*
Y143374D01*
D02*
G37*
G36*
X748792Y137104D02*
X743562D01*
Y133374D01*
X748792D01*
Y137104D01*
D02*
G37*
G36*
X741022D02*
X735793D01*
Y133374D01*
X741022D01*
Y137104D01*
D02*
G37*
G36*
X411095Y155483D02*
X406671Y155135D01*
X402356Y154099D01*
X398256Y152401D01*
X394472Y150082D01*
X391097Y147200D01*
X388215Y143825D01*
X385896Y140042D01*
X384198Y135941D01*
X383162Y131626D01*
X382814Y127202D01*
X383162Y122778D01*
X384198Y118463D01*
X385896Y114363D01*
X388215Y110579D01*
X391097Y107204D01*
X394472Y104322D01*
X398256Y102003D01*
X402356Y100305D01*
X406671Y99269D01*
X411095Y98921D01*
X415519Y99269D01*
X419835Y100305D01*
X423935Y102003D01*
X427718Y104322D01*
X431093Y107204D01*
X433975Y110579D01*
X436294Y114363D01*
X437992Y118463D01*
X439028Y122778D01*
X439376Y127202D01*
X439028Y131626D01*
X437992Y135941D01*
X436294Y140042D01*
X433975Y143825D01*
X431093Y147200D01*
X427718Y150082D01*
X423935Y152401D01*
X419835Y154099D01*
X415519Y155135D01*
X411095Y155483D01*
D02*
G37*
%LPD*%
G36*
X992544Y809003D02*
X996781Y807718D01*
X1000686Y805631D01*
X1004109Y802822D01*
X1006918Y799399D01*
X1009005Y795494D01*
X1010291Y791256D01*
X1010725Y786850D01*
X1010291Y782443D01*
X1009005Y778206D01*
X1006918Y774301D01*
X1004109Y770878D01*
X1000686Y768069D01*
X996781Y765981D01*
X992544Y764696D01*
X988137Y764262D01*
X983730Y764696D01*
X979493Y765981D01*
X975588Y768069D01*
X972165Y770878D01*
X969356Y774301D01*
X967269Y778206D01*
X965983Y782443D01*
X965549Y786850D01*
X965983Y791256D01*
X967269Y795494D01*
X969356Y799399D01*
X972165Y802822D01*
X975588Y805631D01*
X979493Y807718D01*
X983730Y809003D01*
X988137Y809437D01*
X992544Y809003D01*
D02*
G37*
%LPC*%
G36*
X988137Y807523D02*
X984104Y807126D01*
X980226Y805949D01*
X976652Y804039D01*
X973519Y801468D01*
X970948Y798335D01*
X969037Y794761D01*
X967861Y790883D01*
X967464Y786850D01*
X967861Y782816D01*
X969037Y778938D01*
X970948Y775364D01*
X973519Y772231D01*
X976652Y769660D01*
X980226Y767750D01*
X984104Y766573D01*
X988137Y766176D01*
X992170Y766573D01*
X996049Y767750D01*
X999623Y769660D01*
X1002756Y772231D01*
X1005327Y775364D01*
X1007237Y778938D01*
X1008413Y782816D01*
X1008811Y786850D01*
X1008413Y790883D01*
X1007237Y794761D01*
X1005327Y798335D01*
X1002756Y801468D01*
X999623Y804039D01*
X996049Y805949D01*
X992170Y807126D01*
X988137Y807523D01*
D02*
G37*
%LPD*%
G36*
X413685Y808987D02*
X417923Y807701D01*
X421828Y805614D01*
X425251Y802805D01*
X428060Y799382D01*
X430147Y795477D01*
X431432Y791239D01*
X431866Y786833D01*
X431432Y782426D01*
X430147Y778189D01*
X428060Y774284D01*
X425251Y770861D01*
X421828Y768052D01*
X417923Y765964D01*
X413685Y764679D01*
X409279Y764245D01*
X404872Y764679D01*
X400635Y765964D01*
X396730Y768052D01*
X393307Y770861D01*
X390498Y774284D01*
X388410Y778189D01*
X387125Y782426D01*
X386691Y786833D01*
X387125Y791239D01*
X388410Y795477D01*
X390498Y799382D01*
X393307Y802805D01*
X396730Y805614D01*
X400635Y807701D01*
X404872Y808987D01*
X409279Y809420D01*
X413685Y808987D01*
D02*
G37*
%LPC*%
G36*
X409279Y807506D02*
X405246Y807109D01*
X401367Y805933D01*
X397793Y804022D01*
X394660Y801451D01*
X392089Y798318D01*
X390179Y794744D01*
X389002Y790866D01*
X388605Y786833D01*
X389002Y782800D01*
X390179Y778921D01*
X392089Y775347D01*
X394660Y772214D01*
X397793Y769643D01*
X401367Y767733D01*
X405246Y766556D01*
X409279Y766159D01*
X413312Y766556D01*
X417190Y767733D01*
X420764Y769643D01*
X423897Y772214D01*
X426468Y775347D01*
X428379Y778921D01*
X429555Y782800D01*
X429952Y786833D01*
X429555Y790866D01*
X428379Y794744D01*
X426468Y798318D01*
X423897Y801451D01*
X420764Y804022D01*
X417190Y805933D01*
X413312Y807109D01*
X409279Y807506D01*
D02*
G37*
%LPD*%
G36*
X415502Y149356D02*
X419739Y148070D01*
X423644Y145983D01*
X427067Y143174D01*
X429876Y139751D01*
X431964Y135846D01*
X433249Y131609D01*
X433683Y127202D01*
X433249Y122795D01*
X431964Y118558D01*
X429876Y114653D01*
X427067Y111230D01*
X423644Y108421D01*
X419739Y106334D01*
X415502Y105048D01*
X411095Y104614D01*
X406688Y105048D01*
X402451Y106334D01*
X398546Y108421D01*
X395123Y111230D01*
X392314Y114653D01*
X390227Y118558D01*
X388941Y122795D01*
X388507Y127202D01*
X388941Y131609D01*
X390227Y135846D01*
X392314Y139751D01*
X395123Y143174D01*
X398546Y145983D01*
X402451Y148070D01*
X406688Y149356D01*
X411095Y149790D01*
X415502Y149356D01*
D02*
G37*
%LPC*%
G36*
X411095Y147949D02*
X407062Y147552D01*
X403184Y146376D01*
X399610Y144465D01*
X396477Y141894D01*
X393906Y138761D01*
X391995Y135187D01*
X390819Y131309D01*
X390422Y127276D01*
X390819Y123243D01*
X391995Y119364D01*
X393906Y115790D01*
X396477Y112657D01*
X399610Y110086D01*
X403184Y108176D01*
X407062Y106999D01*
X411095Y106602D01*
X415128Y106999D01*
X419007Y108176D01*
X422581Y110086D01*
X425714Y112657D01*
X428285Y115790D01*
X430195Y119364D01*
X431371Y123243D01*
X431769Y127276D01*
X431371Y131309D01*
X430195Y135187D01*
X428285Y138761D01*
X425714Y141894D01*
X422581Y144465D01*
X419007Y146376D01*
X415128Y147552D01*
X411095Y147949D01*
D02*
G37*
%LPD*%
D12*
X695886Y613726D02*
Y614578D01*
Y613641D02*
Y613726D01*
X655232D02*
X695886D01*
X625206Y615100D02*
X642405D01*
X662185Y607122D02*
X662705D01*
X712234Y229383D02*
X712256Y229405D01*
X698125Y229383D02*
X712234D01*
X679590Y210848D02*
X698125Y229383D01*
X679590Y199646D02*
Y210848D01*
X688655Y185033D02*
X706769D01*
X683542Y190146D02*
X688655Y185033D01*
X706769D02*
X713786Y192050D01*
X666090Y190146D02*
X683542D01*
X694168Y199646D02*
X701523Y192292D01*
X679590Y199646D02*
X694168D01*
X654472Y496577D02*
X660379Y502484D01*
X695610Y506371D02*
X695886Y506646D01*
X665831Y506371D02*
X695610D01*
X712256Y229405D02*
X712876Y230025D01*
X712822Y305461D02*
X718914Y299369D01*
X657999Y305461D02*
X712822D01*
X700557Y408564D02*
X701438Y409445D01*
X657695Y408564D02*
X700557D01*
X660577Y605514D02*
X660865Y605226D01*
X642405Y615100D02*
X649505Y607999D01*
X655232Y613726D01*
X660577Y605514D02*
X662185Y607122D01*
X663114Y509088D02*
X665831Y506371D01*
X657643Y509088D02*
X663114D01*
X654084Y505529D02*
X657643Y509088D01*
X655557Y397087D02*
X660431Y401960D01*
X654883Y405752D02*
X657695Y408564D01*
X647273Y405752D02*
X654883D01*
X660734Y296628D02*
Y298857D01*
X654741Y302204D02*
X657999Y305461D01*
X647363Y302204D02*
X654741D01*
X655881Y600241D02*
X660865Y605226D01*
X611707Y605600D02*
X630382D01*
X635741Y600241D01*
X655881D01*
X646913Y505529D02*
X654084D01*
X638141Y496577D02*
X654472D01*
X631913Y502804D02*
X638141Y496577D01*
X612233Y502804D02*
X631913D01*
X640137Y512304D02*
X646913Y505529D01*
X625733Y512304D02*
X640137D01*
X635207Y293113D02*
X657219D01*
X630114Y298446D02*
X635207Y293353D01*
X612663Y298446D02*
X630114D01*
X640590Y412435D02*
X647273Y405752D01*
X625685Y412435D02*
X640590D01*
X612185Y402935D02*
X632409D01*
X638257Y397087D01*
X655557D01*
X657219Y293113D02*
X660734Y296628D01*
X635207Y293113D02*
Y293353D01*
X641621Y307946D02*
X647363Y302204D01*
X626163Y307946D02*
X641621D01*
X926664Y447207D02*
Y512611D01*
X880756Y401299D02*
X926664Y447207D01*
X877199Y391994D02*
X936961Y451756D01*
X867619Y391994D02*
X877199D01*
X863049Y401299D02*
X880756D01*
X873040Y382088D02*
X941025Y450073D01*
X872934Y382088D02*
X873040D01*
X999283Y466951D02*
Y600270D01*
X980208Y447876D02*
X999283Y466951D01*
X995219Y468635D02*
Y553534D01*
X978524Y451940D02*
X995219Y468635D01*
X1003347Y459667D02*
Y621605D01*
X987492Y443811D02*
X1003347Y459667D01*
X952668Y443811D02*
X987492D01*
X742292Y207313D02*
X747994Y213015D01*
X742292Y182928D02*
Y207313D01*
X950984Y447876D02*
X980208D01*
X949301Y451940D02*
X978524D01*
X887402Y390040D02*
X949301Y451940D01*
X895530Y360642D02*
Y386674D01*
X866405Y224819D02*
Y331517D01*
X895530Y360642D01*
X809515Y167928D02*
X866405Y224819D01*
X742292Y167928D02*
X809515D01*
X742292Y153374D02*
Y167928D01*
X891466Y362325D02*
Y388357D01*
X808090Y278949D02*
X891466Y362325D01*
X803000Y278949D02*
X808090D01*
X887402Y364912D02*
Y390040D01*
X858336Y335846D02*
X887402Y364912D01*
X806271Y335846D02*
X858336D01*
X979056Y645897D02*
X1003347Y621605D01*
X979056Y620497D02*
X999283Y600270D01*
X979056Y569697D02*
X995219Y553534D01*
X891466Y388357D02*
X950984Y447876D01*
X895530Y386674D02*
X952668Y443811D01*
X941025Y450073D02*
Y499525D01*
X936961Y451756D02*
Y649201D01*
X966555Y506396D02*
X979056Y518897D01*
X947896Y506396D02*
X966555D01*
X941025Y499525D02*
X947896Y506396D01*
X966573Y658813D02*
X979056Y671297D01*
X946573Y658813D02*
X966573D01*
X936961Y649201D02*
X946573Y658813D01*
X905022Y160823D02*
X905149Y160696D01*
X883318Y160823D02*
X905022D01*
X811113Y160696D02*
X834391D01*
D40*
X679590Y199646D02*
D03*
Y180646D02*
D03*
X666090Y190146D02*
D03*
X611942Y605226D02*
D03*
X625442Y595726D02*
D03*
Y614726D02*
D03*
X625733Y512304D02*
D03*
Y493304D02*
D03*
X612233Y502804D02*
D03*
X626163Y307946D02*
D03*
Y288946D02*
D03*
X612663Y298446D02*
D03*
X612185Y402935D02*
D03*
X625685Y393435D02*
D03*
Y412435D02*
D03*
D41*
X888090Y496800D02*
D03*
D42*
Y473305D02*
D03*
D45*
X701523Y192292D02*
D03*
Y178292D02*
D03*
D46*
X649505Y592999D02*
D03*
Y607999D02*
D03*
X646913Y490529D02*
D03*
Y505529D02*
D03*
X647273Y390752D02*
D03*
Y405752D02*
D03*
X647363Y287204D02*
D03*
Y302204D02*
D03*
X811113Y145696D02*
D03*
Y160696D02*
D03*
X905149Y145696D02*
D03*
Y160696D02*
D03*
X742292Y138374D02*
D03*
Y153374D02*
D03*
Y167928D02*
D03*
Y182928D02*
D03*
D47*
X849376Y615455D02*
D03*
X864376D02*
D03*
D53*
X651718Y222922D02*
X652643Y223847D01*
X651718Y182301D02*
Y222922D01*
Y182301D02*
X665715Y168304D01*
X905683Y667847D02*
X947487Y709651D01*
X905683Y547296D02*
Y667847D01*
X947487Y709651D02*
X966102D01*
X979056Y696697D01*
X867159Y561461D02*
X867791Y560829D01*
Y531691D02*
Y560829D01*
X807850Y471750D02*
X867791Y531691D01*
X807850Y471750D02*
X881221D01*
X887659Y478187D01*
X888090Y496800D02*
Y529703D01*
X905683Y547296D01*
D56*
X762824Y419446D02*
D03*
D57*
X444695Y509884D02*
D03*
X444812Y407981D02*
D03*
X988510Y120377D02*
D03*
X411095Y127276D02*
D03*
X988137Y786850D02*
D03*
X409279Y786833D02*
D03*
X444695Y714767D02*
D03*
Y613115D02*
D03*
X445616Y302034D02*
D03*
X445734Y194214D02*
D03*
D58*
X517593Y509884D02*
D03*
X572711D02*
D03*
X572828Y407981D02*
D03*
X517710D02*
D03*
X517593Y714767D02*
D03*
X572711D02*
D03*
X517593Y613115D02*
D03*
X572711D02*
D03*
X518515Y302034D02*
D03*
X573633D02*
D03*
X518632Y194214D02*
D03*
X573750D02*
D03*
D59*
X834518Y160823D02*
D03*
X883318D02*
D03*
X807850Y471750D02*
D03*
Y497150D02*
D03*
Y446350D02*
D03*
Y420950D02*
D03*
X738567Y590442D02*
D03*
Y615842D02*
D03*
Y641242D02*
D03*
D60*
X979056Y696697D02*
D03*
X953656D02*
D03*
Y671297D02*
D03*
X979056D02*
D03*
Y620497D02*
D03*
X953656D02*
D03*
Y645897D02*
D03*
X979056D02*
D03*
Y544297D02*
D03*
X953656D02*
D03*
Y518897D02*
D03*
X979056D02*
D03*
Y569697D02*
D03*
X953656D02*
D03*
Y595097D02*
D03*
X979056D02*
D03*
Y468097D02*
D03*
X953656D02*
D03*
Y493497D02*
D03*
X979056D02*
D03*
D61*
X809851Y692683D02*
D03*
X839851D02*
D03*
X869851D02*
D03*
Y722683D02*
D03*
X809851D02*
D03*
X839851D02*
D03*
D62*
Y765883D02*
D03*
D63*
X893510Y639761D02*
D03*
X817310D02*
D03*
X893510Y561021D02*
D03*
X817310D02*
D03*
X868110D02*
D03*
X842710D02*
D03*
Y639761D02*
D03*
X868110D02*
D03*
D64*
X654718Y448801D02*
D03*
X934539Y368296D02*
D03*
X932504Y394203D02*
D03*
X653931Y771386D02*
D03*
X700155Y794806D02*
D03*
X657033Y790569D02*
D03*
X611591Y792160D02*
D03*
X677351Y114397D02*
D03*
X654547Y245672D02*
D03*
X606475Y246288D02*
D03*
X655117Y346291D02*
D03*
X607976Y353015D02*
D03*
X609803Y453894D02*
D03*
X610729Y555301D02*
D03*
X654255Y551597D02*
D03*
X632092Y667646D02*
D03*
X606162Y707004D02*
D03*
X794405Y182710D02*
D03*
X858324Y144747D02*
D03*
X939885Y196342D02*
D03*
X845814Y429258D02*
D03*
X758650Y373243D02*
D03*
X695886Y614578D02*
D03*
X662705Y607122D02*
D03*
X652643Y223847D02*
D03*
X665715Y168304D02*
D03*
X660379Y502484D02*
D03*
X631845Y566159D02*
D03*
X695886Y506646D02*
D03*
X631972Y354218D02*
D03*
X660431Y401960D02*
D03*
X660734Y298857D02*
D03*
X713786Y192050D02*
D03*
X701438Y409445D02*
D03*
X718914Y299369D02*
D03*
X631679Y460713D02*
D03*
X656170Y703300D02*
D03*
X631679Y245628D02*
D03*
Y112217D02*
D03*
X878489Y273235D02*
D03*
Y286535D02*
D03*
Y299835D02*
D03*
X854249Y273235D02*
D03*
Y286535D02*
D03*
Y299835D02*
D03*
X867992Y391693D02*
D03*
X872934Y382088D02*
D03*
X1003048Y459382D02*
D03*
X747994Y213015D02*
D03*
X866405Y224819D02*
D03*
X803000Y278949D02*
D03*
X806271Y335846D02*
D03*
X926664Y512611D02*
D03*
X863049Y401299D02*
D03*
X712256Y229405D02*
D03*
D65*
X778190Y746862D02*
D03*
Y768862D02*
D03*
X808190Y746862D02*
D03*
Y768862D02*
D03*
D66*
X864376Y615455D02*
X868110Y619189D01*
Y639761D01*
X842710Y622120D02*
X849376Y615455D01*
X842710Y622120D02*
Y639761D01*
X831313Y651158D02*
X842710Y639761D01*
X831313Y651158D02*
Y668717D01*
X809851Y690179D02*
X831313Y668717D01*
X809851Y690179D02*
Y692683D01*
X778190Y724343D02*
X809851Y692683D01*
X778190Y724343D02*
Y746862D01*
X808190D02*
X824150Y730902D01*
Y708383D02*
Y730902D01*
Y708383D02*
X839851Y692683D01*
X857686Y661373D02*
Y668990D01*
Y661373D02*
X862011Y657048D01*
X851609Y675067D02*
X857686Y668990D01*
X862011Y645349D02*
X867159Y640201D01*
X862011Y645349D02*
Y657048D01*
X831531Y684363D02*
X839851Y692683D01*
X831531Y678317D02*
X834781Y675067D01*
X851609D01*
X831531Y678317D02*
Y684363D01*
M02*
