G04*
G04 #@! TF.GenerationSoftware,Altium Limited,Altium Designer,18.1.6 (161)*
G04*
G04 Layer_Color=65535*
%FSLAX44Y44*%
%MOMM*%
G71*
G01*
G75*
%ADD10C,0.2500*%
%ADD11C,0.6000*%
%ADD12C,0.2540*%
%ADD13C,0.2000*%
%ADD14C,0.1524*%
%ADD15C,0.1270*%
%ADD16R,3.6830X0.5080*%
%ADD17R,0.5080X3.6830*%
D10*
X795655Y207949D02*
G03*
X795655Y207949I-1250J0D01*
G01*
D11*
X812905Y232449D02*
G03*
X812905Y232449I-3000J0D01*
G01*
D12*
X825418Y184073D02*
G03*
X825418Y137573I0J-23250D01*
G01*
X892418D02*
G03*
X892418Y184073I0J23250D01*
G01*
X825630Y513660D02*
G03*
X825630Y513660I-5080J0D01*
G01*
X824360D02*
G03*
X824360Y513660I-3810J0D01*
G01*
X820550Y511120D02*
G03*
X819414Y511388I0J2540D01*
G01*
X821820Y513660D02*
G03*
X820550Y512390I-1270J0D01*
G01*
X812110Y587743D02*
G03*
X812224Y613028I-1150J12648D01*
G01*
X807150Y569911D02*
G03*
X807150Y569911I-1270J0D01*
G01*
X752537Y661562D02*
G03*
X752537Y661562I-1270J0D01*
G01*
X753807D02*
G03*
X753807Y661562I-2540J0D01*
G01*
X755284D02*
G03*
X755284Y661562I-4016J0D01*
G01*
X756947D02*
G03*
X756947Y661562I-5680J0D01*
G01*
X710378Y689565D02*
Y746714D01*
X748478D01*
Y689565D02*
Y746714D01*
X710378Y689565D02*
X748478D01*
X376115Y471784D02*
Y547984D01*
Y471784D02*
X597095D01*
Y547984D01*
X376115D02*
X597095D01*
X376232Y446081D02*
X597212D01*
Y369881D02*
Y446081D01*
X376232Y369881D02*
X597212D01*
X376232D02*
Y446081D01*
X741744Y219247D02*
X754244D01*
X741744D02*
Y243748D01*
X754244D01*
Y219247D02*
Y243748D01*
X932951Y142207D02*
X945451D01*
X932951D02*
Y166707D01*
X945451D01*
Y142207D02*
Y166707D01*
X952572Y384010D02*
X977072D01*
X952572D02*
Y396510D01*
X977072D01*
Y384010D02*
Y396510D01*
X966582Y319247D02*
X979082D01*
X966582D02*
Y343747D01*
X979082D01*
Y319247D02*
Y343747D01*
X791637Y378475D02*
X816137D01*
X791637D02*
Y390975D01*
X816137D01*
Y378475D02*
Y390975D01*
X959909Y218391D02*
X984409D01*
X959909D02*
Y230891D01*
X984409D01*
Y218391D02*
Y230891D01*
X959909Y242594D02*
X984409D01*
X959909D02*
Y255094D01*
X984409D01*
Y242594D02*
Y255094D01*
X959909Y266796D02*
X984409D01*
X959909D02*
Y279296D01*
X984409D01*
Y266796D02*
Y279296D01*
X1014478Y313088D02*
Y361348D01*
X991618Y313088D02*
X1014478D01*
X991618D02*
Y361348D01*
X1014478D01*
X994522Y201759D02*
Y204934D01*
X995157Y202394D02*
X997062Y200489D01*
X997697D01*
Y202394D01*
X995157Y204934D02*
X997697Y202394D01*
X995157Y204934D02*
X997697Y202394D01*
Y200489D02*
Y202394D01*
Y198584D02*
Y202394D01*
X995157Y204934D02*
X997697Y202394D01*
X995157Y204934D02*
X997697D01*
X991347D02*
X997697D01*
X991347D02*
X997697Y198584D01*
X959597Y154134D02*
X968487D01*
X959597D02*
Y204934D01*
X997697D01*
Y154134D02*
Y204934D01*
X963407Y154134D02*
X997697D01*
X825418Y184073D02*
X892418D01*
X825418Y137573D02*
X892418D01*
X869070Y476460D02*
X881570D01*
X869070Y451960D02*
Y476460D01*
Y451960D02*
X881570D01*
Y476460D01*
X869070Y445198D02*
X881570D01*
X869070Y420698D02*
Y445198D01*
Y420698D02*
X881570D01*
Y445198D01*
X792610Y522550D02*
X858650D01*
Y395550D02*
Y522550D01*
X792610Y395550D02*
X858650D01*
X792610D02*
Y522550D01*
X916826Y750037D02*
X1017156D01*
X916826Y414757D02*
Y750037D01*
Y414757D02*
X1017156D01*
Y750037D01*
Y479527D02*
Y480797D01*
X1004456Y468097D02*
X1017156Y480797D01*
X1004456Y468097D02*
X1017156Y455397D01*
X376115Y676667D02*
Y752867D01*
Y676667D02*
X597095D01*
Y752867D01*
X376115D02*
X597095D01*
X376115Y575015D02*
Y651215D01*
Y575015D02*
X597095D01*
Y651215D01*
X376115D02*
X597095D01*
X377037Y263934D02*
Y340134D01*
Y263934D02*
X598017D01*
Y340134D01*
X377037D02*
X598017D01*
X377154Y156114D02*
Y232314D01*
Y156114D02*
X598134D01*
Y232314D01*
X377154D02*
X598134D01*
X772851Y680883D02*
Y813883D01*
Y680883D02*
X906851D01*
Y813883D01*
X772851D02*
X906851D01*
X812224Y613028D02*
Y629594D01*
X812230Y571181D02*
Y587623D01*
X898590Y571181D02*
Y628331D01*
X812230Y629601D02*
X898590D01*
X812230Y571181D02*
X898590D01*
X713167Y671722D02*
X799527D01*
X713167Y558692D02*
Y671722D01*
Y558692D02*
X799527D01*
Y671722D01*
X783628Y487095D02*
Y525196D01*
X726478D02*
X783628D01*
X726478Y487095D02*
Y525196D01*
Y487095D02*
X783628D01*
X408472Y569702D02*
Y557006D01*
X416936D01*
X427515D02*
X423284D01*
X421168Y559123D01*
Y563354D01*
X423284Y565470D01*
X427515D01*
X429632Y563354D01*
Y561239D01*
X421168D01*
X435979Y557006D02*
Y567586D01*
Y563354D01*
X433863D01*
X438095D01*
X435979D01*
Y567586D01*
X438095Y569702D01*
X446559Y567586D02*
Y565470D01*
X444443D01*
X448675D01*
X446559D01*
Y559123D01*
X448675Y557006D01*
X476183Y567586D02*
X474067Y569702D01*
X469835D01*
X467719Y567586D01*
Y565470D01*
X469835Y563354D01*
X474067D01*
X476183Y561239D01*
Y559123D01*
X474067Y557006D01*
X469835D01*
X467719Y559123D01*
X480415Y557006D02*
X484647D01*
X482531D01*
Y565470D01*
X480415D01*
X495227Y552775D02*
X497343D01*
X499459Y554891D01*
Y565470D01*
X493111D01*
X490995Y563354D01*
Y559123D01*
X493111Y557006D01*
X499459D01*
X503691D02*
Y565470D01*
X510039D01*
X512155Y563354D01*
Y557006D01*
X518503Y565470D02*
X522735D01*
X524851Y563354D01*
Y557006D01*
X518503D01*
X516387Y559123D01*
X518503Y561239D01*
X524851D01*
X529083Y557006D02*
X533315D01*
X531199D01*
Y569702D01*
X529083D01*
X441227Y363033D02*
Y350337D01*
Y356685D01*
X449691D01*
Y363033D01*
Y350337D01*
X453923Y363033D02*
Y350337D01*
X462387D01*
X479314Y363033D02*
Y350337D01*
X487778D01*
X494126D02*
X498358D01*
X500474Y352453D01*
Y356685D01*
X498358Y358801D01*
X494126D01*
X492010Y356685D01*
Y352453D01*
X494126Y350337D01*
X504706Y358801D02*
Y352453D01*
X506822Y350337D01*
X508938Y352453D01*
X511054Y350337D01*
X513170Y352453D01*
Y358801D01*
X446690Y145816D02*
Y133121D01*
X455154D01*
X459386D02*
X463618D01*
X461502D01*
Y141585D01*
X459386D01*
X474198Y128889D02*
X476314D01*
X478430Y131005D01*
Y141585D01*
X472082D01*
X469966Y139468D01*
Y135237D01*
X472082Y133121D01*
X478430D01*
X482662Y145816D02*
Y133121D01*
Y139468D01*
X484778Y141585D01*
X489010D01*
X491126Y139468D01*
Y133121D01*
X497474Y143701D02*
Y141585D01*
X495358D01*
X499590D01*
X497474D01*
Y135237D01*
X499590Y133121D01*
X505938D02*
X512285D01*
X514402Y135237D01*
X512285Y137353D01*
X508054D01*
X505938Y139468D01*
X508054Y141585D01*
X514402D01*
X539793Y143701D02*
X537677Y145816D01*
X533445D01*
X531329Y143701D01*
Y135237D01*
X533445Y133121D01*
X537677D01*
X539793Y135237D01*
X546141Y133121D02*
X550373D01*
X552489Y135237D01*
Y139468D01*
X550373Y141585D01*
X546141D01*
X544025Y139468D01*
Y135237D01*
X546141Y133121D01*
X556721D02*
Y141585D01*
X563069D01*
X565185Y139468D01*
Y133121D01*
X571533Y143701D02*
Y141585D01*
X569417D01*
X573649D01*
X571533D01*
Y135237D01*
X573649Y133121D01*
X579997Y141585D02*
Y133121D01*
Y137353D01*
X582113Y139468D01*
X584229Y141585D01*
X586345D01*
X594809Y133121D02*
X599041D01*
X601157Y135237D01*
Y139468D01*
X599041Y141585D01*
X594809D01*
X592693Y139468D01*
Y135237D01*
X594809Y133121D01*
X605389D02*
X609621D01*
X607505D01*
Y145816D01*
X605389D01*
X615969Y133121D02*
X620201D01*
X618084D01*
Y145816D01*
X615969D01*
X632896Y133121D02*
X628664D01*
X626549Y135237D01*
Y139468D01*
X628664Y141585D01*
X632896D01*
X635012Y139468D01*
Y137353D01*
X626549D01*
X639244Y141585D02*
Y133121D01*
Y137353D01*
X641360Y139468D01*
X643476Y141585D01*
X645592D01*
X664636D02*
X668868Y133121D01*
X673100Y141585D01*
X685796Y133121D02*
X677332D01*
X685796Y141585D01*
Y143701D01*
X683680Y145816D01*
X679448D01*
X677332Y143701D01*
X690028Y133121D02*
Y135237D01*
X692144D01*
Y133121D01*
X690028D01*
X700608D02*
X704840D01*
X702724D01*
Y145816D01*
X700608Y143701D01*
X446690Y120253D02*
Y107557D01*
X455154D01*
X461502D02*
X465734D01*
X467850Y109674D01*
Y113905D01*
X465734Y116021D01*
X461502D01*
X459386Y113905D01*
Y109674D01*
X461502Y107557D01*
X476314Y103326D02*
X478430D01*
X480546Y105442D01*
Y116021D01*
X474198D01*
X472082Y113905D01*
Y109674D01*
X474198Y107557D01*
X480546D01*
X486894Y116021D02*
X491126D01*
X493242Y113905D01*
Y107557D01*
X486894D01*
X484778Y109674D01*
X486894Y111790D01*
X493242D01*
X497474Y107557D02*
Y116021D01*
X503821D01*
X505938Y113905D01*
Y107557D01*
X522865Y120253D02*
Y107557D01*
Y113905D01*
X531329D01*
Y120253D01*
Y107557D01*
X535561Y116021D02*
Y109674D01*
X537677Y107557D01*
X544025D01*
Y116021D01*
X548257Y107557D02*
Y116021D01*
X554605D01*
X556721Y113905D01*
Y107557D01*
X563069Y118137D02*
Y116021D01*
X560953D01*
X565185D01*
X563069D01*
Y109674D01*
X565185Y107557D01*
X577881D02*
X573649D01*
X571533Y109674D01*
Y113905D01*
X573649Y116021D01*
X577881D01*
X579997Y113905D01*
Y111790D01*
X571533D01*
X584229Y116021D02*
Y107557D01*
Y111790D01*
X586345Y113905D01*
X588461Y116021D01*
X590577D01*
X453258Y251352D02*
X451142Y253468D01*
X446910D01*
X444794Y251352D01*
Y249235D01*
X446910Y247120D01*
X451142D01*
X453258Y245004D01*
Y242888D01*
X451142Y240772D01*
X446910D01*
X444794Y242888D01*
X459606Y251352D02*
Y249235D01*
X457490D01*
X461722D01*
X459606D01*
Y242888D01*
X461722Y240772D01*
X468070Y249235D02*
Y240772D01*
Y245004D01*
X470186Y247120D01*
X472302Y249235D01*
X474418D01*
X482882Y240772D02*
X487113D01*
X489230Y242888D01*
Y247120D01*
X487113Y249235D01*
X482882D01*
X480766Y247120D01*
Y242888D01*
X482882Y240772D01*
X493461Y253468D02*
Y240772D01*
X499809D01*
X501925Y242888D01*
Y245004D01*
Y247120D01*
X499809Y249235D01*
X493461D01*
X512505Y240772D02*
X508273D01*
X506157Y242888D01*
Y247120D01*
X508273Y249235D01*
X512505D01*
X514621Y247120D01*
Y245004D01*
X506157D01*
X411530Y659888D02*
Y672584D01*
X417878D01*
X419994Y670468D01*
Y666236D01*
X417878Y664120D01*
X411530D01*
X415762D02*
X419994Y659888D01*
X424226D02*
X428457D01*
X426341D01*
Y668352D01*
X424226D01*
X439037Y655656D02*
X441153D01*
X443269Y657772D01*
Y668352D01*
X436921D01*
X434805Y666236D01*
Y662004D01*
X436921Y659888D01*
X443269D01*
X447501Y672584D02*
Y659888D01*
Y666236D01*
X449617Y668352D01*
X453849D01*
X455965Y666236D01*
Y659888D01*
X462313Y670468D02*
Y668352D01*
X460197D01*
X464429D01*
X462313D01*
Y662004D01*
X464429Y659888D01*
X491937Y670468D02*
X489821Y672584D01*
X485589D01*
X483473Y670468D01*
Y668352D01*
X485589Y666236D01*
X489821D01*
X491937Y664120D01*
Y662004D01*
X489821Y659888D01*
X485589D01*
X483473Y662004D01*
X496169Y659888D02*
X500401D01*
X498285D01*
Y668352D01*
X496169D01*
X510981Y655656D02*
X513097D01*
X515213Y657772D01*
Y668352D01*
X508865D01*
X506749Y666236D01*
Y662004D01*
X508865Y659888D01*
X515213D01*
X519445D02*
Y668352D01*
X525793D01*
X527909Y666236D01*
Y659888D01*
X534257Y668352D02*
X538489D01*
X540605Y666236D01*
Y659888D01*
X534257D01*
X532141Y662004D01*
X534257Y664120D01*
X540605D01*
X544836Y659888D02*
X549068D01*
X546952D01*
Y672584D01*
X544836D01*
X460287Y762556D02*
Y775251D01*
X466635D01*
X468751Y773136D01*
Y768904D01*
X466635Y766788D01*
X460287D01*
X475099Y762556D02*
X479331D01*
X481447Y764672D01*
Y768904D01*
X479331Y771020D01*
X475099D01*
X472983Y768904D01*
Y764672D01*
X475099Y762556D01*
X485679Y771020D02*
Y764672D01*
X487795Y762556D01*
X489911Y764672D01*
X492027Y762556D01*
X494143Y764672D01*
Y771020D01*
X504723Y762556D02*
X500491D01*
X498375Y764672D01*
Y768904D01*
X500491Y771020D01*
X504723D01*
X506839Y768904D01*
Y766788D01*
X498375D01*
X511071Y771020D02*
Y762556D01*
Y766788D01*
X513187Y768904D01*
X515303Y771020D01*
X517419D01*
X449548Y465649D02*
Y452953D01*
X455896D01*
X458012Y455069D01*
Y457185D01*
X455896Y459301D01*
X449548D01*
X455896D01*
X458012Y461417D01*
Y463533D01*
X455896Y465649D01*
X449548D01*
X462244Y461417D02*
Y452953D01*
Y457185D01*
X464360Y459301D01*
X466476Y461417D01*
X468592D01*
X477056D02*
X481288D01*
X483404Y459301D01*
Y452953D01*
X477056D01*
X474940Y455069D01*
X477056Y457185D01*
X483404D01*
X487636Y452953D02*
Y465649D01*
Y457185D02*
X493984Y461417D01*
X487636Y457185D02*
X493984Y452953D01*
X506680D02*
X502448D01*
X500332Y455069D01*
Y459301D01*
X502448Y461417D01*
X506680D01*
X508796Y459301D01*
Y457185D01*
X500332D01*
X608286Y232907D02*
Y217672D01*
X615904D01*
X618443Y220211D01*
Y230368D01*
X615904Y232907D01*
X608286D01*
X633678D02*
X623521D01*
Y225290D01*
X628599Y227829D01*
X631139D01*
X633678Y225290D01*
Y220211D01*
X631139Y217672D01*
X626060D01*
X623521Y220211D01*
X625165Y259924D02*
Y272620D01*
X631513D01*
X633629Y270504D01*
Y266272D01*
X631513Y264156D01*
X625165D01*
X629397D02*
X633629Y259924D01*
X646325D02*
X637861D01*
X646325Y268388D01*
Y270504D01*
X644209Y272620D01*
X639977D01*
X637861Y270504D01*
X650557D02*
X652673Y272620D01*
X656905D01*
X659021Y270504D01*
Y268388D01*
X656905Y266272D01*
X654789D01*
X656905D01*
X659021Y264156D01*
Y262040D01*
X656905Y259924D01*
X652673D01*
X650557Y262040D01*
X575532Y556666D02*
Y569362D01*
X581880D01*
X583996Y567246D01*
Y563014D01*
X581880Y560899D01*
X575532D01*
X596692Y569362D02*
X588228D01*
Y563014D01*
X592460Y565130D01*
X594576D01*
X596692Y563014D01*
Y558783D01*
X594576Y556666D01*
X590344D01*
X588228Y558783D01*
X576465Y453132D02*
Y465828D01*
X582813D01*
X584929Y463712D01*
Y459480D01*
X582813Y457364D01*
X576465D01*
X597625Y465828D02*
X593393Y463712D01*
X589161Y459480D01*
Y455248D01*
X591277Y453132D01*
X595509D01*
X597625Y455248D01*
Y457364D01*
X595509Y459480D01*
X589161D01*
X630841Y572456D02*
Y585151D01*
X637189D01*
X639305Y583036D01*
Y578804D01*
X637189Y576688D01*
X630841D01*
X635073D02*
X639305Y572456D01*
X643537D02*
X647769D01*
X645653D01*
Y585151D01*
X643537Y583036D01*
X654117Y574572D02*
X656233Y572456D01*
X660465D01*
X662581Y574572D01*
Y583036D01*
X660465Y585151D01*
X656233D01*
X654117Y583036D01*
Y580920D01*
X656233Y578804D01*
X662581D01*
X629463Y468273D02*
Y480969D01*
X635810D01*
X637926Y478853D01*
Y474621D01*
X635810Y472505D01*
X629463D01*
X633694D02*
X637926Y468273D01*
X642158D02*
X646390D01*
X644274D01*
Y480969D01*
X642158Y478853D01*
X652738Y480969D02*
X661202D01*
Y478853D01*
X652738Y470389D01*
Y468273D01*
X686512Y155381D02*
Y168077D01*
X692860D01*
X694976Y165961D01*
Y161729D01*
X692860Y159613D01*
X686512D01*
X690744D02*
X694976Y155381D01*
X699208D02*
X703440D01*
X701324D01*
Y168077D01*
X699208Y165961D01*
X718252Y168077D02*
X709788D01*
Y161729D01*
X714020Y163845D01*
X716136D01*
X718252Y161729D01*
Y157497D01*
X716136Y155381D01*
X711904D01*
X709788Y157497D01*
X632420Y368595D02*
Y381291D01*
X638768D01*
X640884Y379175D01*
Y374943D01*
X638768Y372827D01*
X632420D01*
X636652D02*
X640884Y368595D01*
X645116D02*
X649348D01*
X647232D01*
Y381291D01*
X645116Y379175D01*
X655696D02*
X657812Y381291D01*
X662044D01*
X664160Y379175D01*
Y377059D01*
X662044Y374943D01*
X659928D01*
X662044D01*
X664160Y372827D01*
Y370711D01*
X662044Y368595D01*
X657812D01*
X655696Y370711D01*
X615298Y326217D02*
Y334681D01*
X613181Y336797D01*
X608950D01*
X606834Y334681D01*
Y326217D01*
X608950Y324101D01*
X613181D01*
X611066Y328333D02*
X615298Y324101D01*
X613181D02*
X615298Y326217D01*
X619529Y324101D02*
X623761D01*
X621645D01*
Y336797D01*
X619529Y334681D01*
X638573Y324101D02*
X630109D01*
X638573Y332565D01*
Y334681D01*
X636457Y336797D01*
X632225D01*
X630109Y334681D01*
X613291Y631319D02*
Y639783D01*
X611175Y641899D01*
X606943D01*
X604827Y639783D01*
Y631319D01*
X606943Y629203D01*
X611175D01*
X609059Y633435D02*
X613291Y629203D01*
X611175D02*
X613291Y631319D01*
X617523Y629203D02*
X621755D01*
X619639D01*
Y641899D01*
X617523Y639783D01*
X628103D02*
X630219Y641899D01*
X634451D01*
X636567Y639783D01*
Y631319D01*
X634451Y629203D01*
X630219D01*
X628103Y631319D01*
Y639783D01*
X614015Y533854D02*
Y542318D01*
X611899Y544434D01*
X607667D01*
X605551Y542318D01*
Y533854D01*
X607667Y531738D01*
X611899D01*
X609783Y535970D02*
X614015Y531738D01*
X611899D02*
X614015Y533854D01*
X618247D02*
X620363Y531738D01*
X624595D01*
X626711Y533854D01*
Y542318D01*
X624595Y544434D01*
X620363D01*
X618247Y542318D01*
Y540202D01*
X620363Y538086D01*
X626711D01*
X672090Y213608D02*
Y222072D01*
X669974Y224188D01*
X665742D01*
X663626Y222072D01*
Y213608D01*
X665742Y211492D01*
X669974D01*
X667858Y215724D02*
X672090Y211492D01*
X669974D02*
X672090Y213608D01*
X676322Y222072D02*
X678438Y224188D01*
X682670D01*
X684786Y222072D01*
Y219956D01*
X682670Y217840D01*
X684786Y215724D01*
Y213608D01*
X682670Y211492D01*
X678438D01*
X676322Y213608D01*
Y215724D01*
X678438Y217840D01*
X676322Y219956D01*
Y222072D01*
X678438Y217840D02*
X682670D01*
X614768Y430078D02*
Y438542D01*
X612652Y440658D01*
X608420D01*
X606304Y438542D01*
Y430078D01*
X608420Y427962D01*
X612652D01*
X610536Y432194D02*
X614768Y427962D01*
X612652D02*
X614768Y430078D01*
X619000Y440658D02*
X627464D01*
Y438542D01*
X619000Y430078D01*
Y427962D01*
X795079Y130377D02*
X803543Y117681D01*
Y130377D02*
X795079Y117681D01*
X807775D02*
X812007D01*
X809891D01*
Y130377D01*
X807775Y128261D01*
X740811Y314550D02*
Y303970D01*
X742927Y301854D01*
X747159D01*
X749275Y303970D01*
Y314550D01*
X753507Y301854D02*
X757739D01*
X755623D01*
Y314550D01*
X753507Y312433D01*
X968663Y302866D02*
X966547Y304982D01*
X962315D01*
X960199Y302866D01*
Y300750D01*
X962315Y298634D01*
X966547D01*
X968663Y296518D01*
Y294402D01*
X966547Y292286D01*
X962315D01*
X960199Y294402D01*
X972895Y304982D02*
Y292286D01*
X977127Y296518D01*
X981359Y292286D01*
Y304982D01*
X985591Y292286D02*
X989823D01*
X987707D01*
Y304982D01*
X985591Y302866D01*
X990961Y264325D02*
Y277021D01*
X997309D01*
X999425Y274905D01*
Y270673D01*
X997309Y268557D01*
X990961D01*
X995193D02*
X999425Y264325D01*
X1010005D02*
Y277021D01*
X1003657Y270673D01*
X1012121D01*
X990086Y240203D02*
Y252899D01*
X996434D01*
X998550Y250783D01*
Y246551D01*
X996434Y244435D01*
X990086D01*
X994318D02*
X998550Y240203D01*
X1002782Y250783D02*
X1004898Y252899D01*
X1009130D01*
X1011246Y250783D01*
Y248667D01*
X1009130Y246551D01*
X1007014D01*
X1009130D01*
X1011246Y244435D01*
Y242319D01*
X1009130Y240203D01*
X1004898D01*
X1002782Y242319D01*
X989541Y218641D02*
Y231337D01*
X995890D01*
X998006Y229221D01*
Y224989D01*
X995890Y222873D01*
X989541D01*
X993773D02*
X998006Y218641D01*
X1010701D02*
X1002237D01*
X1010701Y227105D01*
Y229221D01*
X1008585Y231337D01*
X1004353D01*
X1002237Y229221D01*
X930373Y185375D02*
Y172679D01*
X936721D01*
X938837Y174795D01*
Y183259D01*
X936721Y185375D01*
X930373D01*
X949417Y172679D02*
Y185375D01*
X943069Y179027D01*
X951533D01*
X763510Y398201D02*
X761394Y400317D01*
X757162D01*
X755046Y398201D01*
Y389738D01*
X757162Y387622D01*
X761394D01*
X763510Y389738D01*
X776206Y400317D02*
X767741D01*
Y393969D01*
X771973Y396086D01*
X774090D01*
X776206Y393969D01*
Y389738D01*
X774090Y387622D01*
X769857D01*
X767741Y389738D01*
X965236Y360707D02*
X963120Y362823D01*
X958888D01*
X956772Y360707D01*
Y352243D01*
X958888Y350127D01*
X963120D01*
X965236Y352243D01*
X975816Y350127D02*
Y362823D01*
X969468Y356475D01*
X977932D01*
X991992Y393946D02*
X989876Y396063D01*
X985644D01*
X983528Y393946D01*
Y385483D01*
X985644Y383367D01*
X989876D01*
X991992Y385483D01*
X996224Y393946D02*
X998340Y396063D01*
X1002572D01*
X1004688Y393946D01*
Y391831D01*
X1002572Y389715D01*
X1000456D01*
X1002572D01*
X1004688Y387599D01*
Y385483D01*
X1002572Y383367D01*
X998340D01*
X996224Y385483D01*
X932367Y130988D02*
X930251Y133104D01*
X926019D01*
X923903Y130988D01*
Y122524D01*
X926019Y120408D01*
X930251D01*
X932367Y122524D01*
X945063Y120408D02*
X936599D01*
X945063Y128872D01*
Y130988D01*
X942947Y133104D01*
X938715D01*
X936599Y130988D01*
X748243Y262589D02*
X746127Y264705D01*
X741895D01*
X739779Y262589D01*
Y254125D01*
X741895Y252009D01*
X746127D01*
X748243Y254125D01*
X752475Y252009D02*
X756707D01*
X754591D01*
Y264705D01*
X752475Y262589D01*
X762428Y547361D02*
Y534665D01*
X768776D01*
X770892Y536781D01*
Y545245D01*
X768776Y547361D01*
X762428D01*
X775124Y534665D02*
X779356D01*
X777240D01*
Y547361D01*
X775124Y545245D01*
X886916Y475416D02*
Y462720D01*
X893264D01*
X895380Y464836D01*
Y473300D01*
X893264Y475416D01*
X886916D01*
X899612Y473300D02*
X901728Y475416D01*
X905959D01*
X908075Y473300D01*
Y471184D01*
X905959Y469068D01*
X903844D01*
X905959D01*
X908075Y466952D01*
Y464836D01*
X905959Y462720D01*
X901728D01*
X899612Y464836D01*
X711698Y768420D02*
Y755724D01*
X718046D01*
X720162Y757840D01*
Y766304D01*
X718046Y768420D01*
X711698D01*
X732858D02*
X728626Y766304D01*
X724394Y762072D01*
Y757840D01*
X726510Y755724D01*
X730742D01*
X732858Y757840D01*
Y759956D01*
X730742Y762072D01*
X724394D01*
X927571Y760398D02*
Y773094D01*
X933919D01*
X936035Y770978D01*
Y766746D01*
X933919Y764630D01*
X927571D01*
X940267Y760398D02*
X944499D01*
X942383D01*
Y773094D01*
X940267Y770978D01*
X747271Y798335D02*
Y811031D01*
X753619D01*
X755735Y808915D01*
Y804683D01*
X753619Y802567D01*
X747271D01*
X768431Y798335D02*
X759967D01*
X768431Y806799D01*
Y808915D01*
X766315Y811031D01*
X762083D01*
X759967Y808915D01*
X574600Y759071D02*
Y771767D01*
X580948D01*
X583064Y769651D01*
Y765419D01*
X580948Y763303D01*
X574600D01*
X587295Y769651D02*
X589412Y771767D01*
X593643D01*
X595760Y769651D01*
Y767535D01*
X593643Y765419D01*
X591527D01*
X593643D01*
X595760Y763303D01*
Y761187D01*
X593643Y759071D01*
X589412D01*
X587295Y761187D01*
X576465Y656470D02*
Y669165D01*
X582813D01*
X584929Y667050D01*
Y662818D01*
X582813Y660702D01*
X576465D01*
X595509Y656470D02*
Y669165D01*
X589161Y662818D01*
X597625D01*
X574600Y346800D02*
Y359496D01*
X580948D01*
X583064Y357380D01*
Y353148D01*
X580948Y351032D01*
X574600D01*
X587295Y357380D02*
X589412Y359496D01*
X593643D01*
X595760Y357380D01*
Y355264D01*
X593643Y353148D01*
X595760Y351032D01*
Y348916D01*
X593643Y346800D01*
X589412D01*
X587295Y348916D01*
Y351032D01*
X589412Y353148D01*
X587295Y355264D01*
Y357380D01*
X589412Y353148D02*
X593643D01*
X571801Y237670D02*
Y250366D01*
X578149D01*
X580265Y248249D01*
Y244018D01*
X578149Y241902D01*
X571801D01*
X584497Y239786D02*
X586613Y237670D01*
X590845D01*
X592961Y239786D01*
Y248249D01*
X590845Y250366D01*
X586613D01*
X584497Y248249D01*
Y246134D01*
X586613Y244018D01*
X592961D01*
X887780Y430086D02*
Y442782D01*
X894128D01*
X896244Y440666D01*
Y436434D01*
X894128Y434318D01*
X887780D01*
X892012D02*
X896244Y430086D01*
X908940Y442782D02*
X900476D01*
Y436434D01*
X904708Y438550D01*
X906824D01*
X908940Y436434D01*
Y432202D01*
X906824Y430086D01*
X902592D01*
X900476Y432202D01*
X718954Y551060D02*
Y540480D01*
X721070Y538364D01*
X725302D01*
X727418Y540480D01*
Y551060D01*
X740114Y538364D02*
X731650D01*
X740114Y546828D01*
Y548944D01*
X737998Y551060D01*
X733766D01*
X731650Y548944D01*
X829330Y541509D02*
Y530929D01*
X831445Y528813D01*
X835677D01*
X837794Y530929D01*
Y541509D01*
X848373Y528813D02*
Y541509D01*
X842025Y535161D01*
X850489D01*
X793995Y544251D02*
Y533671D01*
X796111Y531555D01*
X800343D01*
X802459Y533671D01*
Y544251D01*
X806691Y542135D02*
X808807Y544251D01*
X813038D01*
X815154Y542135D01*
Y540019D01*
X813038Y537903D01*
X810922D01*
X813038D01*
X815154Y535787D01*
Y533671D01*
X813038Y531555D01*
X808807D01*
X806691Y533671D01*
D13*
X799905Y222449D02*
X922905D01*
X799905Y345449D02*
X922905D01*
X799905Y222449D02*
Y345449D01*
X922905Y222449D02*
Y345449D01*
D14*
X870710Y466146D02*
X875155Y461701D01*
X879600Y466146D01*
X870710Y461701D02*
X879600D01*
X870710Y466781D02*
X879600D01*
D15*
X740254Y437080D02*
X744486D01*
X742370D01*
Y430732D01*
X746602D02*
Y437080D01*
X749776D01*
X750834Y436022D01*
Y433906D01*
X749776Y432848D01*
X746602D01*
X759297Y436022D02*
X760356Y437080D01*
X762471D01*
X763530Y436022D01*
Y434964D01*
X762471Y433906D01*
X761413D01*
X762471D01*
X763530Y432848D01*
Y431790D01*
X762471Y430732D01*
X760356D01*
X759297Y431790D01*
X765646Y437080D02*
Y432848D01*
X767761Y430732D01*
X769877Y432848D01*
Y437080D01*
X771993Y436022D02*
X773051Y437080D01*
X775167D01*
X776225Y436022D01*
Y434964D01*
X775167Y433906D01*
X774109D01*
X775167D01*
X776225Y432848D01*
Y431790D01*
X775167Y430732D01*
X773051D01*
X771993Y431790D01*
D16*
X730063Y693372D02*
D03*
D17*
X779818Y506781D02*
D03*
M02*
