G04 Layer_Physical_Order=1*
G04 Layer_Color=255*
%FSLAX44Y44*%
%MOMM*%
G71*
G01*
G75*
%ADD10R,0.8000X0.5000*%
%ADD11R,1.7000X0.8000*%
%ADD12R,0.5000X0.8000*%
%ADD13O,0.3000X2.1000*%
%ADD14O,2.1000X0.3000*%
%ADD15R,0.9000X1.2000*%
%ADD16R,2.5400X2.6670*%
%ADD17R,1.2700X0.7620*%
%ADD18R,2.6670X2.5400*%
%ADD19R,0.7620X1.2700*%
%ADD20C,0.2540*%
%ADD21C,0.6350*%
%ADD22C,0.5080*%
%ADD23C,2.0000*%
%ADD24C,3.8100*%
%ADD25C,1.6510*%
%ADD26C,2.5400*%
%ADD27C,1.7000*%
%ADD28C,3.5000*%
%ADD29O,1.0160X1.5240*%
%ADD30C,0.6350*%
G36*
X839984Y101007D02*
X210206D01*
Y830784D01*
X839984D01*
Y101007D01*
D02*
G37*
%LPC*%
G36*
X695957Y437108D02*
X690687D01*
Y433338D01*
X695957D01*
Y437108D01*
D02*
G37*
G36*
X799268Y409729D02*
X795498D01*
Y404459D01*
X799268D01*
Y409729D01*
D02*
G37*
G36*
X792958D02*
X789188D01*
Y404459D01*
X792958D01*
Y409729D01*
D02*
G37*
G36*
X703767Y443418D02*
X698497D01*
Y439647D01*
X703767D01*
Y443418D01*
D02*
G37*
G36*
X695957D02*
X690687D01*
Y439647D01*
X695957D01*
Y443418D01*
D02*
G37*
G36*
X703767Y437108D02*
X698497D01*
Y433338D01*
X703767D01*
Y437108D01*
D02*
G37*
G36*
X623334Y404194D02*
X619564D01*
Y398924D01*
X623334D01*
Y404194D01*
D02*
G37*
G36*
X824955Y477103D02*
X823121Y476738D01*
X821567Y475700D01*
X820528Y474145D01*
X820163Y472312D01*
X820528Y470478D01*
X821567Y468924D01*
X822106Y468564D01*
Y372672D01*
X814931D01*
Y361623D01*
X834979D01*
Y372672D01*
X827803D01*
Y468564D01*
X828342Y468924D01*
X829381Y470478D01*
X829746Y472312D01*
X829381Y474145D01*
X828342Y475700D01*
X826788Y476738D01*
X824955Y477103D01*
D02*
G37*
G36*
X283210Y399980D02*
X279177Y399583D01*
X275299Y398406D01*
X271724Y396496D01*
X268592Y393925D01*
X266021Y390792D01*
X264110Y387218D01*
X262934Y383340D01*
X262537Y379307D01*
X262934Y375273D01*
X264110Y371395D01*
X266021Y367821D01*
X268592Y364688D01*
X271724Y362117D01*
X275299Y360207D01*
X279177Y359030D01*
X283210Y358633D01*
X287243Y359030D01*
X291121Y360207D01*
X294696Y362117D01*
X297828Y364688D01*
X300399Y367821D01*
X302310Y371395D01*
X303486Y375273D01*
X303883Y379307D01*
X303486Y383340D01*
X302310Y387218D01*
X300399Y390792D01*
X297828Y393925D01*
X294696Y396496D01*
X291121Y398406D01*
X287243Y399583D01*
X283210Y399980D01*
D02*
G37*
G36*
X801278Y341966D02*
X796008D01*
Y338196D01*
X801278D01*
Y341966D01*
D02*
G37*
G36*
X799268Y401919D02*
X795498D01*
Y396649D01*
X799268D01*
Y401919D01*
D02*
G37*
G36*
X792958D02*
X789188D01*
Y396649D01*
X792958D01*
Y401919D01*
D02*
G37*
G36*
X356108Y393653D02*
X352395Y393164D01*
X348935Y391731D01*
X345963Y389451D01*
X343683Y386480D01*
X342250Y383020D01*
X341761Y379307D01*
X342250Y375593D01*
X343683Y372133D01*
X345963Y369162D01*
X348935Y366882D01*
X352395Y365449D01*
X356108Y364960D01*
X359821Y365449D01*
X363281Y366882D01*
X366253Y369162D01*
X368533Y372133D01*
X369966Y375593D01*
X370455Y379307D01*
X369966Y383020D01*
X368533Y386480D01*
X366253Y389451D01*
X363281Y391731D01*
X359821Y393164D01*
X356108Y393653D01*
D02*
G37*
G36*
X776833Y517147D02*
Y507696D01*
X786283D01*
X786080Y509244D01*
X784992Y511870D01*
X783262Y514125D01*
X781006Y515856D01*
X778381Y516943D01*
X776833Y517147D01*
D02*
G37*
G36*
X774293Y517147D02*
X772744Y516943D01*
X770118Y515856D01*
X767863Y514125D01*
X766133Y511870D01*
X765045Y509244D01*
X764842Y507696D01*
X774293D01*
Y517147D01*
D02*
G37*
G36*
X800963Y516290D02*
X798410Y515954D01*
X796031Y514968D01*
X793988Y513401D01*
X792421Y511358D01*
X791435Y508979D01*
X791099Y506426D01*
X791435Y503873D01*
X792421Y501495D01*
X793988Y499452D01*
X796031Y497884D01*
X798410Y496899D01*
X800963Y496563D01*
X803515Y496899D01*
X805894Y497884D01*
X807937Y499452D01*
X809504Y501495D01*
X810490Y503873D01*
X810826Y506426D01*
X810490Y508979D01*
X809504Y511358D01*
X807937Y513401D01*
X805894Y514968D01*
X803515Y515954D01*
X800963Y516290D01*
D02*
G37*
G36*
X786283Y530556D02*
X776833D01*
Y521105D01*
X778381Y521309D01*
X781006Y522397D01*
X783262Y524127D01*
X784992Y526382D01*
X786080Y529008D01*
X786283Y530556D01*
D02*
G37*
G36*
X631026Y522561D02*
Y511349D01*
X642237D01*
X641974Y513353D01*
X640710Y516404D01*
X638700Y519023D01*
X636081Y521033D01*
X633030Y522297D01*
X631026Y522561D01*
D02*
G37*
G36*
X628486D02*
X626483Y522297D01*
X623432Y521033D01*
X620813Y519023D01*
X618803Y516404D01*
X617539Y513353D01*
X617276Y511349D01*
X628486D01*
Y522561D01*
D02*
G37*
G36*
X774293Y505156D02*
X764842D01*
X765045Y503608D01*
X766133Y500982D01*
X767863Y498727D01*
X770118Y496997D01*
X772744Y495909D01*
X774293Y495705D01*
Y505156D01*
D02*
G37*
G36*
X356108Y479167D02*
X352395Y478678D01*
X348935Y477245D01*
X345963Y474965D01*
X343683Y471993D01*
X342250Y468533D01*
X341761Y464820D01*
X342250Y461107D01*
X343683Y457647D01*
X345963Y454675D01*
X348935Y452395D01*
X352395Y450962D01*
X356108Y450473D01*
X359821Y450962D01*
X363281Y452395D01*
X366253Y454675D01*
X368533Y457647D01*
X369966Y461107D01*
X370455Y464820D01*
X369966Y468533D01*
X368533Y471993D01*
X366253Y474965D01*
X363281Y477245D01*
X359821Y478678D01*
X356108Y479167D01*
D02*
G37*
G36*
X702751Y473664D02*
X691703D01*
Y465616D01*
X694378D01*
Y457402D01*
X691703D01*
Y449353D01*
X702751D01*
Y457402D01*
X700075D01*
Y465616D01*
X702751D01*
Y473664D01*
D02*
G37*
G36*
X283210Y485494D02*
X279177Y485096D01*
X275299Y483920D01*
X271724Y482009D01*
X268592Y479438D01*
X266021Y476306D01*
X264110Y472731D01*
X262934Y468853D01*
X262537Y464820D01*
X262934Y460787D01*
X264110Y456908D01*
X266021Y453334D01*
X268592Y450201D01*
X271724Y447631D01*
X275299Y445720D01*
X279177Y444544D01*
X283210Y444146D01*
X287243Y444544D01*
X291121Y445720D01*
X294696Y447631D01*
X297828Y450201D01*
X300399Y453334D01*
X302310Y456908D01*
X303486Y460787D01*
X303883Y464820D01*
X303486Y468853D01*
X302310Y472731D01*
X300399Y476306D01*
X297828Y479438D01*
X294696Y482009D01*
X291121Y483920D01*
X287243Y485096D01*
X283210Y485494D01*
D02*
G37*
G36*
X786283Y505156D02*
X776833D01*
Y495705D01*
X778381Y495909D01*
X781006Y496997D01*
X783262Y498727D01*
X784992Y500982D01*
X786080Y503608D01*
X786283Y505156D01*
D02*
G37*
G36*
X598803Y533299D02*
X569085D01*
Y504851D01*
X579153D01*
Y498570D01*
X579518Y496736D01*
X580556Y495182D01*
X594446Y481292D01*
X596001Y480253D01*
X597834Y479888D01*
X619268D01*
X619690Y478868D01*
X621538Y476460D01*
X623945Y474613D01*
X626748Y473452D01*
X629072Y473146D01*
X629177Y473132D01*
Y471852D01*
X629072Y471838D01*
X626483Y471497D01*
X623432Y470233D01*
X620813Y468223D01*
X618803Y465604D01*
X617539Y462553D01*
X617276Y460550D01*
X629756D01*
X642237D01*
X641974Y462553D01*
X640710Y465604D01*
X638700Y468223D01*
X636081Y470233D01*
X633030Y471497D01*
X630441Y471838D01*
X630336Y471852D01*
Y473132D01*
X630441Y473146D01*
X632765Y473452D01*
X635568Y474613D01*
X637976Y476460D01*
X639823Y478868D01*
X640984Y481671D01*
X641005Y481831D01*
X691703D01*
Y480616D01*
X702751D01*
Y488664D01*
X691703D01*
Y487528D01*
X641005D01*
X640984Y487688D01*
X639823Y490491D01*
X637976Y492898D01*
X635568Y494746D01*
X632765Y495907D01*
X630441Y496213D01*
X630336Y496227D01*
Y497508D01*
X630441Y497522D01*
X633030Y497862D01*
X636081Y499126D01*
X638700Y501136D01*
X640710Y503755D01*
X641974Y506806D01*
X642237Y508810D01*
X629756D01*
X617276D01*
X617539Y506806D01*
X618803Y503755D01*
X620813Y501136D01*
X623432Y499126D01*
X626483Y497862D01*
X629072Y497522D01*
X629177Y497508D01*
Y496227D01*
X629072Y496213D01*
X626748Y495907D01*
X623945Y494746D01*
X621538Y492898D01*
X619690Y490491D01*
X619268Y489471D01*
X599819D01*
X588735Y500554D01*
Y504851D01*
X598803D01*
Y533299D01*
D02*
G37*
G36*
X775563Y490890D02*
X773010Y490554D01*
X770631Y489568D01*
X768588Y488001D01*
X767020Y485958D01*
X766035Y483579D01*
X765699Y481026D01*
X766035Y478474D01*
X767020Y476095D01*
X768588Y474052D01*
X770631Y472484D01*
X773010Y471499D01*
X775563Y471163D01*
X778115Y471499D01*
X780494Y472484D01*
X782537Y474052D01*
X784104Y476095D01*
X785090Y478474D01*
X785426Y481026D01*
X785090Y483579D01*
X784104Y485958D01*
X782537Y488001D01*
X780494Y489568D01*
X778115Y490554D01*
X775563Y490890D01*
D02*
G37*
G36*
X793468Y341966D02*
X788198D01*
Y338196D01*
X793468D01*
Y341966D01*
D02*
G37*
G36*
X800343Y205194D02*
X794574D01*
Y197924D01*
X800343D01*
Y205194D01*
D02*
G37*
G36*
X792033D02*
X786264D01*
Y197924D01*
X792033D01*
Y205194D01*
D02*
G37*
G36*
X356108Y222627D02*
X352395Y222138D01*
X348935Y220705D01*
X345963Y218425D01*
X343683Y215453D01*
X342250Y211993D01*
X341761Y208280D01*
X342250Y204567D01*
X343683Y201107D01*
X345963Y198135D01*
X348935Y195855D01*
X352395Y194422D01*
X356108Y193933D01*
X359821Y194422D01*
X363281Y195855D01*
X366253Y198135D01*
X368533Y201107D01*
X369966Y204567D01*
X370455Y208280D01*
X369966Y211993D01*
X368533Y215453D01*
X366253Y218425D01*
X363281Y220705D01*
X359821Y222138D01*
X356108Y222627D01*
D02*
G37*
G36*
X772178Y240608D02*
X759312D01*
X746445D01*
X746506Y240302D01*
X747399Y238966D01*
X747862Y238656D01*
X747463Y238058D01*
X747228Y236878D01*
X747463Y235699D01*
X748131Y234698D01*
X749132Y234030D01*
X750312Y233795D01*
X768312D01*
X769492Y234030D01*
X770492Y234698D01*
X771160Y235699D01*
X771395Y236878D01*
X771160Y238058D01*
X770761Y238656D01*
X771224Y238966D01*
X772117Y240302D01*
X772178Y240608D01*
D02*
G37*
G36*
X800343Y215004D02*
X794574D01*
Y207733D01*
X800343D01*
Y215004D01*
D02*
G37*
G36*
X792033D02*
X786264D01*
Y207733D01*
X792033D01*
Y215004D01*
D02*
G37*
G36*
X283210Y228953D02*
X279177Y228556D01*
X275299Y227380D01*
X271724Y225469D01*
X268592Y222898D01*
X266021Y219766D01*
X264110Y216191D01*
X262934Y212313D01*
X262537Y208280D01*
X262934Y204247D01*
X264110Y200369D01*
X266021Y196794D01*
X268592Y193662D01*
X271724Y191091D01*
X275299Y189180D01*
X279177Y188004D01*
X283210Y187607D01*
X287243Y188004D01*
X291121Y189180D01*
X294696Y191091D01*
X297828Y193662D01*
X300399Y196794D01*
X302310Y200369D01*
X303486Y204247D01*
X303883Y208280D01*
X303486Y212313D01*
X302310Y216191D01*
X300399Y219766D01*
X297828Y222898D01*
X294696Y225469D01*
X291121Y227380D01*
X287243Y228556D01*
X283210Y228953D01*
D02*
G37*
G36*
X759837Y158617D02*
X754567D01*
Y154847D01*
X759837D01*
Y158617D01*
D02*
G37*
G36*
X810043Y163675D02*
X805619Y163327D01*
X801304Y162291D01*
X797204Y160593D01*
X793420Y158274D01*
X790046Y155392D01*
X787163Y152017D01*
X784845Y148234D01*
X783147Y144134D01*
X782111Y139818D01*
X781762Y135394D01*
X782111Y130970D01*
X783147Y126655D01*
X784845Y122555D01*
X787163Y118771D01*
X790046Y115396D01*
X793420Y112514D01*
X797204Y110196D01*
X801304Y108497D01*
X805619Y107461D01*
X810043Y107113D01*
X814468Y107461D01*
X818783Y108497D01*
X822883Y110196D01*
X826667Y112514D01*
X830041Y115396D01*
X832923Y118771D01*
X835242Y122555D01*
X836941Y126655D01*
X837977Y130970D01*
X838325Y135394D01*
X837977Y139818D01*
X836941Y144134D01*
X835242Y148234D01*
X832923Y152017D01*
X830041Y155392D01*
X826667Y158274D01*
X822883Y160593D01*
X818783Y162291D01*
X814468Y163327D01*
X810043Y163675D01*
D02*
G37*
G36*
X241903Y163602D02*
X237479Y163254D01*
X233164Y162218D01*
X229064Y160519D01*
X225280Y158201D01*
X221906Y155318D01*
X219023Y151944D01*
X216705Y148160D01*
X215006Y144060D01*
X213970Y139745D01*
X213622Y135321D01*
X213970Y130897D01*
X215006Y126581D01*
X216705Y122481D01*
X219023Y118697D01*
X221906Y115323D01*
X225280Y112441D01*
X229064Y110122D01*
X233164Y108424D01*
X237479Y107388D01*
X241903Y107039D01*
X246327Y107388D01*
X250643Y108424D01*
X254743Y110122D01*
X258527Y112441D01*
X261901Y115323D01*
X264783Y118697D01*
X267102Y122481D01*
X268800Y126581D01*
X269836Y130897D01*
X270184Y135321D01*
X269836Y139745D01*
X268800Y144060D01*
X267102Y148160D01*
X264783Y151944D01*
X261901Y155318D01*
X258527Y158201D01*
X254743Y160519D01*
X250643Y162218D01*
X246327Y163254D01*
X241903Y163602D01*
D02*
G37*
G36*
X767647Y164927D02*
X762377D01*
Y161157D01*
X767647D01*
Y164927D01*
D02*
G37*
G36*
X759837D02*
X754567D01*
Y161157D01*
X759837D01*
Y164927D01*
D02*
G37*
G36*
X767647Y158617D02*
X762377D01*
Y154847D01*
X767647D01*
Y158617D01*
D02*
G37*
G36*
X793468Y335656D02*
X788198D01*
Y331886D01*
X793468D01*
Y335656D01*
D02*
G37*
G36*
X835995Y331878D02*
X826225D01*
Y326608D01*
X835995D01*
Y331878D01*
D02*
G37*
G36*
X823685D02*
X813915D01*
Y326608D01*
X823685D01*
Y331878D01*
D02*
G37*
G36*
X835995Y339688D02*
X826225D01*
Y334418D01*
X835995D01*
Y339688D01*
D02*
G37*
G36*
X823685D02*
X813915D01*
Y334418D01*
X823685D01*
Y339688D01*
D02*
G37*
G36*
X801278Y335656D02*
X796008D01*
Y331886D01*
X801278D01*
Y335656D01*
D02*
G37*
G36*
X356108Y308140D02*
X352395Y307651D01*
X348935Y306218D01*
X345963Y303938D01*
X343683Y300967D01*
X342250Y297507D01*
X341761Y293793D01*
X342250Y290080D01*
X343683Y286620D01*
X345963Y283649D01*
X348935Y281369D01*
X352395Y279935D01*
X356108Y279447D01*
X359821Y279935D01*
X363281Y281369D01*
X366253Y283649D01*
X368533Y286620D01*
X369966Y290080D01*
X370455Y293793D01*
X369966Y297507D01*
X368533Y300967D01*
X366253Y303938D01*
X363281Y306218D01*
X359821Y307651D01*
X356108Y308140D01*
D02*
G37*
G36*
X568631Y256967D02*
X563361D01*
Y253197D01*
X568631D01*
Y256967D01*
D02*
G37*
G36*
X576441Y250657D02*
X571171D01*
Y246887D01*
X576441D01*
Y250657D01*
D02*
G37*
G36*
X568631D02*
X563361D01*
Y246887D01*
X568631D01*
Y250657D01*
D02*
G37*
G36*
X283210Y314467D02*
X279177Y314070D01*
X275299Y312893D01*
X271724Y310983D01*
X268592Y308412D01*
X266021Y305279D01*
X264110Y301705D01*
X262934Y297826D01*
X262537Y293793D01*
X262934Y289760D01*
X264110Y285882D01*
X266021Y282308D01*
X268592Y279175D01*
X271724Y276604D01*
X275299Y274694D01*
X279177Y273517D01*
X283210Y273120D01*
X287243Y273517D01*
X291121Y274694D01*
X294696Y276604D01*
X297828Y279175D01*
X300399Y282308D01*
X302310Y285882D01*
X303486Y289760D01*
X303883Y293793D01*
X303486Y297826D01*
X302310Y301705D01*
X300399Y305279D01*
X297828Y308412D01*
X294696Y310983D01*
X291121Y312893D01*
X287243Y314070D01*
X283210Y314467D01*
D02*
G37*
G36*
X805590Y291500D02*
X797542D01*
Y280452D01*
X803061D01*
X816313Y267200D01*
Y259726D01*
X815139Y259240D01*
X810592Y263787D01*
X809668Y264405D01*
X808578Y264622D01*
X808578Y264622D01*
X805590D01*
Y267297D01*
X797542D01*
Y256249D01*
X805590D01*
Y258924D01*
X807398D01*
X812249Y254074D01*
Y213988D01*
X810652D01*
Y218030D01*
X810435Y219120D01*
X809818Y220045D01*
X809818Y220045D01*
X804414Y225448D01*
Y232047D01*
X805590D01*
Y243095D01*
X797542D01*
Y232047D01*
X798717D01*
Y224268D01*
X798717Y224268D01*
X798934Y223178D01*
X799551Y222254D01*
X804955Y216850D01*
Y213988D01*
X801779D01*
Y198939D01*
X812249D01*
Y186938D01*
X811299Y185987D01*
X801779D01*
Y173746D01*
X800509Y173220D01*
X799327Y174402D01*
Y185987D01*
X787280D01*
Y170940D01*
X794732D01*
X798234Y167438D01*
X798234Y167438D01*
X799158Y166820D01*
X800248Y166603D01*
X814953D01*
X814953Y166603D01*
X816043Y166820D01*
X816967Y167438D01*
X821176Y171646D01*
X821176Y171646D01*
X821793Y172570D01*
X822010Y173661D01*
X822010Y173661D01*
Y268380D01*
X822010Y268380D01*
X821793Y269470D01*
X821176Y270394D01*
X821176Y270394D01*
X805590Y285981D01*
Y291500D01*
D02*
G37*
G36*
X576441Y256967D02*
X571171D01*
Y253197D01*
X576441D01*
Y256967D01*
D02*
G37*
G36*
X800963Y694090D02*
X798410Y693754D01*
X796031Y692768D01*
X793988Y691201D01*
X792421Y689158D01*
X791435Y686779D01*
X791099Y684226D01*
X791435Y681674D01*
X792421Y679295D01*
X793988Y677252D01*
X796031Y675684D01*
X798410Y674699D01*
X800963Y674363D01*
X803515Y674699D01*
X805894Y675684D01*
X807937Y677252D01*
X809504Y679295D01*
X810490Y681674D01*
X810826Y684226D01*
X810490Y686779D01*
X809504Y689158D01*
X807937Y691201D01*
X805894Y692768D01*
X803515Y693754D01*
X800963Y694090D01*
D02*
G37*
G36*
X775563D02*
X773010Y693754D01*
X770631Y692768D01*
X768588Y691201D01*
X767020Y689158D01*
X766035Y686779D01*
X765699Y684226D01*
X766035Y681674D01*
X767020Y679295D01*
X768588Y677252D01*
X770631Y675684D01*
X773010Y674699D01*
X775563Y674363D01*
X778115Y674699D01*
X780494Y675684D01*
X782537Y677252D01*
X784104Y679295D01*
X785090Y681674D01*
X785426Y684226D01*
X785090Y686779D01*
X784104Y689158D01*
X782537Y691201D01*
X780494Y692768D01*
X778115Y693754D01*
X775563Y694090D01*
D02*
G37*
G36*
X519574Y689273D02*
X491125D01*
Y679161D01*
X450596D01*
X448763Y678796D01*
X447208Y677758D01*
X417920Y648470D01*
X414939Y649705D01*
X411226Y650193D01*
X407513Y649705D01*
X404053Y648271D01*
X401081Y645991D01*
X398801Y643020D01*
X397368Y639560D01*
X396879Y635847D01*
X397368Y632133D01*
X398801Y628673D01*
X401081Y625702D01*
X404053Y623422D01*
X406435Y622435D01*
Y563745D01*
X404053Y562758D01*
X401081Y560478D01*
X398801Y557507D01*
X397368Y554047D01*
X396879Y550333D01*
X397368Y546620D01*
X398801Y543160D01*
X401081Y540189D01*
X404053Y537909D01*
X406435Y536922D01*
Y478231D01*
X404053Y477245D01*
X401081Y474965D01*
X398801Y471993D01*
X397368Y468533D01*
X396879Y464820D01*
X397368Y461107D01*
X398801Y457647D01*
X401081Y454675D01*
X404053Y452395D01*
X406435Y451409D01*
Y392718D01*
X404053Y391731D01*
X401081Y389451D01*
X398801Y386480D01*
X397368Y383020D01*
X396879Y379307D01*
X397368Y375593D01*
X398801Y372133D01*
X401081Y369162D01*
X404053Y366882D01*
X406435Y365895D01*
Y307205D01*
X404053Y306218D01*
X401081Y303938D01*
X398801Y300967D01*
X397368Y297507D01*
X396879Y293793D01*
X397368Y290080D01*
X398801Y286620D01*
X401081Y283649D01*
X404053Y281369D01*
X406435Y280382D01*
Y221691D01*
X404053Y220705D01*
X401081Y218425D01*
X398801Y215453D01*
X397368Y211993D01*
X396879Y208280D01*
X397368Y204567D01*
X398801Y201107D01*
X401081Y198135D01*
X404053Y195855D01*
X407513Y194422D01*
X411226Y193933D01*
X414939Y194422D01*
X418399Y195855D01*
X421371Y198135D01*
X423651Y201107D01*
X425084Y204567D01*
X425573Y208280D01*
X425084Y211993D01*
X423651Y215453D01*
X421371Y218425D01*
X418399Y220705D01*
X416017Y221691D01*
Y280382D01*
X418399Y281369D01*
X421371Y283649D01*
X423651Y286620D01*
X425084Y290080D01*
X425573Y293793D01*
X425084Y297507D01*
X423651Y300967D01*
X421371Y303938D01*
X418399Y306218D01*
X416017Y307205D01*
Y365895D01*
X418399Y366882D01*
X421371Y369162D01*
X423651Y372133D01*
X425084Y375593D01*
X425573Y379307D01*
X425084Y383020D01*
X423651Y386480D01*
X421371Y389451D01*
X418399Y391731D01*
X416017Y392718D01*
Y451409D01*
X418399Y452395D01*
X421371Y454675D01*
X423651Y457647D01*
X425084Y461107D01*
X425573Y464820D01*
X425084Y468533D01*
X423651Y471993D01*
X421371Y474965D01*
X418399Y477245D01*
X416017Y478231D01*
Y536922D01*
X418399Y537909D01*
X421371Y540189D01*
X423651Y543160D01*
X425084Y546620D01*
X425573Y550333D01*
X425084Y554047D01*
X423651Y557507D01*
X421371Y560478D01*
X418399Y562758D01*
X416017Y563745D01*
Y622435D01*
X418399Y623422D01*
X421371Y625702D01*
X423651Y628673D01*
X425084Y632133D01*
X425573Y635847D01*
X425084Y639560D01*
X424345Y641344D01*
X452580Y669579D01*
X491125D01*
Y659555D01*
X519574D01*
Y689273D01*
D02*
G37*
G36*
X691757Y715723D02*
X689140Y715378D01*
X686702Y714368D01*
X684608Y712761D01*
X683001Y710667D01*
X681991Y708229D01*
X681647Y705612D01*
X681991Y702995D01*
X683001Y700557D01*
X684608Y698463D01*
X686702Y696856D01*
X689140Y695846D01*
X691757Y695502D01*
X694374Y695846D01*
X696812Y696856D01*
X698906Y698463D01*
X700513Y700557D01*
X701523Y702995D01*
X701868Y705612D01*
X701523Y708229D01*
X700513Y710667D01*
X698906Y712761D01*
X696812Y714368D01*
X694374Y715378D01*
X691757Y715723D01*
D02*
G37*
G36*
X661757D02*
X659140Y715378D01*
X656702Y714368D01*
X654608Y712761D01*
X653001Y710667D01*
X651991Y708229D01*
X651647Y705612D01*
X651991Y702995D01*
X653001Y700557D01*
X654608Y698463D01*
X656702Y696856D01*
X659140Y695846D01*
X661757Y695502D01*
X664374Y695846D01*
X666812Y696856D01*
X668906Y698463D01*
X670513Y700557D01*
X671523Y702995D01*
X671868Y705612D01*
X671523Y708229D01*
X670513Y710667D01*
X668906Y712761D01*
X666812Y714368D01*
X664374Y715378D01*
X661757Y715723D01*
D02*
G37*
G36*
X631757D02*
X629140Y715378D01*
X626702Y714368D01*
X624608Y712761D01*
X623001Y710667D01*
X621991Y708229D01*
X621647Y705612D01*
X621991Y702995D01*
X623001Y700557D01*
X624608Y698463D01*
X626702Y696856D01*
X629140Y695846D01*
X631757Y695502D01*
X634374Y695846D01*
X636812Y696856D01*
X638906Y698463D01*
X640513Y700557D01*
X641523Y702995D01*
X641868Y705612D01*
X641523Y708229D01*
X640513Y710667D01*
X638906Y712761D01*
X636812Y714368D01*
X634374Y715378D01*
X631757Y715723D01*
D02*
G37*
G36*
X639535Y663189D02*
Y654400D01*
X645951D01*
Y655670D01*
X645689Y657659D01*
X644922Y659513D01*
X643700Y661105D01*
X642108Y662326D01*
X640255Y663094D01*
X639535Y663189D01*
D02*
G37*
G36*
X689065Y662331D02*
X687342Y662104D01*
X685735Y661439D01*
X684355Y660380D01*
X683297Y659000D01*
X682632Y657394D01*
X682404Y655670D01*
Y650590D01*
X682632Y648866D01*
X683297Y647260D01*
X684355Y645880D01*
X685735Y644821D01*
X687342Y644156D01*
X689065Y643929D01*
X690789Y644156D01*
X692396Y644821D01*
X693775Y645880D01*
X694834Y647260D01*
X695499Y648866D01*
X695726Y650590D01*
Y655670D01*
X695499Y657394D01*
X694834Y659000D01*
X693775Y660380D01*
X692396Y661439D01*
X690789Y662104D01*
X689065Y662331D01*
D02*
G37*
G36*
X663665D02*
X661942Y662104D01*
X660335Y661439D01*
X658956Y660380D01*
X657897Y659000D01*
X657232Y657394D01*
X657004Y655670D01*
Y650590D01*
X657232Y648866D01*
X657897Y647260D01*
X658956Y645880D01*
X660335Y644821D01*
X661942Y644156D01*
X663665Y643929D01*
X665389Y644156D01*
X666996Y644821D01*
X668375Y645880D01*
X669434Y647260D01*
X670099Y648866D01*
X670327Y650590D01*
Y655670D01*
X670099Y657394D01*
X669434Y659000D01*
X668375Y660380D01*
X666996Y661439D01*
X665389Y662104D01*
X663665Y662331D01*
D02*
G37*
G36*
X645951Y651860D02*
X639535D01*
Y643071D01*
X640255Y643166D01*
X642108Y643934D01*
X643700Y645155D01*
X644922Y646747D01*
X645689Y648601D01*
X645951Y650590D01*
Y651860D01*
D02*
G37*
G36*
X636996Y663189D02*
X636276Y663094D01*
X634423Y662326D01*
X632831Y661105D01*
X631609Y659513D01*
X630842Y657659D01*
X630580Y655670D01*
Y654400D01*
X636996D01*
Y663189D01*
D02*
G37*
G36*
X800963Y668690D02*
X798410Y668354D01*
X796031Y667368D01*
X793988Y665801D01*
X792421Y663758D01*
X791435Y661379D01*
X791099Y658826D01*
X791435Y656273D01*
X792421Y653895D01*
X793988Y651852D01*
X796031Y650284D01*
X798410Y649299D01*
X800963Y648963D01*
X803515Y649299D01*
X805894Y650284D01*
X807937Y651852D01*
X809504Y653895D01*
X810490Y656273D01*
X810826Y658826D01*
X810490Y661379D01*
X809504Y663758D01*
X807937Y665801D01*
X805894Y667368D01*
X803515Y668354D01*
X800963Y668690D01*
D02*
G37*
G36*
X775563D02*
X773010Y668354D01*
X770631Y667368D01*
X768588Y665801D01*
X767020Y663758D01*
X766035Y661379D01*
X765699Y658826D01*
X766035Y656273D01*
X767020Y653895D01*
X768588Y651852D01*
X770631Y650284D01*
X773010Y649299D01*
X775563Y648963D01*
X778115Y649299D01*
X780494Y650284D01*
X782537Y651852D01*
X784104Y653895D01*
X785090Y656273D01*
X785426Y658826D01*
X785090Y661379D01*
X784104Y663758D01*
X782537Y665801D01*
X780494Y667368D01*
X778115Y668354D01*
X775563Y668690D01*
D02*
G37*
G36*
Y719490D02*
X773010Y719154D01*
X770631Y718168D01*
X768588Y716601D01*
X767020Y714558D01*
X766035Y712179D01*
X765699Y709626D01*
X766035Y707074D01*
X767020Y704695D01*
X768588Y702652D01*
X770631Y701084D01*
X773010Y700099D01*
X775563Y699763D01*
X778115Y700099D01*
X780494Y701084D01*
X782537Y702652D01*
X784104Y704695D01*
X785090Y707074D01*
X785426Y709626D01*
X785090Y712179D01*
X784104Y714558D01*
X782537Y716601D01*
X780494Y718168D01*
X778115Y719154D01*
X775563Y719490D01*
D02*
G37*
G36*
X696898Y752115D02*
X696898Y752115D01*
X626745D01*
X626745Y752115D01*
X625655Y751898D01*
X624731Y751281D01*
X624731Y751281D01*
X527218Y653768D01*
X513223D01*
Y656253D01*
X497476D01*
Y645585D01*
X500558D01*
Y557369D01*
X500923Y555536D01*
X501962Y553981D01*
X618683Y437260D01*
X618529Y436888D01*
X618133Y433880D01*
X618529Y430871D01*
X619690Y428068D01*
X619788Y427940D01*
X609938Y418090D01*
X609321Y417166D01*
X609104Y416076D01*
X609104Y416076D01*
Y393052D01*
X609104Y393052D01*
X609321Y391962D01*
X609938Y391038D01*
X612130Y388846D01*
X612130Y388846D01*
X613054Y388228D01*
X614144Y388012D01*
X614144Y388012D01*
X619775D01*
X620463Y387323D01*
Y383057D01*
X620228Y381878D01*
Y363878D01*
X620463Y362700D01*
Y362569D01*
X620463Y362569D01*
X620680Y361479D01*
X621124Y360813D01*
X620752Y360015D01*
X620396Y359663D01*
X620075Y359727D01*
X620075Y359727D01*
X617491D01*
X616312Y359962D01*
X598312D01*
X597132Y359727D01*
X596132Y359059D01*
X595463Y358058D01*
X595228Y356878D01*
X595463Y355699D01*
X596132Y354698D01*
Y354059D01*
X595463Y353058D01*
X595228Y351878D01*
X595463Y350699D01*
X596132Y349698D01*
Y349059D01*
X595463Y348058D01*
X595228Y346878D01*
X595463Y345699D01*
X596132Y344698D01*
Y344059D01*
X595463Y343058D01*
X595228Y341878D01*
X595463Y340699D01*
X596132Y339698D01*
Y339059D01*
X595463Y338058D01*
X595228Y336878D01*
X595404Y335997D01*
X594701Y334727D01*
X555090D01*
X546095Y343722D01*
Y499927D01*
X546634Y500287D01*
X547673Y501841D01*
X548037Y503675D01*
X547673Y505508D01*
X546634Y507063D01*
X545080Y508101D01*
X543246Y508466D01*
X541413Y508101D01*
X539859Y507063D01*
X538820Y505508D01*
X538455Y503675D01*
X538820Y501841D01*
X539859Y500287D01*
X540398Y499927D01*
Y493202D01*
X539224Y492716D01*
X526867Y505073D01*
X526994Y505709D01*
X526629Y507542D01*
X525590Y509097D01*
X524036Y510135D01*
X522203Y510500D01*
X520369Y510135D01*
X518815Y509097D01*
X517776Y507542D01*
X517412Y505709D01*
X517776Y503876D01*
X518815Y502321D01*
X520369Y501283D01*
X522203Y500918D01*
X522839Y501045D01*
X536334Y487549D01*
Y415358D01*
X535160Y414871D01*
X526029Y424003D01*
X526155Y424639D01*
X525790Y426473D01*
X524752Y428027D01*
X523197Y429065D01*
X521364Y429430D01*
X519530Y429065D01*
X517976Y428027D01*
X516938Y426473D01*
X516573Y424639D01*
X516938Y422806D01*
X517976Y421251D01*
X519530Y420213D01*
X521364Y419848D01*
X522000Y419974D01*
X531934Y410041D01*
Y342301D01*
X530760Y341815D01*
X528739Y343836D01*
X528865Y344472D01*
X528500Y346306D01*
X527462Y347860D01*
X525908Y348899D01*
X524074Y349263D01*
X522241Y348899D01*
X520686Y347860D01*
X519648Y346306D01*
X519283Y344472D01*
X519648Y342639D01*
X520686Y341085D01*
X522241Y340046D01*
X524074Y339681D01*
X524710Y339808D01*
X548520Y315997D01*
X547994Y314727D01*
X544849D01*
X544208Y315686D01*
X542654Y316725D01*
X540820Y317090D01*
X538987Y316725D01*
X537433Y315686D01*
X536394Y314132D01*
X536029Y312299D01*
X536394Y310465D01*
X537433Y308911D01*
X538987Y307872D01*
X540820Y307508D01*
X542654Y307872D01*
X544208Y308911D01*
X544287Y309030D01*
X550237D01*
X550762Y307760D01*
X532768Y289765D01*
X532150Y288841D01*
X531934Y287751D01*
X531934Y287751D01*
Y246703D01*
X531395Y246342D01*
X530356Y244788D01*
X529991Y242955D01*
X530356Y241121D01*
X531395Y239567D01*
X532949Y238528D01*
X534782Y238164D01*
X536616Y238528D01*
X538170Y239567D01*
X539209Y241121D01*
X539574Y242955D01*
X539209Y244788D01*
X538170Y246342D01*
X537631Y246703D01*
Y286571D01*
X555090Y304030D01*
X594701D01*
X595404Y302760D01*
X595228Y301878D01*
X595463Y300699D01*
X596132Y299698D01*
Y299059D01*
X595463Y298058D01*
X595228Y296878D01*
X595463Y295699D01*
X596132Y294698D01*
Y294059D01*
X595463Y293058D01*
X595228Y291878D01*
X595463Y290699D01*
X596132Y289698D01*
Y289059D01*
X595463Y288058D01*
X595228Y286878D01*
X595463Y285699D01*
X596132Y284698D01*
Y284059D01*
X595463Y283058D01*
X595228Y281878D01*
X595463Y280699D01*
X596132Y279698D01*
Y279058D01*
X595463Y278058D01*
X595228Y276878D01*
X595463Y275699D01*
X596132Y274698D01*
Y274059D01*
X595463Y273058D01*
X595228Y271878D01*
X595463Y270699D01*
X595863Y270101D01*
X595399Y269791D01*
X594506Y268455D01*
X594445Y268148D01*
X607312D01*
X620178D01*
X620117Y268455D01*
X619224Y269791D01*
X618761Y270101D01*
X619160Y270699D01*
X619395Y271878D01*
X619160Y273058D01*
X618492Y274059D01*
Y274698D01*
X619160Y275699D01*
X619395Y276878D01*
X619160Y278058D01*
X618492Y279058D01*
Y279698D01*
X619160Y280699D01*
X619395Y281878D01*
X619160Y283058D01*
X618492Y284059D01*
Y284698D01*
X619160Y285699D01*
X619395Y286878D01*
X619220Y287760D01*
X619922Y289030D01*
X621159D01*
X621519Y288491D01*
X623073Y287452D01*
X624907Y287087D01*
X626740Y287452D01*
X628295Y288491D01*
X629333Y290045D01*
X629698Y291878D01*
X629333Y293712D01*
X628295Y295266D01*
X626740Y296305D01*
X624907Y296670D01*
X623073Y296305D01*
X621519Y295266D01*
X621159Y294727D01*
X619922D01*
X619220Y295997D01*
X619395Y296878D01*
X619160Y298058D01*
X618492Y299059D01*
Y299698D01*
X619160Y300699D01*
X619395Y301878D01*
X619160Y303058D01*
X618492Y304058D01*
Y304698D01*
X619160Y305699D01*
X619395Y306878D01*
X619160Y308058D01*
X618492Y309059D01*
Y309698D01*
X619160Y310699D01*
X619395Y311878D01*
X619160Y313058D01*
X618492Y314059D01*
Y314698D01*
X619160Y315699D01*
X619395Y316878D01*
X619160Y318058D01*
X618492Y319059D01*
Y319698D01*
X619160Y320699D01*
X619395Y321878D01*
X619160Y323058D01*
X618492Y324059D01*
Y324698D01*
X619160Y325699D01*
X619395Y326878D01*
X619160Y328058D01*
X618492Y329058D01*
Y329698D01*
X619160Y330699D01*
X619395Y331878D01*
X619160Y333058D01*
X618492Y334059D01*
Y334698D01*
X619160Y335699D01*
X619395Y336878D01*
X619160Y338058D01*
X618492Y339059D01*
Y339698D01*
X619160Y340699D01*
X619395Y341878D01*
X619160Y343058D01*
X618492Y344059D01*
Y344698D01*
X619160Y345699D01*
X619395Y346878D01*
X619160Y348058D01*
X618492Y349059D01*
Y349698D01*
X619160Y350699D01*
X619371Y351758D01*
X619813Y352033D01*
X620601Y352323D01*
X623513Y349412D01*
X623387Y348776D01*
X623751Y346942D01*
X624790Y345388D01*
X626344Y344350D01*
X628178Y343985D01*
X630011Y344350D01*
X631565Y345388D01*
X632604Y346942D01*
X632969Y348776D01*
X632604Y350609D01*
X631565Y352164D01*
X630673Y352760D01*
X631059Y354030D01*
X725463D01*
Y249727D01*
X630951D01*
X629861Y249510D01*
X628937Y248893D01*
X628937Y248893D01*
X621676Y241632D01*
X621113Y241743D01*
X620380Y242132D01*
X620117Y243455D01*
X619224Y244791D01*
X618761Y245101D01*
X619160Y245699D01*
X619395Y246878D01*
X619160Y248058D01*
X618492Y249059D01*
Y249698D01*
X619160Y250699D01*
X619395Y251878D01*
X619160Y253058D01*
X618492Y254058D01*
Y254698D01*
X619160Y255699D01*
X619395Y256878D01*
X619160Y258058D01*
X618492Y259059D01*
Y259698D01*
X619160Y260699D01*
X619395Y261878D01*
X619160Y263058D01*
X618761Y263656D01*
X619224Y263966D01*
X620117Y265302D01*
X620178Y265608D01*
X607312D01*
X594445D01*
X594506Y265302D01*
X595399Y263966D01*
X595863Y263656D01*
X595463Y263058D01*
X595228Y261878D01*
X595463Y260699D01*
X596132Y259698D01*
Y259059D01*
X595463Y258058D01*
X595228Y256878D01*
X595463Y255699D01*
X596132Y254698D01*
Y254058D01*
X595463Y253058D01*
X595228Y251878D01*
X595463Y250699D01*
X596132Y249698D01*
Y249059D01*
X595463Y248058D01*
X595228Y246878D01*
X595463Y245699D01*
X595863Y245101D01*
X595399Y244791D01*
X594506Y243455D01*
X594445Y243148D01*
X607312D01*
Y240608D01*
X594044D01*
X593447Y239776D01*
X575425D01*
Y240951D01*
X564377D01*
Y232903D01*
X567052D01*
Y229692D01*
X566513Y229332D01*
X565474Y227778D01*
X565110Y225944D01*
X565474Y224111D01*
X566513Y222557D01*
X568067Y221518D01*
X569901Y221153D01*
X571734Y221518D01*
X573288Y222557D01*
X574327Y224111D01*
X574692Y225944D01*
X574327Y227778D01*
X573288Y229332D01*
X572749Y229692D01*
Y232903D01*
X575425D01*
Y234078D01*
X597059D01*
X597132Y234030D01*
X598312Y233795D01*
X616312D01*
X617491Y234030D01*
X620951D01*
X620951Y234030D01*
X622042Y234247D01*
X622966Y234864D01*
X632131Y244030D01*
X645463D01*
Y233489D01*
X644193Y232786D01*
X643312Y232962D01*
X642132Y232727D01*
X641132Y232059D01*
X640492D01*
X639492Y232727D01*
X638312Y232962D01*
X637132Y232727D01*
X636132Y232059D01*
X635492D01*
X634492Y232727D01*
X633312Y232962D01*
X632132Y232727D01*
X631132Y232059D01*
X630492D01*
X629492Y232727D01*
X628312Y232962D01*
X627132Y232727D01*
X626132Y232059D01*
X625492D01*
X624492Y232727D01*
X623312Y232962D01*
X622132Y232727D01*
X621132Y232059D01*
X620463Y231058D01*
X620228Y229878D01*
Y211878D01*
X620463Y210699D01*
X621132Y209698D01*
X622132Y209030D01*
X623312Y208795D01*
X624492Y209030D01*
X625492Y209698D01*
X626132D01*
X627132Y209030D01*
X628312Y208795D01*
X629492Y209030D01*
X629878Y209288D01*
X630812Y209594D01*
X631745Y209288D01*
X632132Y209030D01*
X633312Y208795D01*
X634492Y209030D01*
X634878Y209288D01*
X635812Y209594D01*
X636745Y209288D01*
X637132Y209030D01*
X638312Y208795D01*
X639492Y209030D01*
X640492Y209698D01*
X641132D01*
X642132Y209030D01*
X643312Y208795D01*
X644492Y209030D01*
X644878Y209288D01*
X645812Y209594D01*
X646745Y209288D01*
X647132Y209030D01*
X648312Y208795D01*
X649492Y209030D01*
X650492Y209698D01*
X651132D01*
X652132Y209030D01*
X653312Y208795D01*
X654492Y209030D01*
X654878Y209288D01*
X655812Y209594D01*
X656745Y209288D01*
X657132Y209030D01*
X658312Y208795D01*
X659492Y209030D01*
X659878Y209288D01*
X660812Y209594D01*
X661745Y209288D01*
X662132Y209030D01*
X663312Y208795D01*
X664492Y209030D01*
X665089Y209429D01*
X665399Y208966D01*
X666735Y208073D01*
X667042Y208012D01*
Y220878D01*
Y233745D01*
X666735Y233684D01*
X665399Y232791D01*
X665089Y232328D01*
X664492Y232727D01*
X663312Y232962D01*
X662132Y232727D01*
X661132Y232059D01*
X660492D01*
X659492Y232727D01*
X658312Y232962D01*
X657132Y232727D01*
X656132Y232059D01*
X655492D01*
X654492Y232727D01*
X653312Y232962D01*
X652430Y232786D01*
X651160Y233489D01*
Y244030D01*
X670463D01*
Y234711D01*
X669582Y234094D01*
Y220878D01*
Y208012D01*
X669888Y208073D01*
X671224Y208966D01*
X671534Y209429D01*
X672132Y209030D01*
X673312Y208795D01*
X674193Y208970D01*
X675463Y208268D01*
Y196820D01*
X662364Y183721D01*
X662236Y183819D01*
X659433Y184980D01*
X656424Y185376D01*
X653416Y184980D01*
X650613Y183819D01*
X648205Y181972D01*
X646358Y179564D01*
X645197Y176761D01*
X644801Y173753D01*
X645197Y170744D01*
X646358Y167941D01*
X648205Y165534D01*
X650613Y163687D01*
X653416Y162525D01*
X656424Y162129D01*
X659433Y162525D01*
X662236Y163687D01*
X664643Y165534D01*
X666491Y167941D01*
X667652Y170744D01*
X668048Y173753D01*
X667652Y176761D01*
X666491Y179564D01*
X666393Y179692D01*
X680003Y193302D01*
X680455Y193424D01*
X681136Y193430D01*
X681641Y193307D01*
X695256Y179692D01*
X695158Y179564D01*
X693997Y176761D01*
X693601Y173753D01*
X693997Y170744D01*
X695158Y167941D01*
X697005Y165534D01*
X699413Y163687D01*
X702216Y162525D01*
X705225Y162129D01*
X708233Y162525D01*
X711036Y163687D01*
X713444Y165534D01*
X715291Y167941D01*
X716452Y170744D01*
X716848Y173753D01*
X716452Y176761D01*
X715291Y179564D01*
X713444Y181972D01*
X711036Y183819D01*
X708233Y184980D01*
X705225Y185376D01*
X702216Y184980D01*
X699413Y183819D01*
X699285Y183721D01*
X686160Y196846D01*
Y208268D01*
X687430Y208970D01*
X688312Y208795D01*
X689492Y209030D01*
X689878Y209288D01*
X690812Y209594D01*
X691745Y209288D01*
X692132Y209030D01*
X693312Y208795D01*
X694492Y209030D01*
X694878Y209288D01*
X695812Y209594D01*
X696745Y209288D01*
X697132Y209030D01*
X698312Y208795D01*
X699492Y209030D01*
X699878Y209288D01*
X700812Y209594D01*
X701745Y209288D01*
X702132Y209030D01*
X703312Y208795D01*
X704492Y209030D01*
X704878Y209288D01*
X705812Y209594D01*
X706745Y209288D01*
X707132Y209030D01*
X708312Y208795D01*
X709193Y208970D01*
X710463Y208268D01*
Y205676D01*
X710463Y205676D01*
X710680Y204585D01*
X711297Y203661D01*
X742086Y172873D01*
X742086Y172873D01*
X743010Y172255D01*
X744100Y172038D01*
X755583D01*
Y170863D01*
X766631D01*
Y178911D01*
X755583D01*
Y177736D01*
X745280D01*
X716960Y206056D01*
X717025Y206794D01*
X717042Y206807D01*
Y220878D01*
X719582D01*
Y208012D01*
X719888Y208073D01*
X721224Y208966D01*
X721534Y209429D01*
X722132Y209030D01*
X723312Y208795D01*
X724492Y209030D01*
X724878Y209288D01*
X725812Y209594D01*
X726745Y209288D01*
X727132Y209030D01*
X728312Y208795D01*
X729492Y209030D01*
X729878Y209288D01*
X730812Y209594D01*
X731745Y209288D01*
X732132Y209030D01*
X733312Y208795D01*
X734492Y209030D01*
X734878Y209288D01*
X735812Y209594D01*
X736745Y209288D01*
X737132Y209030D01*
X738312Y208795D01*
X739492Y209030D01*
X739878Y209288D01*
X740812Y209594D01*
X741745Y209288D01*
X742132Y209030D01*
X743312Y208795D01*
X744492Y209030D01*
X745492Y209698D01*
X746160Y210699D01*
X746395Y211878D01*
Y229878D01*
X746160Y231058D01*
X745492Y232059D01*
X744492Y232727D01*
X743312Y232962D01*
X742132Y232727D01*
X741132Y232059D01*
X740492D01*
X739492Y232727D01*
X738312Y232962D01*
X737132Y232727D01*
X736132Y232059D01*
X735492D01*
X734492Y232727D01*
X733312Y232962D01*
X732430Y232786D01*
X731160Y233489D01*
Y244030D01*
X745479D01*
X746096Y243148D01*
X759312D01*
X772178D01*
X772117Y243455D01*
X771224Y244791D01*
X770761Y245101D01*
X771160Y245699D01*
X771395Y246878D01*
X771160Y248058D01*
X770804Y248592D01*
X771157Y249514D01*
X772492Y249742D01*
X782542Y239692D01*
Y232047D01*
X790590D01*
Y243095D01*
X787197D01*
X772532Y257760D01*
X773058Y259030D01*
X782542D01*
Y256249D01*
X790590D01*
Y267297D01*
X782542D01*
Y264727D01*
X773058D01*
X772532Y265997D01*
X786986Y280452D01*
X790590D01*
Y291500D01*
X782542D01*
Y284065D01*
X772492Y274015D01*
X771157Y274243D01*
X770804Y275165D01*
X771160Y275699D01*
X771395Y276878D01*
X771160Y278058D01*
X770492Y279058D01*
Y279698D01*
X771160Y280699D01*
X771395Y281878D01*
X771160Y283058D01*
X770492Y284059D01*
Y284698D01*
X771160Y285699D01*
X771395Y286878D01*
X771160Y288058D01*
X770492Y289059D01*
Y289698D01*
X771160Y290699D01*
X771395Y291878D01*
X771160Y293058D01*
X770492Y294059D01*
Y294698D01*
X771160Y295699D01*
X771395Y296878D01*
X771160Y298058D01*
X770492Y299059D01*
Y299698D01*
X771160Y300699D01*
X771395Y301878D01*
X771160Y303058D01*
X770492Y304058D01*
Y304698D01*
X771160Y305699D01*
X771395Y306878D01*
X771160Y308058D01*
X770492Y309059D01*
Y309698D01*
X771160Y310699D01*
X771395Y311878D01*
X771160Y313058D01*
X770492Y314059D01*
Y314698D01*
X771160Y315699D01*
X771395Y316878D01*
X771160Y318058D01*
X770492Y319059D01*
Y319698D01*
X771160Y320699D01*
X771395Y321878D01*
X771160Y323058D01*
X770492Y324059D01*
Y324698D01*
X771160Y325699D01*
X771395Y326878D01*
X771160Y328058D01*
X770492Y329058D01*
Y329698D01*
X771160Y330699D01*
X771395Y331878D01*
X771160Y333058D01*
X770492Y334059D01*
Y334698D01*
X771160Y335699D01*
X771395Y336878D01*
X771160Y338058D01*
X770492Y339059D01*
Y339698D01*
X771160Y340699D01*
X771395Y341878D01*
X771160Y343058D01*
X770492Y344059D01*
Y344698D01*
X771160Y345699D01*
X771395Y346878D01*
X771220Y347760D01*
X771922Y349030D01*
X789214D01*
Y347902D01*
X800262D01*
Y355950D01*
X789214D01*
Y354727D01*
X772420D01*
X771894Y355997D01*
X781243Y365346D01*
X781860Y366270D01*
X782077Y367360D01*
X782077Y367361D01*
Y397665D01*
X783252D01*
Y408713D01*
X782077D01*
Y458112D01*
X796327Y472362D01*
X798410Y471499D01*
X800963Y471163D01*
X803515Y471499D01*
X805894Y472484D01*
X807937Y474052D01*
X809504Y476095D01*
X810490Y478474D01*
X810826Y481026D01*
X810490Y483579D01*
X809504Y485958D01*
X807937Y488001D01*
X805894Y489568D01*
X803515Y490554D01*
X800963Y490890D01*
X798410Y490554D01*
X796031Y489568D01*
X793988Y488001D01*
X792421Y485958D01*
X791435Y483579D01*
X791099Y481026D01*
X791435Y478474D01*
X792298Y476390D01*
X777214Y461306D01*
X776596Y460382D01*
X776379Y459292D01*
X776379Y459292D01*
Y408713D01*
X775204D01*
Y397665D01*
X776379D01*
Y368540D01*
X767801Y359962D01*
X750312D01*
X749133Y359727D01*
X744452D01*
X744327Y360997D01*
X744492Y361030D01*
X745492Y361698D01*
X746160Y362699D01*
X746395Y363878D01*
Y381878D01*
X746160Y383057D01*
Y383698D01*
X745944Y384789D01*
X745326Y385713D01*
X745326Y385713D01*
X717314Y413725D01*
Y565882D01*
X717796Y566081D01*
X719175Y567140D01*
X720234Y568520D01*
X720900Y570126D01*
X721126Y571850D01*
Y576930D01*
X720900Y578654D01*
X720234Y580261D01*
X719175Y581640D01*
X717796Y582699D01*
X716189Y583364D01*
X714465Y583591D01*
X712741Y583364D01*
X711135Y582699D01*
X709755Y581640D01*
X708697Y580261D01*
X708031Y578654D01*
X707804Y576930D01*
Y571850D01*
X708031Y570126D01*
X708697Y568520D01*
X709755Y567140D01*
X711135Y566081D01*
X711617Y565882D01*
Y506727D01*
X710443Y506241D01*
X644916Y571768D01*
X644927Y571850D01*
Y576930D01*
X644699Y578654D01*
X644034Y580261D01*
X642975Y581640D01*
X641596Y582699D01*
X639990Y583364D01*
X638265Y583591D01*
X636541Y583364D01*
X634935Y582699D01*
X633555Y581640D01*
X632497Y580261D01*
X631832Y578654D01*
X631604Y576930D01*
Y571850D01*
X631832Y570126D01*
X632497Y568520D01*
X633555Y567140D01*
X634935Y566081D01*
X636541Y565416D01*
X638265Y565189D01*
X639990Y565416D01*
X641596Y566081D01*
X642133Y566494D01*
X707553Y501074D01*
Y410861D01*
X707553Y410861D01*
X707770Y409771D01*
X708387Y408847D01*
X731175Y386059D01*
X730947Y384724D01*
X730025Y384370D01*
X729492Y384727D01*
X728312Y384962D01*
X727132Y384727D01*
X726132Y384059D01*
X725492D01*
X724492Y384727D01*
X723312Y384962D01*
X722132Y384727D01*
X721132Y384059D01*
X720492D01*
X719492Y384727D01*
X718312Y384962D01*
X717132Y384727D01*
X716132Y384059D01*
X715492D01*
X714492Y384727D01*
X713312Y384962D01*
X712132Y384727D01*
X711132Y384059D01*
X710492D01*
X709492Y384727D01*
X708312Y384962D01*
X707132Y384727D01*
X706132Y384059D01*
X705492D01*
X704492Y384727D01*
X703312Y384962D01*
X702132Y384727D01*
X701132Y384059D01*
X700492D01*
X699492Y384727D01*
X698312Y384962D01*
X697132Y384727D01*
X696132Y384059D01*
X695492D01*
X694492Y384727D01*
X693312Y384962D01*
X692132Y384727D01*
X691132Y384059D01*
X690492D01*
X689492Y384727D01*
X688312Y384962D01*
X687132Y384727D01*
X686132Y384059D01*
X685492D01*
X684492Y384727D01*
X683312Y384962D01*
X682132Y384727D01*
X681132Y384059D01*
X680492D01*
X679492Y384727D01*
X678312Y384962D01*
X677132Y384727D01*
X676132Y384059D01*
X675492D01*
X674492Y384727D01*
X673312Y384962D01*
X672132Y384727D01*
X671132Y384059D01*
X670492D01*
X669492Y384727D01*
X668312Y384962D01*
X667132Y384727D01*
X666132Y384059D01*
X665492D01*
X664492Y384727D01*
X663460Y384932D01*
X663151Y385446D01*
X662908Y386176D01*
X668901Y392169D01*
X691093D01*
X691453Y391630D01*
X693007Y390591D01*
X694841Y390227D01*
X696674Y390591D01*
X698229Y391630D01*
X699267Y393184D01*
X699632Y395018D01*
X699267Y396851D01*
X698229Y398405D01*
X696674Y399444D01*
X694841Y399809D01*
X693007Y399444D01*
X691453Y398405D01*
X691093Y397866D01*
X670510D01*
X670024Y399040D01*
X673060Y402075D01*
X685949D01*
X686510Y401235D01*
X688064Y400196D01*
X689898Y399832D01*
X691731Y400196D01*
X693286Y401235D01*
X694324Y402789D01*
X694689Y404623D01*
X694324Y406456D01*
X693286Y408011D01*
X691731Y409049D01*
X689898Y409414D01*
X688064Y409049D01*
X686510Y408011D01*
X686351Y407772D01*
X685044D01*
X684476Y409042D01*
X684848Y409458D01*
X684955Y409437D01*
X686789Y409802D01*
X688343Y410840D01*
X689382Y412395D01*
X689746Y414228D01*
X689382Y416062D01*
X688343Y417616D01*
X686789Y418655D01*
X684955Y419019D01*
X683122Y418655D01*
X681567Y417616D01*
X680529Y416062D01*
X680164Y414228D01*
X680291Y413592D01*
X678535Y411836D01*
X670196D01*
X670196Y411837D01*
X669106Y411620D01*
X668182Y411002D01*
X647233Y390053D01*
X647064Y389801D01*
X646285Y389021D01*
X641533D01*
X640443Y388804D01*
X639519Y388187D01*
X639519Y388187D01*
X637430Y386099D01*
X636160Y386625D01*
Y392130D01*
X637318D01*
Y403178D01*
X629270D01*
Y392130D01*
X630463D01*
Y386711D01*
X629582Y386094D01*
Y372878D01*
X627042D01*
Y386094D01*
X626160Y386711D01*
Y388503D01*
X625944Y389594D01*
X625326Y390518D01*
X625326Y390518D01*
X623334Y392510D01*
Y396384D01*
X618294D01*
Y397654D01*
X617024D01*
Y404194D01*
X614801D01*
Y414896D01*
X623817Y423911D01*
X623945Y423813D01*
X626748Y422652D01*
X629757Y422256D01*
X632765Y422652D01*
X635568Y423813D01*
X637976Y425661D01*
X639823Y428068D01*
X640984Y430871D01*
X641380Y433880D01*
X640984Y436888D01*
X639823Y439691D01*
X637976Y442099D01*
X635568Y443946D01*
X632765Y445107D01*
X630441Y445413D01*
X630336Y445427D01*
Y446708D01*
X630441Y446721D01*
X633030Y447062D01*
X636081Y448326D01*
X638700Y450336D01*
X640710Y452955D01*
X641974Y456006D01*
X642237Y458009D01*
X629756D01*
X617276D01*
X617539Y456006D01*
X618803Y452955D01*
X620346Y450944D01*
X619389Y450105D01*
X559467Y510028D01*
X559953Y511201D01*
X565783D01*
Y526949D01*
X565265D01*
Y592882D01*
X566286Y593305D01*
X568693Y595152D01*
X570540Y597560D01*
X571701Y600363D01*
X572097Y603371D01*
X571701Y606380D01*
X570540Y609183D01*
X568693Y611590D01*
X566286Y613438D01*
X563482Y614599D01*
X561158Y614905D01*
X561053Y614919D01*
Y616199D01*
X561158Y616213D01*
X563747Y616554D01*
X566798Y617818D01*
X569417Y619828D01*
X571427Y622447D01*
X572691Y625498D01*
X572955Y627501D01*
X560474D01*
X547993D01*
X548256Y625498D01*
X549520Y622447D01*
X551530Y619828D01*
X554150Y617818D01*
X557200Y616554D01*
X559789Y616213D01*
X559894Y616199D01*
Y614919D01*
X559789Y614905D01*
X557465Y614599D01*
X554662Y613438D01*
X552255Y611590D01*
X550408Y609183D01*
X549246Y606380D01*
X548850Y603371D01*
X549246Y600363D01*
X550408Y597560D01*
X552255Y595152D01*
X554662Y593305D01*
X555683Y592882D01*
Y526949D01*
X555115D01*
Y516039D01*
X553942Y515552D01*
X510140Y559354D01*
Y645585D01*
X513223D01*
Y648071D01*
X528398D01*
X528398Y648071D01*
X529488Y648287D01*
X530412Y648905D01*
X621239Y739731D01*
X622315Y739012D01*
X621991Y738229D01*
X621647Y735612D01*
X621991Y732995D01*
X622100Y732731D01*
X557086Y667717D01*
X556047Y666162D01*
X555755Y664690D01*
X554662Y664238D01*
X552255Y662390D01*
X550408Y659983D01*
X549246Y657180D01*
X548850Y654171D01*
X549246Y651163D01*
X550408Y648360D01*
X552255Y645952D01*
X554662Y644105D01*
X557465Y642944D01*
X559789Y642638D01*
X559894Y642624D01*
Y641343D01*
X559789Y641329D01*
X557200Y640989D01*
X554150Y639725D01*
X551530Y637715D01*
X549520Y635095D01*
X548256Y632045D01*
X547993Y630041D01*
X560474D01*
X572955D01*
X572691Y632045D01*
X571427Y635095D01*
X569417Y637715D01*
X566798Y639725D01*
X563747Y640989D01*
X561158Y641329D01*
X561053Y641343D01*
Y642624D01*
X561158Y642638D01*
X563482Y642944D01*
X566286Y644105D01*
X568693Y645952D01*
X570540Y648360D01*
X571701Y651163D01*
X572097Y654171D01*
X571701Y657180D01*
X570540Y659983D01*
X568693Y662390D01*
X567543Y663272D01*
X567460Y664540D01*
X628876Y725956D01*
X629140Y725846D01*
X631757Y725502D01*
X634374Y725846D01*
X636812Y726856D01*
X638906Y728463D01*
X640513Y730557D01*
X641523Y732995D01*
X641868Y735612D01*
X641523Y738229D01*
X640513Y740667D01*
X638906Y742761D01*
X636812Y744368D01*
X634930Y745148D01*
X635183Y746418D01*
X655692D01*
X656027Y745635D01*
X656049Y745148D01*
X653883Y743486D01*
X652114Y741180D01*
X651001Y738494D01*
X650789Y736882D01*
X661757D01*
X672725D01*
X672513Y738494D01*
X671401Y741180D01*
X669631Y743486D01*
X667465Y745148D01*
X667487Y745635D01*
X667822Y746418D01*
X688331D01*
X688584Y745148D01*
X686702Y744368D01*
X684608Y742761D01*
X683001Y740667D01*
X681991Y738229D01*
X681647Y735612D01*
X681991Y732995D01*
X683001Y730557D01*
X684608Y728463D01*
X686702Y726856D01*
X689140Y725846D01*
X691757Y725502D01*
X694374Y725846D01*
X696812Y726856D01*
X698906Y728463D01*
X700513Y730557D01*
X701523Y732995D01*
X701868Y735612D01*
X701523Y738229D01*
X701107Y739232D01*
X702184Y739952D01*
X711617Y730519D01*
Y661638D01*
X711135Y661439D01*
X709755Y660380D01*
X708697Y659000D01*
X708031Y657394D01*
X707804Y655670D01*
Y650590D01*
X708031Y648866D01*
X708697Y647260D01*
X709755Y645880D01*
X711135Y644821D01*
X712741Y644156D01*
X714465Y643929D01*
X716189Y644156D01*
X717796Y644821D01*
X719175Y645880D01*
X720234Y647260D01*
X720900Y648866D01*
X721126Y650590D01*
Y655670D01*
X720900Y657394D01*
X720234Y659000D01*
X719175Y660380D01*
X717796Y661439D01*
X717314Y661638D01*
Y731699D01*
X717097Y732789D01*
X716480Y733714D01*
X716480Y733714D01*
X698913Y751281D01*
X697989Y751898D01*
X696898Y752115D01*
D02*
G37*
G36*
X672725Y734342D02*
X663027D01*
Y724644D01*
X664639Y724856D01*
X667325Y725969D01*
X669631Y727738D01*
X671401Y730045D01*
X672513Y732730D01*
X672725Y734342D01*
D02*
G37*
G36*
X660487D02*
X650789D01*
X651001Y732730D01*
X652114Y730045D01*
X653883Y727738D01*
X656189Y725969D01*
X658875Y724856D01*
X660487Y724644D01*
Y734342D01*
D02*
G37*
G36*
X810043Y828060D02*
X805619Y827712D01*
X801304Y826676D01*
X797204Y824978D01*
X793420Y822659D01*
X790046Y819777D01*
X787163Y816402D01*
X784845Y812618D01*
X783147Y808518D01*
X782111Y804203D01*
X781762Y799779D01*
X782111Y795355D01*
X783147Y791040D01*
X784845Y786940D01*
X787163Y783156D01*
X790046Y779781D01*
X793420Y776899D01*
X797204Y774580D01*
X801304Y772882D01*
X805619Y771846D01*
X810043Y771498D01*
X814468Y771846D01*
X818783Y772882D01*
X822883Y774580D01*
X826667Y776899D01*
X830041Y779781D01*
X832923Y783156D01*
X835242Y786940D01*
X836941Y791040D01*
X837977Y795355D01*
X838325Y799779D01*
X837977Y804203D01*
X836941Y808518D01*
X835242Y812618D01*
X832923Y816402D01*
X830041Y819777D01*
X826667Y822659D01*
X822883Y824978D01*
X818783Y826676D01*
X814468Y827712D01*
X810043Y828060D01*
D02*
G37*
G36*
X241903Y827987D02*
X237479Y827638D01*
X233164Y826602D01*
X229064Y824904D01*
X225280Y822586D01*
X221906Y819703D01*
X219023Y816329D01*
X216705Y812545D01*
X215006Y808445D01*
X213970Y804130D01*
X213622Y799706D01*
X213970Y795281D01*
X215006Y790966D01*
X216705Y786866D01*
X219023Y783082D01*
X221906Y779708D01*
X225280Y776826D01*
X229064Y774507D01*
X233164Y772809D01*
X237479Y771773D01*
X241903Y771424D01*
X246327Y771773D01*
X250643Y772809D01*
X254743Y774507D01*
X258527Y776826D01*
X261901Y779708D01*
X264783Y783082D01*
X267102Y786866D01*
X268800Y790966D01*
X269836Y795281D01*
X270184Y799706D01*
X269836Y804130D01*
X268800Y808445D01*
X267102Y812545D01*
X264783Y816329D01*
X261901Y819703D01*
X258527Y822586D01*
X254743Y824904D01*
X250643Y826602D01*
X246327Y827638D01*
X241903Y827987D01*
D02*
G37*
G36*
X661757Y797928D02*
X658028Y797561D01*
X654442Y796473D01*
X651137Y794707D01*
X648240Y792329D01*
X645863Y789433D01*
X644096Y786128D01*
X643008Y782542D01*
X642641Y778812D01*
X643008Y775083D01*
X644096Y771497D01*
X645863Y768192D01*
X648240Y765295D01*
X651137Y762918D01*
X654442Y761151D01*
X658028Y760063D01*
X661757Y759696D01*
X665486Y760063D01*
X669072Y761151D01*
X672377Y762918D01*
X675274Y765295D01*
X677652Y768192D01*
X679418Y771497D01*
X680506Y775083D01*
X680873Y778812D01*
X680506Y782542D01*
X679418Y786128D01*
X677652Y789433D01*
X675274Y792329D01*
X672377Y794707D01*
X669072Y796473D01*
X665486Y797561D01*
X661757Y797928D01*
D02*
G37*
G36*
X412496Y736548D02*
Y722630D01*
X426415D01*
X426245Y724348D01*
X425374Y727220D01*
X423959Y729868D01*
X422054Y732188D01*
X419734Y734093D01*
X417086Y735508D01*
X414214Y736379D01*
X412496Y736548D01*
D02*
G37*
G36*
X409956Y720090D02*
X396037D01*
X396207Y718372D01*
X397078Y715500D01*
X398493Y712852D01*
X400397Y710531D01*
X402718Y708627D01*
X405366Y707212D01*
X408238Y706340D01*
X409956Y706171D01*
Y720090D01*
D02*
G37*
G36*
X283210Y742033D02*
X279177Y741636D01*
X275299Y740460D01*
X271724Y738549D01*
X268592Y735978D01*
X266021Y732846D01*
X264110Y729271D01*
X262934Y725393D01*
X262537Y721360D01*
X262934Y717327D01*
X264110Y713448D01*
X266021Y709874D01*
X268592Y706741D01*
X271724Y704171D01*
X275299Y702260D01*
X279177Y701084D01*
X283210Y700686D01*
X287243Y701084D01*
X291121Y702260D01*
X294696Y704171D01*
X297828Y706741D01*
X300399Y709874D01*
X302310Y713448D01*
X303486Y717327D01*
X303883Y721360D01*
X303486Y725393D01*
X302310Y729271D01*
X300399Y732846D01*
X297828Y735978D01*
X294696Y738549D01*
X291121Y740460D01*
X287243Y741636D01*
X283210Y742033D01*
D02*
G37*
G36*
X800963Y719490D02*
X798410Y719154D01*
X796031Y718168D01*
X793988Y716601D01*
X792421Y714558D01*
X791435Y712179D01*
X791099Y709626D01*
X791435Y707074D01*
X792421Y704695D01*
X793988Y702652D01*
X796031Y701084D01*
X798410Y700099D01*
X800963Y699763D01*
X803515Y700099D01*
X805894Y701084D01*
X807937Y702652D01*
X809504Y704695D01*
X810490Y707074D01*
X810826Y709626D01*
X810490Y712179D01*
X809504Y714558D01*
X807937Y716601D01*
X805894Y718168D01*
X803515Y719154D01*
X800963Y719490D01*
D02*
G37*
G36*
X409956Y736548D02*
X408238Y736379D01*
X405366Y735508D01*
X402718Y734093D01*
X400397Y732188D01*
X398493Y729868D01*
X397078Y727220D01*
X396207Y724348D01*
X396037Y722630D01*
X409956D01*
Y736548D01*
D02*
G37*
G36*
X356108Y735707D02*
X352395Y735218D01*
X348935Y733784D01*
X345963Y731505D01*
X343683Y728533D01*
X342250Y725073D01*
X341761Y721360D01*
X342250Y717647D01*
X343683Y714186D01*
X345963Y711215D01*
X348935Y708935D01*
X352395Y707502D01*
X356108Y707013D01*
X359821Y707502D01*
X363281Y708935D01*
X366253Y711215D01*
X368533Y714186D01*
X369966Y717647D01*
X370455Y721360D01*
X369966Y725073D01*
X368533Y728533D01*
X366253Y731505D01*
X363281Y733784D01*
X359821Y735218D01*
X356108Y735707D01*
D02*
G37*
G36*
X426415Y720090D02*
X412496D01*
Y706171D01*
X414214Y706340D01*
X417086Y707212D01*
X419734Y708627D01*
X422054Y710531D01*
X423959Y712852D01*
X425374Y715500D01*
X426245Y718372D01*
X426415Y720090D01*
D02*
G37*
G36*
X689065Y583591D02*
X687342Y583364D01*
X685735Y582699D01*
X684355Y581640D01*
X683297Y580261D01*
X682632Y578654D01*
X682404Y576930D01*
Y571850D01*
X682632Y570126D01*
X683297Y568520D01*
X684355Y567140D01*
X685735Y566081D01*
X687342Y565416D01*
X689065Y565189D01*
X690789Y565416D01*
X692396Y566081D01*
X693775Y567140D01*
X694834Y568520D01*
X695499Y570126D01*
X695726Y571850D01*
Y576930D01*
X695499Y578654D01*
X694834Y580261D01*
X693775Y581640D01*
X692396Y582699D01*
X690789Y583364D01*
X689065Y583591D01*
D02*
G37*
G36*
X671351Y573120D02*
X664936D01*
Y564331D01*
X665655Y564426D01*
X667508Y565194D01*
X669100Y566415D01*
X670322Y568007D01*
X671089Y569861D01*
X671351Y571850D01*
Y573120D01*
D02*
G37*
G36*
X662395D02*
X655980D01*
Y571850D01*
X656242Y569861D01*
X657009Y568007D01*
X658231Y566415D01*
X659823Y565194D01*
X661676Y564426D01*
X662395Y564331D01*
Y573120D01*
D02*
G37*
G36*
X800963Y592490D02*
X798410Y592154D01*
X796031Y591168D01*
X793988Y589601D01*
X792421Y587558D01*
X791435Y585179D01*
X791099Y582626D01*
X791435Y580074D01*
X792421Y577695D01*
X793988Y575652D01*
X796031Y574084D01*
X798410Y573099D01*
X800963Y572763D01*
X803515Y573099D01*
X805894Y574084D01*
X807937Y575652D01*
X809504Y577695D01*
X810490Y580074D01*
X810826Y582626D01*
X810490Y585179D01*
X809504Y587558D01*
X807937Y589601D01*
X805894Y591168D01*
X803515Y592154D01*
X800963Y592490D01*
D02*
G37*
G36*
X774293Y581356D02*
X764842D01*
X765045Y579808D01*
X766133Y577182D01*
X767863Y574927D01*
X770118Y573197D01*
X772744Y572109D01*
X774293Y571905D01*
Y581356D01*
D02*
G37*
G36*
X786283D02*
X776833D01*
Y571905D01*
X778381Y572109D01*
X781006Y573197D01*
X783262Y574927D01*
X784992Y577182D01*
X786080Y579808D01*
X786283Y581356D01*
D02*
G37*
G36*
X776833Y567947D02*
Y558496D01*
X786283D01*
X786080Y560044D01*
X784992Y562670D01*
X783262Y564925D01*
X781006Y566656D01*
X778381Y567743D01*
X776833Y567947D01*
D02*
G37*
G36*
X283210Y571007D02*
X279177Y570610D01*
X275299Y569433D01*
X271724Y567523D01*
X268592Y564952D01*
X266021Y561819D01*
X264110Y558245D01*
X262934Y554366D01*
X262537Y550333D01*
X262934Y546300D01*
X264110Y542422D01*
X266021Y538848D01*
X268592Y535715D01*
X271724Y533144D01*
X275299Y531233D01*
X279177Y530057D01*
X283210Y529660D01*
X287243Y530057D01*
X291121Y531233D01*
X294696Y533144D01*
X297828Y535715D01*
X300399Y538848D01*
X302310Y542422D01*
X303486Y546300D01*
X303883Y550333D01*
X303486Y554366D01*
X302310Y558245D01*
X300399Y561819D01*
X297828Y564952D01*
X294696Y567523D01*
X291121Y569433D01*
X287243Y570610D01*
X283210Y571007D01*
D02*
G37*
G36*
X800963Y541690D02*
X798410Y541354D01*
X796031Y540368D01*
X793988Y538801D01*
X792421Y536758D01*
X791435Y534379D01*
X791099Y531826D01*
X791435Y529273D01*
X792421Y526895D01*
X793988Y524852D01*
X796031Y523284D01*
X798410Y522299D01*
X800963Y521963D01*
X803515Y522299D01*
X805894Y523284D01*
X807937Y524852D01*
X809504Y526895D01*
X810490Y529273D01*
X810826Y531826D01*
X810490Y534379D01*
X809504Y536758D01*
X807937Y538801D01*
X805894Y540368D01*
X803515Y541354D01*
X800963Y541690D01*
D02*
G37*
G36*
X774293Y530556D02*
X764842D01*
X765045Y529008D01*
X766133Y526382D01*
X767863Y524127D01*
X770118Y522397D01*
X772744Y521309D01*
X774293Y521105D01*
Y530556D01*
D02*
G37*
G36*
Y567947D02*
X772744Y567743D01*
X770118Y566656D01*
X767863Y564925D01*
X766133Y562670D01*
X765045Y560044D01*
X764842Y558496D01*
X774293D01*
Y567947D01*
D02*
G37*
G36*
X800963Y567090D02*
X798410Y566754D01*
X796031Y565768D01*
X793988Y564201D01*
X792421Y562158D01*
X791435Y559779D01*
X791099Y557226D01*
X791435Y554674D01*
X792298Y552590D01*
X787287Y547579D01*
X782809D01*
X782378Y548849D01*
X783262Y549527D01*
X784992Y551782D01*
X786080Y554408D01*
X786283Y555956D01*
X775563D01*
X764842D01*
X765045Y554408D01*
X766133Y551782D01*
X767863Y549527D01*
X768747Y548849D01*
X768316Y547579D01*
X767761D01*
X767761Y547579D01*
X766671Y547362D01*
X765747Y546745D01*
X765746Y546745D01*
X749206Y530205D01*
X748571Y530331D01*
X746737Y529967D01*
X745183Y528928D01*
X744144Y527374D01*
X743780Y525540D01*
X744144Y523707D01*
X745183Y522152D01*
X746737Y521114D01*
X748571Y520749D01*
X750404Y521114D01*
X751958Y522152D01*
X752997Y523707D01*
X753362Y525540D01*
X753235Y526176D01*
X765201Y538142D01*
X766158Y537303D01*
X766133Y537270D01*
X765045Y534644D01*
X764842Y533096D01*
X775563D01*
X786283D01*
X786080Y534644D01*
X784992Y537270D01*
X783262Y539525D01*
X781846Y540612D01*
X782277Y541882D01*
X788467D01*
X788467Y541882D01*
X789557Y542099D01*
X790481Y542716D01*
X796327Y548562D01*
X798410Y547699D01*
X800963Y547363D01*
X803515Y547699D01*
X805894Y548684D01*
X807937Y550252D01*
X809504Y552295D01*
X810490Y554674D01*
X810826Y557226D01*
X810490Y559779D01*
X809504Y562158D01*
X807937Y564201D01*
X805894Y565768D01*
X803515Y566754D01*
X800963Y567090D01*
D02*
G37*
G36*
X356108Y564680D02*
X352395Y564191D01*
X348935Y562758D01*
X345963Y560478D01*
X343683Y557507D01*
X342250Y554047D01*
X341761Y550333D01*
X342250Y546620D01*
X343683Y543160D01*
X345963Y540189D01*
X348935Y537909D01*
X352395Y536475D01*
X356108Y535987D01*
X359821Y536475D01*
X363281Y537909D01*
X366253Y540189D01*
X368533Y543160D01*
X369966Y546620D01*
X370455Y550333D01*
X369966Y554047D01*
X368533Y557507D01*
X366253Y560478D01*
X363281Y562758D01*
X359821Y564191D01*
X356108Y564680D01*
D02*
G37*
G36*
X662395Y584449D02*
X661676Y584354D01*
X659823Y583586D01*
X658231Y582365D01*
X657009Y580773D01*
X656242Y578919D01*
X655980Y576930D01*
Y575660D01*
X662395D01*
Y584449D01*
D02*
G37*
G36*
X356108Y650193D02*
X352395Y649705D01*
X348935Y648271D01*
X345963Y645991D01*
X343683Y643020D01*
X342250Y639560D01*
X341761Y635847D01*
X342250Y632133D01*
X343683Y628673D01*
X345963Y625702D01*
X348935Y623422D01*
X352395Y621989D01*
X356108Y621500D01*
X359821Y621989D01*
X363281Y623422D01*
X366253Y625702D01*
X368533Y628673D01*
X369966Y632133D01*
X370455Y635847D01*
X369966Y639560D01*
X368533Y643020D01*
X366253Y645991D01*
X363281Y648271D01*
X359821Y649705D01*
X356108Y650193D01*
D02*
G37*
G36*
X283210Y656520D02*
X279177Y656123D01*
X275299Y654946D01*
X271724Y653036D01*
X268592Y650465D01*
X266021Y647332D01*
X264110Y643758D01*
X262934Y639880D01*
X262537Y635847D01*
X262934Y631813D01*
X264110Y627935D01*
X266021Y624361D01*
X268592Y621228D01*
X271724Y618657D01*
X275299Y616747D01*
X279177Y615570D01*
X283210Y615173D01*
X287243Y615570D01*
X291121Y616747D01*
X294696Y618657D01*
X297828Y621228D01*
X300399Y624361D01*
X302310Y627935D01*
X303486Y631813D01*
X303883Y635847D01*
X303486Y639880D01*
X302310Y643758D01*
X300399Y647332D01*
X297828Y650465D01*
X294696Y653036D01*
X291121Y654946D01*
X287243Y656123D01*
X283210Y656520D01*
D02*
G37*
G36*
X776833Y618747D02*
Y609296D01*
X786283D01*
X786080Y610844D01*
X784992Y613470D01*
X783262Y615725D01*
X781006Y617456D01*
X778381Y618543D01*
X776833Y618747D01*
D02*
G37*
G36*
X636996Y651860D02*
X630580D01*
Y650590D01*
X630842Y648601D01*
X631609Y646747D01*
X632831Y645155D01*
X634423Y643934D01*
X636276Y643166D01*
X636996Y643071D01*
Y651860D01*
D02*
G37*
G36*
X800963Y643290D02*
X798410Y642954D01*
X796031Y641968D01*
X793988Y640401D01*
X792421Y638358D01*
X791435Y635979D01*
X791099Y633426D01*
X791435Y630873D01*
X792421Y628495D01*
X793988Y626452D01*
X796031Y624884D01*
X798410Y623899D01*
X800963Y623563D01*
X803515Y623899D01*
X805894Y624884D01*
X807937Y626452D01*
X809504Y628495D01*
X810490Y630873D01*
X810826Y633426D01*
X810490Y635979D01*
X809504Y638358D01*
X807937Y640401D01*
X805894Y641968D01*
X803515Y642954D01*
X800963Y643290D01*
D02*
G37*
G36*
X775563D02*
X773010Y642954D01*
X770631Y641968D01*
X768588Y640401D01*
X767020Y638358D01*
X766035Y635979D01*
X765699Y633426D01*
X766035Y630873D01*
X767020Y628495D01*
X768588Y626452D01*
X770631Y624884D01*
X773010Y623899D01*
X775563Y623563D01*
X778115Y623899D01*
X780494Y624884D01*
X782537Y626452D01*
X784104Y628495D01*
X785090Y630873D01*
X785426Y633426D01*
X785090Y635979D01*
X784104Y638358D01*
X782537Y640401D01*
X780494Y641968D01*
X778115Y642954D01*
X775563Y643290D01*
D02*
G37*
G36*
X774293Y618747D02*
X772744Y618543D01*
X770118Y617456D01*
X767863Y615725D01*
X766133Y613470D01*
X765045Y610844D01*
X764842Y609296D01*
X774293D01*
Y618747D01*
D02*
G37*
G36*
X776833Y593347D02*
Y583896D01*
X786283D01*
X786080Y585444D01*
X784992Y588070D01*
X783262Y590325D01*
X781006Y592056D01*
X778381Y593143D01*
X776833Y593347D01*
D02*
G37*
G36*
X774293Y593347D02*
X772744Y593143D01*
X770118Y592056D01*
X767863Y590325D01*
X766133Y588070D01*
X765045Y585444D01*
X764842Y583896D01*
X774293D01*
Y593347D01*
D02*
G37*
G36*
X664936Y584449D02*
Y575660D01*
X671351D01*
Y576930D01*
X671089Y578919D01*
X670322Y580773D01*
X669100Y582365D01*
X667508Y583586D01*
X665655Y584354D01*
X664936Y584449D01*
D02*
G37*
G36*
X800963Y617890D02*
X798410Y617554D01*
X796031Y616568D01*
X793988Y615001D01*
X792421Y612958D01*
X791435Y610579D01*
X791099Y608026D01*
X791435Y605474D01*
X792421Y603095D01*
X793988Y601052D01*
X796031Y599484D01*
X798410Y598499D01*
X800963Y598163D01*
X803515Y598499D01*
X805894Y599484D01*
X807937Y601052D01*
X809504Y603095D01*
X810490Y605474D01*
X810826Y608026D01*
X810490Y610579D01*
X809504Y612958D01*
X807937Y615001D01*
X805894Y616568D01*
X803515Y617554D01*
X800963Y617890D01*
D02*
G37*
G36*
X774293Y606756D02*
X764842D01*
X765045Y605208D01*
X766133Y602582D01*
X767863Y600327D01*
X770118Y598597D01*
X772744Y597509D01*
X774293Y597305D01*
Y606756D01*
D02*
G37*
G36*
X786283D02*
X776833D01*
Y597305D01*
X778381Y597509D01*
X781006Y598597D01*
X783262Y600327D01*
X784992Y602582D01*
X786080Y605208D01*
X786283Y606756D01*
D02*
G37*
%LPD*%
D10*
X569901Y236927D02*
D03*
Y251927D02*
D03*
X761107Y174887D02*
D03*
Y159887D02*
D03*
X794738Y351926D02*
D03*
Y336926D02*
D03*
X697227Y484640D02*
D03*
Y469640D02*
D03*
Y453377D02*
D03*
Y438377D02*
D03*
D11*
X824955Y333148D02*
D03*
Y367147D02*
D03*
D12*
X779228Y403189D02*
D03*
X794228D02*
D03*
X633294Y397654D02*
D03*
X618294D02*
D03*
X801566Y237570D02*
D03*
X786566D02*
D03*
X801566Y285976D02*
D03*
X786566D02*
D03*
X801566Y261773D02*
D03*
X786566D02*
D03*
D13*
X623312Y220878D02*
D03*
X628312D02*
D03*
X633312D02*
D03*
X638312D02*
D03*
X643312D02*
D03*
X648312D02*
D03*
X653312D02*
D03*
X658312D02*
D03*
X663312D02*
D03*
X668312D02*
D03*
X673312D02*
D03*
X678312D02*
D03*
X683312D02*
D03*
X688312D02*
D03*
X693312D02*
D03*
X698312D02*
D03*
X703312D02*
D03*
X708312D02*
D03*
X713312D02*
D03*
X718312D02*
D03*
X723312D02*
D03*
X728312D02*
D03*
X733312D02*
D03*
X738312D02*
D03*
X743312D02*
D03*
Y372878D02*
D03*
X738312D02*
D03*
X733312D02*
D03*
X728312D02*
D03*
X723312D02*
D03*
X718312D02*
D03*
X713312D02*
D03*
X708312D02*
D03*
X703312D02*
D03*
X698312D02*
D03*
X693312D02*
D03*
X688312D02*
D03*
X683312D02*
D03*
X678312D02*
D03*
X673312D02*
D03*
X668312D02*
D03*
X663312D02*
D03*
X658312D02*
D03*
X653312D02*
D03*
X648312D02*
D03*
X643312D02*
D03*
X638312D02*
D03*
X633312D02*
D03*
X628312D02*
D03*
X623312D02*
D03*
D14*
X759312Y236878D02*
D03*
Y241878D02*
D03*
Y246878D02*
D03*
Y251878D02*
D03*
Y256878D02*
D03*
Y261878D02*
D03*
Y266878D02*
D03*
Y271878D02*
D03*
Y276878D02*
D03*
Y281878D02*
D03*
Y286878D02*
D03*
Y291878D02*
D03*
Y296878D02*
D03*
Y301878D02*
D03*
Y306878D02*
D03*
Y311878D02*
D03*
Y316878D02*
D03*
Y321878D02*
D03*
Y326878D02*
D03*
Y331878D02*
D03*
Y336878D02*
D03*
Y341878D02*
D03*
Y346878D02*
D03*
Y351878D02*
D03*
Y356878D02*
D03*
X607312D02*
D03*
Y351878D02*
D03*
Y346878D02*
D03*
Y341878D02*
D03*
Y336878D02*
D03*
Y331878D02*
D03*
Y326878D02*
D03*
Y321878D02*
D03*
Y316878D02*
D03*
Y311878D02*
D03*
Y306878D02*
D03*
Y301878D02*
D03*
Y296878D02*
D03*
Y291878D02*
D03*
Y286878D02*
D03*
Y281878D02*
D03*
Y276878D02*
D03*
Y271878D02*
D03*
Y266878D02*
D03*
Y261878D02*
D03*
Y256878D02*
D03*
Y251878D02*
D03*
Y246878D02*
D03*
Y241878D02*
D03*
Y236878D02*
D03*
D15*
X807803Y206464D02*
D03*
Y178463D02*
D03*
X793304Y206464D02*
D03*
Y178463D02*
D03*
D16*
X505350Y674414D02*
D03*
D17*
Y650919D02*
D03*
D18*
X583944Y519075D02*
D03*
D19*
X560449D02*
D03*
D20*
X667721Y395018D02*
X694841D01*
X658312Y385608D02*
X667721Y395018D01*
X641533Y386172D02*
X647465D01*
X638312Y382951D02*
X641533Y386172D01*
X638312Y372878D02*
Y382951D01*
X647465Y386172D02*
X649248Y387955D01*
X670196Y408988D02*
X679715D01*
X649248Y388039D02*
X670196Y408988D01*
X649248Y387955D02*
Y388039D01*
X653312Y386356D02*
X671880Y404924D01*
X679715Y408988D02*
X684955Y414228D01*
X671880Y404924D02*
X689526D01*
X653312Y372878D02*
Y386356D01*
X658312Y372878D02*
Y385608D01*
X824955Y367147D02*
Y472312D01*
X807803Y206464D02*
Y218030D01*
X569901Y225944D02*
Y236927D01*
X727970Y356878D02*
X759312D01*
X629002D02*
X727970D01*
X728312Y356536D01*
Y246878D02*
Y356536D01*
X505350Y650919D02*
X528398D01*
X626745Y749266D02*
X696898D01*
X528398Y650919D02*
X626745Y749266D01*
X696898D02*
X714465Y731699D01*
Y653130D02*
Y731699D01*
X824955Y367147D02*
X824966Y367159D01*
X688312Y237748D02*
X688395Y237832D01*
X688312Y220878D02*
Y237748D01*
X607312Y291878D02*
X624907D01*
X607312Y356878D02*
X620075D01*
X628178Y348776D01*
X788467Y544730D02*
X800963Y557226D01*
X767761Y544730D02*
X788467D01*
X748571Y525540D02*
X767761Y544730D01*
X638265Y574390D02*
X710402Y502254D01*
Y410861D02*
Y502254D01*
Y410861D02*
X738312Y382951D01*
X714465Y412545D02*
X743312Y383698D01*
Y372878D02*
Y383698D01*
X738312Y372878D02*
Y382951D01*
X714465Y412545D02*
Y574390D01*
X623312Y362569D02*
Y372878D01*
Y362569D02*
X629002Y356878D01*
X728312Y246878D02*
X759312D01*
X648368D02*
X728312D01*
Y220878D02*
Y246878D01*
X723312Y220878D02*
Y246709D01*
X713312Y220878D02*
Y246552D01*
X673312Y220878D02*
Y246665D01*
X630951Y246878D02*
X648368D01*
X648312Y246822D02*
X648368Y246878D01*
X648312Y220878D02*
Y246822D01*
X620951Y236878D02*
X630951Y246878D01*
X607312Y236878D02*
X620951D01*
X569901Y236927D02*
X607263D01*
X744100Y174887D02*
X761107D01*
X713312Y205676D02*
X744100Y174887D01*
X713312Y205676D02*
Y220878D01*
X779228Y459292D02*
X800963Y481026D01*
X779228Y403189D02*
Y459292D01*
Y367360D02*
Y403189D01*
X768746Y356878D02*
X779228Y367360D01*
X759312Y356878D02*
X768746D01*
X534782Y242955D02*
Y287751D01*
X553910Y306878D01*
X539970Y311878D02*
X607312D01*
X524074Y344472D02*
X551668Y316878D01*
X607312D01*
X552415Y321878D02*
X607312D01*
X553910Y331878D02*
X607312D01*
X543246Y342542D02*
X553910Y331878D01*
X553163Y326878D02*
X607312D01*
X521364Y424639D02*
X534782Y411221D01*
Y339511D02*
Y411221D01*
Y339511D02*
X552415Y321878D01*
X522203Y505709D02*
X539182Y488729D01*
Y340859D02*
Y488729D01*
Y340859D02*
X553163Y326878D01*
X543246Y342542D02*
Y503675D01*
X553910Y306878D02*
X607312D01*
X623312Y372878D02*
Y388503D01*
X620955Y390860D02*
X623312Y388503D01*
X614144Y390860D02*
X620955D01*
X611953Y393052D02*
X614144Y390860D01*
X611953Y393052D02*
Y416076D01*
X629757Y433880D01*
X633312Y372878D02*
Y397636D01*
X794691Y351878D02*
X794738Y351926D01*
X759312Y351878D02*
X794691D01*
X801566Y285976D02*
X819162Y268380D01*
Y173661D02*
Y268380D01*
X814953Y169452D02*
X819162Y173661D01*
X800248Y169452D02*
X814953D01*
X793304Y176397D02*
X800248Y169452D01*
X793304Y176397D02*
Y178463D01*
X808578Y261773D02*
X815098Y255254D01*
X807803Y178463D02*
X815098Y185758D01*
Y255254D01*
X801566Y261773D02*
X808578D01*
X801566Y224268D02*
X807803Y218030D01*
X801566Y224268D02*
Y237570D01*
X769384Y256878D02*
X786566Y239697D01*
X759312Y256878D02*
X769384D01*
X786566Y237570D02*
Y239697D01*
X769384Y266878D02*
X786566Y284060D01*
X759312Y266878D02*
X769384D01*
X759312Y261878D02*
X786460D01*
X786566Y284060D02*
Y285976D01*
X656424Y173753D02*
X678312Y195640D01*
Y220878D01*
X683312Y195665D02*
X705225Y173753D01*
X683312Y195665D02*
Y220878D01*
X697227Y453377D02*
Y469640D01*
X697187Y484679D02*
X697227Y484640D01*
X629757Y484679D02*
X697187D01*
D21*
X505350Y557369D02*
Y650919D01*
Y557369D02*
X628839Y433880D01*
X629757D01*
X560474Y654171D02*
Y664329D01*
X631757Y735612D01*
X450596Y674370D02*
X505460D01*
X411226Y635000D02*
X450596Y674370D01*
X411226Y548640D02*
Y635000D01*
Y463550D02*
Y548640D01*
Y375920D02*
Y463550D01*
Y292100D02*
Y375920D01*
Y208280D02*
Y292100D01*
X560474Y519963D02*
Y603371D01*
X583944Y498570D02*
Y519075D01*
Y498570D02*
X597834Y484679D01*
X629757D01*
D22*
X559680Y519169D02*
X560474Y519963D01*
D23*
X656424Y173753D02*
D03*
X705225D02*
D03*
X629757Y484679D02*
D03*
Y510079D02*
D03*
Y459280D02*
D03*
Y433880D02*
D03*
X560474Y603371D02*
D03*
Y628771D02*
D03*
Y654171D02*
D03*
D24*
X810043Y135394D02*
D03*
X241903Y135321D02*
D03*
X810043Y799779D02*
D03*
X241903Y799706D02*
D03*
X283210Y721360D02*
D03*
Y635847D02*
D03*
Y550333D02*
D03*
Y464820D02*
D03*
Y379307D02*
D03*
Y293793D02*
D03*
Y208280D02*
D03*
D25*
X800963Y709626D02*
D03*
X775563D02*
D03*
Y684226D02*
D03*
X800963D02*
D03*
Y633426D02*
D03*
X775563D02*
D03*
Y658826D02*
D03*
X800963D02*
D03*
Y557226D02*
D03*
X775563D02*
D03*
Y531826D02*
D03*
X800963D02*
D03*
Y582626D02*
D03*
X775563D02*
D03*
Y608026D02*
D03*
X800963D02*
D03*
Y481026D02*
D03*
X775563D02*
D03*
Y506426D02*
D03*
X800963D02*
D03*
D26*
X356108Y721360D02*
D03*
X411226D02*
D03*
X356108Y635847D02*
D03*
X411226D02*
D03*
X356108Y550333D02*
D03*
X411226D02*
D03*
X356108Y464820D02*
D03*
X411226D02*
D03*
X356108Y379307D02*
D03*
X411226D02*
D03*
X356108Y293793D02*
D03*
X411226D02*
D03*
X356108Y208280D02*
D03*
X411226D02*
D03*
D27*
X631757Y705612D02*
D03*
X661757D02*
D03*
X691757D02*
D03*
Y735612D02*
D03*
X631757D02*
D03*
X661757D02*
D03*
D28*
Y778812D02*
D03*
D29*
X714465Y653130D02*
D03*
X638265D02*
D03*
X714465Y574390D02*
D03*
X638265D02*
D03*
X689065D02*
D03*
X663665D02*
D03*
Y653130D02*
D03*
X689065D02*
D03*
D30*
X490664Y624193D02*
D03*
Y582152D02*
D03*
Y493924D02*
D03*
Y414282D02*
D03*
Y330199D02*
D03*
Y255294D02*
D03*
Y162329D02*
D03*
X700396Y286165D02*
D03*
Y299465D02*
D03*
Y312765D02*
D03*
X676155Y286165D02*
D03*
Y299465D02*
D03*
Y312765D02*
D03*
X689898Y404623D02*
D03*
X694841Y395018D02*
D03*
X824955Y472312D02*
D03*
X569901Y225944D02*
D03*
X688312Y237748D02*
D03*
X624907Y291878D02*
D03*
X628178Y348776D02*
D03*
X748571Y525540D02*
D03*
X684955Y414228D02*
D03*
X534782Y242955D02*
D03*
X540820Y312299D02*
D03*
X524074Y344472D02*
D03*
X521364Y424639D02*
D03*
X522203Y505709D02*
D03*
X543246Y503675D02*
D03*
M02*
