G04 Layer_Color=16711935*
%FSLAX44Y44*%
%MOMM*%
G71*
G01*
G75*
%ADD40R,1.0032X0.7032*%
%ADD42R,0.7032X1.0032*%
%ADD46R,2.7432X2.8702*%
%ADD47R,1.4732X0.9652*%
%ADD50C,2.2032*%
%ADD51C,4.0132*%
%ADD52C,1.8542*%
%ADD53C,2.7432*%
%ADD54C,1.9032*%
%ADD55C,3.7032*%
%ADD56O,1.2192X1.7272*%
%ADD57C,0.8382*%
%ADD58R,1.0032X1.0032*%
%ADD59R,1.4532X0.8532*%
D40*
X564199Y195858D02*
D03*
Y180858D02*
D03*
Y151303D02*
D03*
Y166303D02*
D03*
X633019Y173626D02*
D03*
Y158626D02*
D03*
X727056Y173626D02*
D03*
Y158626D02*
D03*
X505612Y603116D02*
D03*
Y618117D02*
D03*
Y522246D02*
D03*
Y537246D02*
D03*
Y440584D02*
D03*
Y455584D02*
D03*
Y359258D02*
D03*
Y374258D02*
D03*
Y277997D02*
D03*
Y292997D02*
D03*
Y196736D02*
D03*
Y211736D02*
D03*
D42*
X683917Y669978D02*
D03*
X668917D02*
D03*
D46*
X505460Y674370D02*
D03*
X709996Y486234D02*
D03*
D47*
X505460Y697865D02*
D03*
X709996Y509729D02*
D03*
D50*
X656424Y173753D02*
D03*
X705225D02*
D03*
X629757Y484679D02*
D03*
Y510079D02*
D03*
Y459280D02*
D03*
Y433880D02*
D03*
X560474Y603371D02*
D03*
Y628771D02*
D03*
Y654171D02*
D03*
D51*
X810043Y135394D02*
D03*
X241903Y135321D02*
D03*
X810043Y799779D02*
D03*
X241903Y799706D02*
D03*
X283210Y721360D02*
D03*
Y635847D02*
D03*
Y550333D02*
D03*
Y464820D02*
D03*
Y379307D02*
D03*
Y293793D02*
D03*
Y208280D02*
D03*
D52*
X800963Y709626D02*
D03*
X775563D02*
D03*
Y684226D02*
D03*
X800963D02*
D03*
Y633426D02*
D03*
X775563D02*
D03*
Y658826D02*
D03*
X800963D02*
D03*
Y557226D02*
D03*
X775563D02*
D03*
Y531826D02*
D03*
X800963D02*
D03*
Y582626D02*
D03*
X775563D02*
D03*
Y608026D02*
D03*
X800963D02*
D03*
Y481026D02*
D03*
X775563D02*
D03*
Y506426D02*
D03*
X800963D02*
D03*
D53*
X356108Y721360D02*
D03*
X411226D02*
D03*
X356108Y635847D02*
D03*
X411226D02*
D03*
X356108Y550333D02*
D03*
X411226D02*
D03*
X356108Y464820D02*
D03*
X411226D02*
D03*
X356108Y379307D02*
D03*
X411226D02*
D03*
X356108Y293793D02*
D03*
X411226D02*
D03*
X356108Y208280D02*
D03*
X411226D02*
D03*
D54*
X631757Y705612D02*
D03*
X661757D02*
D03*
X691757D02*
D03*
Y735612D02*
D03*
X631757D02*
D03*
X661757D02*
D03*
D55*
Y778812D02*
D03*
D56*
X714465Y653130D02*
D03*
X638265D02*
D03*
X714465Y574390D02*
D03*
X638265D02*
D03*
X689065D02*
D03*
X663665D02*
D03*
Y653130D02*
D03*
X689065D02*
D03*
D57*
X490664Y624193D02*
D03*
Y582152D02*
D03*
Y493924D02*
D03*
Y414282D02*
D03*
Y330199D02*
D03*
Y255294D02*
D03*
Y162329D02*
D03*
X700396Y286165D02*
D03*
Y299465D02*
D03*
Y312765D02*
D03*
X676155Y286165D02*
D03*
Y299465D02*
D03*
Y312765D02*
D03*
X689898Y404623D02*
D03*
X694841Y395018D02*
D03*
X824955Y472312D02*
D03*
X569901Y225944D02*
D03*
X688312Y237748D02*
D03*
X624907Y291878D02*
D03*
X628178Y348776D02*
D03*
X748571Y525540D02*
D03*
X684955Y414228D02*
D03*
X534782Y242955D02*
D03*
X540820Y312299D02*
D03*
X524074Y344472D02*
D03*
X521364Y424639D02*
D03*
X522203Y505709D02*
D03*
X543246Y503675D02*
D03*
D58*
X600096Y759792D02*
D03*
Y781792D02*
D03*
X630096Y759792D02*
D03*
Y781792D02*
D03*
D59*
X473070Y584139D02*
D03*
X459570Y593639D02*
D03*
X473070Y502859D02*
D03*
X459570Y512359D02*
D03*
X473070Y421579D02*
D03*
X459570Y431079D02*
D03*
X473070Y340299D02*
D03*
X459570Y349799D02*
D03*
X473070Y259019D02*
D03*
X459570Y268519D02*
D03*
X473070Y196739D02*
D03*
Y177739D02*
D03*
X459570Y187239D02*
D03*
X473070Y359299D02*
D03*
Y278019D02*
D03*
Y440579D02*
D03*
Y521859D02*
D03*
Y603139D02*
D03*
M02*
