M48
;Layer_Color=9474304
;FILE_FORMAT=4:4
METRIC,LZ
;TYPE=PLATED
T1F00S00C0.3810
T2F00S00C0.5000
T3F00S00C0.6350
T4F00S00C1.0160
T5F00S00C1.0200
T6F00S00C1.1500
T7F00S00C1.8542
T8F00S00C2.9972
T9F00S00C3.0000
T10F00S00C3.1750
%
T01
X00490664Y00162329
Y00255294
X00534782Y00242955
X00569901Y00225944
X0054082Y00312299
X00524074Y00344472
X00490664Y00330199
X00628178Y00348776
X00624907Y00291878
X00676155Y00286165
Y00299465
Y00312765
X00700396
Y00299465
Y00286165
X00688312Y00237748
X00694841Y00395018
X00824955Y00472312
X00748571Y0052554
X00684955Y00414228
X00689898Y00404623
X00521364Y00424639
X00490664Y00414282
Y00493924
X00522203Y00505709
X00543246Y00503675
X00490664Y00582152
Y00624193
T02
X00656424Y00173753
X00705225
T03
X00638265Y0057439
X00663665
X00689065
X00714465
Y0065313
X00689065
X00663665
X00638265
T04
X00800963Y00481026
Y00506426
Y00531826
Y00557226
Y00582626
Y00608026
Y00633426
Y00658826
Y00684226
Y00709626
X00775563
Y00684226
Y00658826
Y00633426
Y00608026
Y00582626
Y00557226
Y00531826
Y00506426
Y00481026
T05
X00631757Y00705612
X00661757
X00691757
Y00735612
X00661757
X00631757
T06
X00629757Y0043388
Y0045928
Y00484679
Y00510079
X00560474Y00603371
Y00628771
Y00654171
T07
X00356108Y0020828
Y00293793
Y00379307
X00411226
Y00293793
Y0020828
Y0046482
Y00550333
Y00635847
Y0072136
X00356108
Y00635847
Y00550333
Y0046482
T08
X0028321Y0020828
Y00293793
Y00379307
Y0046482
Y00550333
Y00635847
Y0072136
T09
X00661757Y00778812
T10
X00241903Y00135321
X00810043Y00135394
X00241903Y00799706
X00810043Y00799779
M30
