G04 Layer_Color=8388736*
%FSLAX44Y44*%
%MOMM*%
G71*
G01*
G75*
%ADD40R,1.0032X0.7032*%
%ADD41R,1.9032X1.0032*%
%ADD42R,0.7032X1.0032*%
%ADD43O,0.5032X2.3032*%
%ADD44O,2.3032X0.5032*%
%ADD45R,1.1032X1.4032*%
%ADD46R,2.7432X2.8702*%
%ADD47R,1.4732X0.9652*%
%ADD48R,2.8702X2.7432*%
%ADD49R,0.9652X1.4732*%
%ADD50C,2.2032*%
%ADD51C,4.0132*%
%ADD52C,1.8542*%
%ADD53C,2.7432*%
%ADD54C,1.9032*%
%ADD55C,3.7032*%
%ADD56O,1.2192X1.7272*%
%ADD57C,0.8382*%
D40*
X569901Y236927D02*
D03*
Y251927D02*
D03*
X761107Y174887D02*
D03*
Y159887D02*
D03*
X794738Y351926D02*
D03*
Y336926D02*
D03*
X697227Y484640D02*
D03*
Y469640D02*
D03*
Y453377D02*
D03*
Y438377D02*
D03*
D41*
X824955Y333148D02*
D03*
Y367147D02*
D03*
D42*
X779228Y403189D02*
D03*
X794228D02*
D03*
X633294Y397654D02*
D03*
X618294D02*
D03*
X801566Y237570D02*
D03*
X786566D02*
D03*
X801566Y285976D02*
D03*
X786566D02*
D03*
X801566Y261773D02*
D03*
X786566D02*
D03*
D43*
X623312Y220878D02*
D03*
X628312D02*
D03*
X633312D02*
D03*
X638312D02*
D03*
X643312D02*
D03*
X648312D02*
D03*
X653312D02*
D03*
X658312D02*
D03*
X663312D02*
D03*
X668312D02*
D03*
X673312D02*
D03*
X678312D02*
D03*
X683312D02*
D03*
X688312D02*
D03*
X693312D02*
D03*
X698312D02*
D03*
X703312D02*
D03*
X708312D02*
D03*
X713312D02*
D03*
X718312D02*
D03*
X723312D02*
D03*
X728312D02*
D03*
X733312D02*
D03*
X738312D02*
D03*
X743312D02*
D03*
Y372878D02*
D03*
X738312D02*
D03*
X733312D02*
D03*
X728312D02*
D03*
X723312D02*
D03*
X718312D02*
D03*
X713312D02*
D03*
X708312D02*
D03*
X703312D02*
D03*
X698312D02*
D03*
X693312D02*
D03*
X688312D02*
D03*
X683312D02*
D03*
X678312D02*
D03*
X673312D02*
D03*
X668312D02*
D03*
X663312D02*
D03*
X658312D02*
D03*
X653312D02*
D03*
X648312D02*
D03*
X643312D02*
D03*
X638312D02*
D03*
X633312D02*
D03*
X628312D02*
D03*
X623312D02*
D03*
D44*
X759312Y236878D02*
D03*
Y241878D02*
D03*
Y246878D02*
D03*
Y251878D02*
D03*
Y256878D02*
D03*
Y261878D02*
D03*
Y266878D02*
D03*
Y271878D02*
D03*
Y276878D02*
D03*
Y281878D02*
D03*
Y286878D02*
D03*
Y291878D02*
D03*
Y296878D02*
D03*
Y301878D02*
D03*
Y306878D02*
D03*
Y311878D02*
D03*
Y316878D02*
D03*
Y321878D02*
D03*
Y326878D02*
D03*
Y331878D02*
D03*
Y336878D02*
D03*
Y341878D02*
D03*
Y346878D02*
D03*
Y351878D02*
D03*
Y356878D02*
D03*
X607312D02*
D03*
Y351878D02*
D03*
Y346878D02*
D03*
Y341878D02*
D03*
Y336878D02*
D03*
Y331878D02*
D03*
Y326878D02*
D03*
Y321878D02*
D03*
Y316878D02*
D03*
Y311878D02*
D03*
Y306878D02*
D03*
Y301878D02*
D03*
Y296878D02*
D03*
Y291878D02*
D03*
Y286878D02*
D03*
Y281878D02*
D03*
Y276878D02*
D03*
Y271878D02*
D03*
Y266878D02*
D03*
Y261878D02*
D03*
Y256878D02*
D03*
Y251878D02*
D03*
Y246878D02*
D03*
Y241878D02*
D03*
Y236878D02*
D03*
D45*
X807803Y206464D02*
D03*
Y178463D02*
D03*
X793304Y206464D02*
D03*
Y178463D02*
D03*
D46*
X505350Y674414D02*
D03*
D47*
Y650919D02*
D03*
D48*
X583944Y519075D02*
D03*
D49*
X560449D02*
D03*
D50*
X656424Y173753D02*
D03*
X705225D02*
D03*
X629757Y484679D02*
D03*
Y510079D02*
D03*
Y459280D02*
D03*
Y433880D02*
D03*
X560474Y603371D02*
D03*
Y628771D02*
D03*
Y654171D02*
D03*
D51*
X810043Y135394D02*
D03*
X241903Y135321D02*
D03*
X810043Y799779D02*
D03*
X241903Y799706D02*
D03*
X283210Y721360D02*
D03*
Y635847D02*
D03*
Y550333D02*
D03*
Y464820D02*
D03*
Y379307D02*
D03*
Y293793D02*
D03*
Y208280D02*
D03*
D52*
X800963Y709626D02*
D03*
X775563D02*
D03*
Y684226D02*
D03*
X800963D02*
D03*
Y633426D02*
D03*
X775563D02*
D03*
Y658826D02*
D03*
X800963D02*
D03*
Y557226D02*
D03*
X775563D02*
D03*
Y531826D02*
D03*
X800963D02*
D03*
Y582626D02*
D03*
X775563D02*
D03*
Y608026D02*
D03*
X800963D02*
D03*
Y481026D02*
D03*
X775563D02*
D03*
Y506426D02*
D03*
X800963D02*
D03*
D53*
X356108Y721360D02*
D03*
X411226D02*
D03*
X356108Y635847D02*
D03*
X411226D02*
D03*
X356108Y550333D02*
D03*
X411226D02*
D03*
X356108Y464820D02*
D03*
X411226D02*
D03*
X356108Y379307D02*
D03*
X411226D02*
D03*
X356108Y293793D02*
D03*
X411226D02*
D03*
X356108Y208280D02*
D03*
X411226D02*
D03*
D54*
X631757Y705612D02*
D03*
X661757D02*
D03*
X691757D02*
D03*
Y735612D02*
D03*
X631757D02*
D03*
X661757D02*
D03*
D55*
Y778812D02*
D03*
D56*
X714465Y653130D02*
D03*
X638265D02*
D03*
X714465Y574390D02*
D03*
X638265D02*
D03*
X689065D02*
D03*
X663665D02*
D03*
Y653130D02*
D03*
X689065D02*
D03*
D57*
X490664Y624193D02*
D03*
Y582152D02*
D03*
Y493924D02*
D03*
Y414282D02*
D03*
Y330199D02*
D03*
Y255294D02*
D03*
Y162329D02*
D03*
X700396Y286165D02*
D03*
Y299465D02*
D03*
Y312765D02*
D03*
X676155Y286165D02*
D03*
Y299465D02*
D03*
Y312765D02*
D03*
X689898Y404623D02*
D03*
X694841Y395018D02*
D03*
X824955Y472312D02*
D03*
X569901Y225944D02*
D03*
X688312Y237748D02*
D03*
X624907Y291878D02*
D03*
X628178Y348776D02*
D03*
X748571Y525540D02*
D03*
X684955Y414228D02*
D03*
X534782Y242955D02*
D03*
X540820Y312299D02*
D03*
X524074Y344472D02*
D03*
X521364Y424639D02*
D03*
X522203Y505709D02*
D03*
X543246Y503675D02*
D03*
M02*
